<svg id="Layer_1" data-name="Layer 1" xmlns="http://www.w3.org/2000/svg" width="86" height="58" viewBox="0 0 86 58">
  <defs>
    <style>
      .cls-1 { fill: #2f2f30; } .cls-2 { fill: #11c5ef; } .cls-3 { fill: #fff; }
    </style>
  </defs>
  <title>
    get-zen-abonement
  </title>
  <rect class="cls-1" x="1" y="1" width="84" height="56" rx="5" ry="5"/>
  <path class="cls-2" d="M80 58H6a6.007 6.007 0 0 1-6-6V6a6.007 6.007 0 0 1 6-6h74a6.007 6.007 0 0 1 6 6v46a6.007 6.007 0 0 1-6 6zM6 2a4 4 0 0 0-4 4v46a4 4 0 0 0 4 4h74a4 4 0 0 0 4-4V6a4 4 0 0 0-4-4z"/>
  <path class="cls-3" d="M36.912 38v-3.412l7.77-9.568H37.1v-3.343h12.52v3.158l-7.954 9.753h8.116V38z"/>
  <path class="cls-3" d="M43.333 47.5a18.5 18.5 0 1 1 18.5-18.5 18.52 18.52 0 0 1-18.5 18.5zm0-36a17.5 17.5 0 1 0 17.5 17.5 17.52 17.52 0 0 0-17.5-17.5z"/>
</svg>
