<svg id="Layer_1" data-name="Layer 1" xmlns="http://www.w3.org/2000/svg" width="864" height="118" viewBox="0 0 864 118">
  <defs>
    <style>
      .cls-1 {
        fill: #fff;
      }
    </style>
  </defs>
  <title>logo-top</title>
  <polygon class="cls-1" points="150 16 132 32 169 32 178 40 186 16 150 16"/>
  <polygon class="cls-1" points="122 41 72 84 161 84 171 62 161 67 104 67 118 56 129 56 137 62 146 41 122 41"/>
  <polygon class="cls-1" points="189 16 193 25 177 77 169 84 205 84 201 74 207 47 231 84 263 84 258 75 273 22 280 16 246 16 250 25 241 58 214 16 189 16"/>
  <polygon class="cls-1" points="378 16 382 28 368 75 359 84 396 84 390 75 395 50 406 84 422 84 450 50 452 50 444 75 433 84 455 84 468 71 481 24 489 16 456 16 421 61 409 16 378 16"/>
  <polygon class="cls-1" points="580 16 583 27 572 74 563 84 597 84 594 75 598 56 634 56 629 74 619 84 655 84 651 74 664 26 673 16 639 16 642 26 637 44 601 44 605 28 614 16 580 16"/>
  <polygon class="cls-1" points="677 16 680 24 669 72 659 84 690 84 731 48 733 48 723 76 717 84 749 84 745 76 758 26 768 16 741 16 694 58 692 58 701 25 710 16 677 16"/>
  <path class="cls-1" d="M356,16H302a19.41,19.41,0,0,0-18,14c-3,10-8,26-10,33s-5,21,14,21h40c10,0,26-1,30-16s6-25,8-33S365,16,356,16ZM345,42c-2,7-5,16-6,19s-5,7-11,7H301c-4,0-6.53-3.86-5-10,2-8,5-15,6-20s6-6,12-6h26C345,32,347,35,345,42Z"/>
  <path class="cls-1" d="M552,72l-8-47,5-9H508v8L473,74,463,84h26l8-11h32l2,11h29ZM507,59l15-22h3l3,22Z"/>
  <path class="cls-1" d="M864,16H792c-9,0-15,4-20,18-4.57,12.81,0,17,3,19-2,1.19-6.83,3-8,7-1.62,5.56-4.19,11.17-6,16l-8,8h35l-5-9s3-7,4-10,6-6,12-6h26l-6,17-9,8h35l-4-8,14-49ZM829,47H799c-7,0-7.41-4.76-6-9,2-6,6-8,13-8h28Z"/>
  <path class="cls-1" d="M33.33,0,25,27.83,39,20h62L1,97,0,118l782-17-13,15,75-24L49,91l92-76.17L144.67,0Z"/>
</svg>
