<svg id="Layer_1" data-name="Layer 1" xmlns="http://www.w3.org/2000/svg" width="336.99" height="290.8" viewBox="0 0 336.99 290.8">
  <defs>
    <style>
      .cls-1 {
        fill: #fff;
      }
    </style>
  </defs>
  <title>ticket-attr</title>
  <path class="cls-1" d="M259.45,290.8H77.58l0-173.54c-7.81,5.72-27.9,20.36-36.86,26.31l-.93.62-1-.47C23.14,136.49,4.33,120,.25,103.69l-.25-1,.68-.79c23.48-27.19,79.39-85.61,80-86.2l.38-.4L137,0l.82.83a43.24,43.24,0,0,0,31,13A43.27,43.27,0,0,0,199.63,1.07l.82-.82,55.23,15,.38.38c.52.52,52.5,52.88,80.16,86.26l.77.93-.46,1.11c-6.71,16.24-24.33,34.49-38.47,39.86l-1,.38-.87-.6c-11.19-7.8-29.46-21-36.78-26.36Zm-177.87-4H255.45l0-177.42,3.18,2.32c.25.18,24.72,18,39,28,12.57-5.29,28.33-21.68,34.75-36.16-26.48-31.77-74-79.91-78.76-84.67l-52-14.16a47.22,47.22,0,0,1-32.8,13.12,47.19,47.19,0,0,1-33-13.36L83.14,18.86C78.2,24,27.15,77.48,4.4,103.71c4.18,14.44,20.79,29,35,35.9,11.69-7.87,38.67-27.71,38.95-27.91l3.18-2.34Z"/>
  <path class="cls-1" d="M168.83,26.82A35.46,35.46,0,0,1,135.67,3.7L137.55,3a33.46,33.46,0,0,0,31.28,21.81A33.45,33.45,0,0,0,200.11,3L202,3.7A35.46,35.46,0,0,1,168.83,26.82Z"/>
  <path class="cls-1" d="M168.83,35.56A43.05,43.05,0,0,1,127.76,4.88l1.92-.57a41,41,0,0,0,39.15,29.24A41,41,0,0,0,208,4.32l1.92.57A43.05,43.05,0,0,1,168.83,35.56Z"/>
  <path class="cls-1" d="M290.95,137.81,290.1,136c19.25-9,31.42-25.77,38.24-38.27l1.76,1C323.14,111.45,310.7,128.6,290.95,137.81Z"/>
  <path class="cls-1" d="M45.46,137.81C25.71,128.6,13.27,111.45,6.31,98.69l1.76-1C14.88,110.23,27,127,46.3,136Z"/>
  <path class="cls-1" d="M144.78,134.06,175.5,95.45H145.26V86.67h42.2v9.09l-30.87,38.45h31.35v8.93H144.78Z"/>
  <path class="cls-1" d="M167,174.11a59.67,59.67,0,1,1,59.67-59.67A59.73,59.73,0,0,1,167,174.11Zm0-117.33a57.67,57.67,0,1,0,57.67,57.67A57.73,57.73,0,0,0,167,56.78Z"/>
</svg>
