<svg id="Layer_1" data-name="Layer 1" xmlns="http://www.w3.org/2000/svg" width="347.65" height="292" viewBox="0 0 347.65 292">
  <defs>
    <style>
      .cls-1 {
        fill: #1e1e20;
      }

      .cls-2, .cls-3 {
        fill: #fff;
      }

      .cls-3 {
        fill-rule: evenodd;
      }
    </style>
  </defs>
  <title>ticket-abonement</title>
  <g>
    <rect class="cls-1" x="128.96" y="63" width="232.08" height="166" rx="5" ry="5" transform="translate(59.68 362.79) rotate(-80.27)"/>
    <path class="cls-2" d="M303.1,275.63a7,7,0,0,1-1.19-.1h0L148.16,249.15a7,7,0,0,1-5.72-8.08L180,22.19a7,7,0,0,1,8.08-5.72L341.84,42.85a7,7,0,0,1,5.72,8.08L310,269.81A7,7,0,0,1,303.1,275.63Zm-.51-4a3,3,0,0,0,3.46-2.45L343.61,50.26a3,3,0,0,0-2.45-3.46L187.41,20.41a3,3,0,0,0-3.46,2.45L146.39,241.74a3,3,0,0,0,2.45,3.46l153.75,26.38Z"/>
  </g>
  <path class="cls-3" d="M214.6,180.4l-5.89-6.81a.15.15,0,0,1,0-.22h0l6.82-5.52a.15.15,0,0,1,.21,0l5.64,6.52a.15.15,0,0,1,0,.21h0l-1.06,1a.15.15,0,0,1-.22,0h0l-3.84-4.42-1.21,1,3.58,4.12a.15.15,0,0,1,0,.22h0l-1.07,1a.15.15,0,0,1-.22,0h0l-3.63-4.17-1.53,1.26,3.91,4.51a.15.15,0,0,1,0,.22h0l-1.24,1.16a.15.15,0,0,1-.22,0ZM261,159.89l-1.29-2.23a.14.14,0,0,0-.12-.06c-.47.07-.9.18-1.37.25a.21.21,0,0,0-.09.28,15.22,15.22,0,0,0,2.32,2.1.54.54,0,0,0,.47.07c.16-.06.17-.27.09-.42Zm-4.62-11.67c.07.24.14.45.2.64a.23.23,0,0,1-.14.3,15.35,15.35,0,0,1-2.12.49.32.32,0,0,1-.36-.14c-.34-.84-.14-4.79.66-5.92.25-.36.79-.5.86.1,0,.12,0,.27.05.43a28.59,28.59,0,0,0,.86,4.09Zm.82,2.57c.56,1.82,1.14,3.39,1.83,5.13.06.29.12.33-.11.42a11.69,11.69,0,0,1-1.44.23c-.34,0-.57-.23-.75-.46a11.52,11.52,0,0,1-2.25-4.81.24.24,0,0,1,.15-.25l2-.6c.42-.11.41,0,.55.33Zm-4.23-9.41a.13.13,0,0,1,.16,0c.06,0,0,.13,0,.19-3.21,8.74-.52,15.77,6.48,20.31a4.73,4.73,0,0,1,1.2.94,1.43,1.43,0,0,1,.36,1.1,1.18,1.18,0,0,1-.93,1c-1.75.31-3.84-1.13-5-2.18-5.1-4.41-8.11-14.71-2.24-21.3Zm25,11.27,2.75-.92h.07a.12.12,0,0,1,.09.14c-.63,2.65-2.29,6.62-3.68,8.25-.29.26-.55.29-.64-.25-.43-2.16-.84-4.18-1.43-6.19h0a.12.12,0,0,1,.08-.14l2.76-.89Zm-5,1.54-.79.22q-2,.57-4,1.1a.12.12,0,0,0-.09.15h0a45.18,45.18,0,0,1,1.48,4.89c.25,1,0,.87,1,.78s2.64-.21,3.86-.35c.67-.08.8-.18.68-1a41.88,41.88,0,0,0-1.2-5.9.12.12,0,0,0-.14-.09h0l-.78.22Zm-6.41,1.67h0a.13.13,0,0,1,.15.09,31.64,31.64,0,0,1,1.45,4.82c.1.65.22.72-.53.82a16.45,16.45,0,0,1-2,.1c-1-.09-1.68.06-2.53-.83a17.45,17.45,0,0,1-2.12-3.49h0a.13.13,0,0,1,.09-.15l5.47-1.34Zm-5.17-6.74-2.87.89a.12.12,0,0,0-.08.15h0a41.7,41.7,0,0,0,2,5.76.12.12,0,0,0,.15.08h0l2.86-.74,2.87-.75a.12.12,0,0,0,.09-.15c-.77-2.17-1.47-4.15-2-6.08a.12.12,0,0,0-.16-.07h0l-2.86.89Zm7.23-2.3,2.85-.95h0a.12.12,0,0,1,.15.07c.63,1.94,1.34,3.91,2,6.4a.12.12,0,0,1-.08.15l-2.83.82-2.82.79h0a.12.12,0,0,1-.15-.09c-.7-2-1.41-4-2-6.12h0a.12.12,0,0,1,.08-.15l2.86-.93Zm7.15-2.45-2.81,1a.12.12,0,0,0-.07.15h0a56.75,56.75,0,0,1,1.89,6.2l0,.23a.12.12,0,0,0,.14.09h0l2.79-.92,2.7-.92a.12.12,0,0,0,.08-.14,38.41,38.41,0,0,0-1.8-6.65.12.12,0,0,0-.15-.07h0l-2.81,1Zm5.74-2.14.05,0h0a.12.12,0,0,1,.13.11,29.35,29.35,0,0,1,.06,4.5c0,.28,0,.56-.07.82s-.06.53-.1.79h0a.12.12,0,0,1-.24,0c-.09-.4-.18-.79-.26-1.19a34.25,34.25,0,0,0-1.13-4.29h0a.12.12,0,0,1,.07-.16l1.45-.56Zm-3.63-7.81,2.49-1h0a.12.12,0,0,1,.15.08,33.88,33.88,0,0,1,1,5q.06.48.11,1t.09,1h0a.12.12,0,0,1-.08.12l-1.13.42-.9.33h0a.12.12,0,0,1-.15-.08c-.15-.52-.3-1.08-.45-1.66l-.44-1.67c-.15-.57-.3-1.13-.45-1.66s-.31-1.1-.47-1.64a.12.12,0,0,1,.07-.16l.14-.05Zm-7.33,2.85,2.85-1.1,2.84-1.11h0a.12.12,0,0,1,.15.08q.25.82.48,1.65t.45,1.66l.44,1.66.45,1.65h0a.12.12,0,0,1-.07.15l-2.82,1-2.82,1h0a.12.12,0,0,1-.15-.08c-.3-1-.59-2.05-.87-3.08l0-.16,0-.1c-.29-1-.59-2.1-.92-3.13a.12.12,0,0,1,.07-.16Zm-4.34,1.66L263.35,140a.12.12,0,0,0-.07.15h0q.25.77.49,1.54c.16.53.32,1,.46,1.54h0q.44,1.48.89,2.95l0,.14a.12.12,0,0,0,.15.08h0l2.86-1,2.85-1a.12.12,0,0,0,.08-.15h0c-.16-.52-.31-1.06-.47-1.6l-.46-1.61q-.23-.82-.47-1.61l-.48-1.6a.12.12,0,0,0-.15-.08h0l-2.85,1.09ZM259,141.66c-.48.18-.86.29-1.33.49-.7.3-.87.69-.82,1.49a21.77,21.77,0,0,0,1.1,5.06.12.12,0,0,0,.15.08h0l.8-.26.8-.26,4.14-1.34a.12.12,0,0,0,.08-.15h0l-.47-1.53L263,143.7q-.23-.77-.47-1.53c-.17-.52-.33-1-.49-1.52a.12.12,0,0,0-.15-.08h0L259,141.66ZM279.79,131a.77.77,0,0,1-.49,1l-18.36,7.22-5.2,2a.12.12,0,0,1-.16-.13l.1-.6.11-.61a.12.12,0,0,1,.08-.09l23.28-9.28c.41-.11.51.1.65.48Zm-18.95,33.48h0ZM287,138.07l-.55-2.64a.15.15,0,0,1,.12-.18l3-.63-.49-2.36c-.07-.32-.13-.65-.18-1a9.15,9.15,0,0,1-.1-1h0a4.48,4.48,0,0,1,0-.73,3.63,3.63,0,0,1,.16-.7h0a2.49,2.49,0,0,1,.27-.57,2,2,0,0,1,.42-.47h0a2.46,2.46,0,0,1,.51-.31,2.66,2.66,0,0,1,.58-.19,2.28,2.28,0,0,1,.61,0,2.2,2.2,0,0,1,.6.12,2.48,2.48,0,0,1,.55.28,2.68,2.68,0,0,1,.48.41h0a4.89,4.89,0,0,1,.5.64,4.57,4.57,0,0,1,.38.7h0a7.32,7.32,0,0,1,.32.89c.09.3.16.61.22.91l1.06,5.11a.15.15,0,0,1-.12.18l-8.2,1.71a.15.15,0,0,1-.18-.12Zm4.71-7.76a.91.91,0,0,0-.23,0l-.2.06-.19.09h0a.63.63,0,0,0-.16.14,1,1,0,0,0-.12.19h0a1.23,1.23,0,0,0-.09.29,2.24,2.24,0,0,0,0,.32,3,3,0,0,0,0,.5c0,.17.05.35.09.51l.39,1.85,2.16-.45L293,132c0-.15-.07-.29-.11-.43a3.39,3.39,0,0,0-.16-.41h0a2.75,2.75,0,0,0-.16-.29,1.37,1.37,0,0,0-.2-.25h0a1.09,1.09,0,0,0-.18-.15l-.2-.1h0a.83.83,0,0,0-.22,0Zm-4.6,10h0Zm.16-.15,8.37.16h0a.15.15,0,0,1,.15.16l-.12,2.77h0a.15.15,0,0,1-.16.15l-3.67-.15-.21,4.36,3.67.2h0a.15.15,0,0,1,.14.16l-.17,2.8h0a.15.15,0,0,1-.17.14l-8.36-.68h0a.15.15,0,0,1-.14-.16l.17-2.58h0a.15.15,0,0,1,.16-.14l3,.17.21-4.34-3-.12h0a.15.15,0,0,1-.15-.16l.13-2.6a.15.15,0,0,1,.16-.15Zm-2.1,14.6,9.21-1.55h.08a.15.15,0,0,1,.1.19l-.8,2.64h0a.15.15,0,0,1-.13.11l-1.82.25-1.24,4.13,1.36,1.2a.15.15,0,0,1,.06.17l-.77,2.57h0a.16.16,0,0,1,0,.06.15.15,0,0,1-.22,0l-6.82-6.38a.15.15,0,0,1-.05-.17l.94-3.13h0a.15.15,0,0,1,.12-.11Zm4.09,4.62.82-2.74-3.39.47,2.56,2.26ZM283,173.13a.15.15,0,0,0,0,.21l1.52,1a.15.15,0,0,0,.19,0,16.68,16.68,0,0,0,3.14-3.5,8.64,8.64,0,0,0,1.43-3.49h0a3.24,3.24,0,0,0,0-.67,2.3,2.3,0,0,0-.15-.67h0a2.28,2.28,0,0,0-.41-.68,1.85,1.85,0,0,0-1-.6,2.13,2.13,0,0,0-1.2.13,2.66,2.66,0,0,0-.78.48h0l-.34.3-.32.32-.07,0a4.19,4.19,0,0,0,.3-.91,3,3,0,0,0,.05-.87,1.85,1.85,0,0,0-.24-.78,1.46,1.46,0,0,0-.65-.59,1.72,1.72,0,0,0-.87-.14,2.25,2.25,0,0,0-.93.31,8.2,8.2,0,0,0-2.44,2.43,18.15,18.15,0,0,0-2,4,.15.15,0,0,0,.06.18l1.34.93a.15.15,0,0,0,.21,0h0l.06-.09a.15.15,0,0,0,0-.07,9.5,9.5,0,0,1,1-2.69,5.56,5.56,0,0,1,1.49-1.83h0a.87.87,0,0,1,.58-.19h0a.68.68,0,0,1,.27.08h0a.66.66,0,0,1,.21.18.83.83,0,0,1,.15.57h0a1.41,1.41,0,0,1-.08.32,3,3,0,0,1-.13.32h0a4.92,4.92,0,0,1-.24.44c-.09.14-.18.29-.28.43l-1.09,1.57a.15.15,0,0,0,0,.21l1,.71a.15.15,0,0,0,.21,0l1.13-1.64.3-.42.32-.4h0a1.55,1.55,0,0,1,1-.55,1,1,0,0,1,.54.06.78.78,0,0,1,.38.33,1.23,1.23,0,0,1,.09.87h0a5.83,5.83,0,0,1-1.24,2.27,10.65,10.65,0,0,1-2.44,2.06l0,0h0l-.06.08Zm-8-1,8.7,3.42.06,0a.15.15,0,0,1,0,.22l-2,1.85a.15.15,0,0,1-.17,0l-1.69-.72-3.19,2.9.55,1.75h0a.15.15,0,0,1,0,.16l-2,1.8-.06,0a.15.15,0,0,1-.19-.11l-2.56-9a.15.15,0,0,1,0-.15l2.42-2.19a.15.15,0,0,1,.16,0Zm1.13,6.06,2.11-1.92-3.15-1.34,1,3.26Zm-8.39,4.37a1.57,1.57,0,0,0,.18-.27A2.26,2.26,0,0,0,268,182h0a3.33,3.33,0,0,0,.15-.55c0-.19.06-.38.09-.54h0a5.41,5.41,0,0,1,.11-.59,2.33,2.33,0,0,1,.2-.54,1.32,1.32,0,0,1,.33-.38,2.45,2.45,0,0,1,.45-.29l.64-.33a.15.15,0,0,0,.07-.21l-.72-1.41a.15.15,0,0,0-.2-.07h0l-.2.1h0l-.07,0h0l-.32.16-.32.16h0a7.8,7.8,0,0,0-.86.51,3.19,3.19,0,0,0-.76.7h0a3.18,3.18,0,0,0-.39.75,4.82,4.82,0,0,0-.22.82h0l0,.29,0,.29h0l0,.31-.05.31c0,.12-.05.24-.08.37s-.07.25-.11.36h0c0,.09-.06.17-.1.26h0a1.91,1.91,0,0,1-.14.25h0l-.15.18h0l-.18.16h0l-.24.17-.27.16-1.55-3a.15.15,0,0,0-.21-.07l-2.4,1.24a.15.15,0,0,0-.07.21l3.84,7.45a.15.15,0,0,0,.21.07l2.4-1.24a.15.15,0,0,0,.07-.21l-1.53-3,.65-.33,4.6,1.52a.15.15,0,0,0,.13,0l2.88-1.48a.15.15,0,0,0,0-.28h0l-5.75-1.79ZM253.48,184l0,1.38a.15.15,0,0,1-.15.16l-3.48.05.1,6.85a.15.15,0,0,1-.15.16l-2.7,0a.15.15,0,0,1-.16-.15l-.1-6.85-3.48.05a.15.15,0,0,1-.16-.15l0-1.38a.15.15,0,0,1,.15-.16l10-.15a.15.15,0,0,1,.16.15Zm-11.34,0-1.68,8.24h0a.15.15,0,0,1-.18.12l-2.38-.52a.15.15,0,0,1-.12-.18L239,186l-6.3,4.24h0a.15.15,0,0,1-.13,0l-2.35-.74h0a.15.15,0,0,1-.1-.19l2.47-7.89h0a.15.15,0,0,1,.19-.1l2.27.72h0a.15.15,0,0,1,.1.19l-1.42,4.7,5.55-3.62a.15.15,0,0,1,.12,0l2.59.54h0a.15.15,0,0,1,.12.18Zm-11.27-3.35a.15.15,0,0,0-.06-.21h0l-2.12-1.19a.15.15,0,0,0-.21.06h0L227,181.92l-3.8-2.21,1.65-2.54a.15.15,0,0,0,0-.21h0l-2.09-1.4a.15.15,0,0,0-.21,0h0l-4.69,7.07a.15.15,0,0,0,0,.21h0l2.17,1.4a.15.15,0,0,0,.21,0h0l2-3.12,3.86,2.28-1.85,3.19a.15.15,0,0,0,.06.21h0l2.3,1.24a.15.15,0,0,0,.21-.06h0l4-7.29Zm26.54,5.3a1.62,1.62,0,1,1-1.87,1.32,1.62,1.62,0,0,1,1.87-1.32Zm-13-11.85c2.76-7.05-1.1-17.5-9.38-21.38a4.25,4.25,0,0,0-3.1-.42,1.25,1.25,0,0,0-.8,1.18,2.11,2.11,0,0,0,1.22,1.71c8,4.38,12.28,10.08,11.36,18.32-.08.67-.2,1.28-.32,1.95,0,.07,0,.17.05.2s.12,0,.16-.07a7.34,7.34,0,0,0,.81-1.49Zm-16.72-16.4q.27.93.57,1.85a.12.12,0,0,1-.07.15h0c-1,.4-2.91,1.31-4.3,2-1.22.58-2.41,1.15-3.27,1.51a.12.12,0,0,1-.15,0h0c-2.17-4.48.43-7.59,3.17-8.49,1.65-.45,3.3.59,4,3.06Zm3.6.91-1.44.55h0a.14.14,0,0,1-.17-.09c-.25-.8-.52-1.89-.63-2.46-.07-.4,0-.57.64-.42,1.08.25,3,1.18,3.16,1.68a.14.14,0,0,1-.08.18l-1.46.55Zm4.22,1a12.91,12.91,0,0,1,3.26,3.22v0a.12.12,0,0,1-.07.15q-1.66.61-3.34,1.27T232,165.7h0a.12.12,0,0,1-.16-.06c-.39-.86-.74-1.71-1.05-2.58s-.61-1.74-.89-2.63h0a.12.12,0,0,1,.07-.15c2.3-.9,3.45-2.08,5.49-.62Zm.44,5.68q1.69-.68,3.43-1.31a.12.12,0,0,1,.15,0c3.34,6-2.2,15.41-5.06,7.49-.61-1.22-1.17-2.88-1.62-3.94a.88.88,0,0,1,.46-1.18c1-.42,1.67-.71,2.64-1.1Zm-7.41-4.47h0a.12.12,0,0,1,.16.08c.29.9.59,1.78.91,2.65s.67,1.72,1.06,2.58h0a.12.12,0,0,1-.06.16l-4.81,2.36a1,1,0,0,1-1.1-.34,26,26,0,0,1-3.41-4.16h0v0a.12.12,0,0,1,.06-.16l2.07-.91c1.65-.73,3.86-1.72,5.12-2.24Zm-1.56,8.61c1.41-.72,2.73-1.37,4.18-2.07a.12.12,0,0,1,.16.06v0h0l.2.49a16.77,16.77,0,0,1,1.59,4.7c.07.77-.29,1.17-1.4.76a15.8,15.8,0,0,1-4.85-3.1c-.53-.52-.21-.71.1-.87Zm55.9-37.1a32.1,32.1,0,0,0-5-10c-.89-1.21-1.85-2.36-2.82-3.46a30.93,30.93,0,0,0-6.37-5.59,33.89,33.89,0,0,0-8.12-3.8,31.61,31.61,0,0,0-9.81-1.59q-1.05,0-2.15.07t-2.22.23h0a35.75,35.75,0,0,0-5.79,1.2,20.66,20.66,0,0,0-5.73,2.79,22.41,22.41,0,0,0-9.21,13.87c-.08.33-.17.77-.27,1.24-.41,1.9-3,1.17-3-.6a12.29,12.29,0,0,1,.6-3.32c1.35-5.16,3.85-8.5,8.11-11.73.39-.3.78-.58,1.18-.84s.78-.51,1.15-.72h0a31.7,31.7,0,0,1,12.07-3.84q1.23-.15,2.45-.22t2.44-.08h0a54.59,54.59,0,0,1,6.45.51c.5.07,1,.15,1.47.24s.92.18,1.33.29h0a.12.12,0,0,0,.06-.23h0l-.2-.05a51,51,0,0,0-16.82-1.49q-1.51.14-2.94.41t-2.76.65h0a34,34,0,0,0-7,3c-.44.25-.86.51-1.25.77s-.76.53-1.09.81h0a35.71,35.71,0,0,0-2.69,2.41,17.91,17.91,0,0,0-4.65,9.49c-.08.39-.14.77-.2,1.13s0,1.09-.33,1.27-.39,0-.63-.19a3.62,3.62,0,0,1-.73-2.47,15.51,15.51,0,0,1,4.78-10.37,30.49,30.49,0,0,1,3-2.61,26.78,26.78,0,0,1,3.08-2l.57-.31.55-.28h0a.12.12,0,0,0-.08-.23,18.69,18.69,0,0,0-3.48,1.28,24.86,24.86,0,0,0-5.66,3.73c-5,4.39-6.44,11.84-3.1,16.62a11.32,11.32,0,0,0,11.88,4,19.22,19.22,0,0,0,2.83-1.06,1.07,1.07,0,0,1,1,.16,1.87,1.87,0,0,1,.52.54,1.73,1.73,0,0,1,.26.7,1.21,1.21,0,0,1-.44,1.11,8,8,0,0,1-2.91,1.48,16.67,16.67,0,0,1-3.29.59,14.08,14.08,0,0,1-6.09-1.09c-.38-.15-.74-.32-1.08-.5a9.37,9.37,0,0,1-.94-.56h0a14.47,14.47,0,0,1-4.62-5.78c-.2-.43-.38-.87-.54-1.31s-.3-.86-.41-1.28a.12.12,0,0,0-.24,0,16.65,16.65,0,0,0,2.14,6.88,12.87,12.87,0,0,0,.78,1.23,8.76,8.76,0,0,0,.87,1h0a14.67,14.67,0,0,0,8.71,4.2,15.91,15.91,0,0,0,1.91.11,13.68,13.68,0,0,0,4.55-.72,8.93,8.93,0,0,0,2.64-1.42,1,1,0,0,1,1.66.63,1.64,1.64,0,0,1-.43,1.54,6.81,6.81,0,0,1-2.2,1.57,9.91,9.91,0,0,1-2.78.84,16.05,16.05,0,0,1-8.87-1q-.81-.33-1.61-.75t-1.55-.92h0a13.55,13.55,0,0,1-2.67-2.44q-.25-.29-.5-.61t-.45-.61l0,0a.12.12,0,0,0-.22.1,13.29,13.29,0,0,0,5.57,7.05,14.4,14.4,0,0,0,10,2.21,12.07,12.07,0,0,0,4.78-1.64c.38-.22,1.1-.38,1.15.32-.1,2.73-4,3.58-6,3.73a16.36,16.36,0,0,1-7.88-1.41,15.12,15.12,0,0,1-2.89-1.74,15.62,15.62,0,0,1-2.65-2.59h0l-.08-.08c-.14-.08-.21,0-.14.2h0a2.5,2.5,0,0,0,.28.53,15.16,15.16,0,0,0,1.18,1.54c6.43,6.9,16.88,8.41,20.31,1.87,1.82-3.47,1.23-8.14-.27-11.58a19.76,19.76,0,0,0-3.09-4.86,1.7,1.7,0,0,1-.2-1.67c.26-.74,1.05-1.38,1.76-.83a12.73,12.73,0,0,1,3,4q.31.55.59,1.16t.55,1.26h0a22.76,22.76,0,0,1,1.69,6.33,16.35,16.35,0,0,1-.7,6.36h0a.12.12,0,0,0,.22.1,18.46,18.46,0,0,0,2-4.22,14.46,14.46,0,0,0,.61-4.06,18.59,18.59,0,0,0-1.08-6.64q-.24-.67-.55-1.34t-.68-1.34h0a33.3,33.3,0,0,0-3.08-4.26l-.58-.78c-.86-1.22.61-2.26,1.7-1.89s3.13,2.8,4.75,6c.32.63.62,1.3.89,2s.52,1.42.74,2.16h0a20.32,20.32,0,0,1,.79,5.55A25.32,25.32,0,0,1,248,142a.12.12,0,0,0,.22.09,21.36,21.36,0,0,0,2.3-10.67c-.19-4.26-2.51-8.28-5.1-11.6l0-.06a1.45,1.45,0,0,1-.42-1,.49.49,0,0,1,.21-.32,1,1,0,0,1,.49-.15,2.91,2.91,0,0,1,2,.72c3.58,3,5.69,8.77,5.54,13.13a31.88,31.88,0,0,1-1.88,8.37l-.25.78a.12.12,0,0,0,.2.13,15.38,15.38,0,0,0,2.82-4.68c.2-.47.38-1,.56-1.51,3.5-10.78-4.66-26.22-16.54-17.55a19.2,19.2,0,0,0-5.53,7.41,24,24,0,0,0-1.09,3.06c-.44,1.65-3.18,1.8-3.09,0a6.8,6.8,0,0,1,.14-.92c.08-.4.17-.75.23-1a18.91,18.91,0,0,1,.69-2.21q.16-.43.35-.86t.4-.84h0a22.22,22.22,0,0,1,4.56-5.93q.52-.49,1.06-.94t1.09-.85h0a23,23,0,0,1,7.55-3.5c.52-.14,1-.26,1.54-.36s1-.18,1.51-.24h0a28.49,28.49,0,0,1,5.59-.15,35.48,35.48,0,0,1,5.24.79,28.84,28.84,0,0,1,9,3.61,32.84,32.84,0,0,1,6.83,5.7c1,1,1.92,2.12,2.82,3.27a26.35,26.35,0,0,1,2.41,3.61q.61,1.12,1.12,2.31l.2.46.19.46v0h0A35.6,35.6,0,0,1,283.22,143q0,1.28-.09,2.56t-.28,2.58h0a35.87,35.87,0,0,1-40.51,30.37q-1.39-.2-2.77-.5c-7.81-1.73-16-6.89-20.05-14-1.51-2.67-1.72-5.55-.48-7.7a6.85,6.85,0,0,1,2.91-2.56l.59-.32c.18-.11.84-.53.58-.83s-.72-.17-1.17,0a7.55,7.55,0,0,0-2.76,1.43c-3.38,2.69-3.12,6.09-1.68,9.54,2.93,7,11.57,12.7,19,15A37.14,37.14,0,0,0,284,148.35h0a36.81,36.81,0,0,0-.53-13.48q-.29-1.26-.66-2.48Zm14.63-6.77c-.11-.3-.13-.47-.38-.38l-.91.3h0a.12.12,0,0,0-.08.16,52.21,52.21,0,0,1-9.59,50.64h0a52.6,52.6,0,0,1-6,6.07q-.63.53-1.27,1t-1.29,1h0a51.85,51.85,0,0,1-7,4.42l-1.43.72-1.44.67h0a52.22,52.22,0,0,1-55.2-7.8h0a52.57,52.57,0,0,1-6.07-6q-.53-.62-1-1.27t-1-1.29h0a51.86,51.86,0,0,1-4.42-7q-.37-.71-.72-1.43l-.43-.9a.2.2,0,0,0-.29-.13l-.81.32c-.22.09-.16.23-.14.29a66.27,66.27,0,0,0,3.83,6.93q.45.68.93,1.37t1,1.35h0a53.59,53.59,0,0,0,5.75,6.51q.62.59,1.26,1.17t1.31,1.14h0a53.7,53.7,0,0,0,56.6,8h0a53.27,53.27,0,0,0,7.41-4q.68-.45,1.37-.93t1.35-1h0a53.63,53.63,0,0,0,6.51-5.75q.59-.62,1.17-1.26t1.14-1.3h0a53.36,53.36,0,0,0,11.42-23,54,54,0,0,0-1.45-28.5l0-.08ZM188.72,175.88h0Zm15.09-14.73a.15.15,0,0,0-.21-.06h0l-1.74.91a.15.15,0,0,0-.08.17h0a17.65,17.65,0,0,0,1.5,4,13.44,13.44,0,0,0,2.28,3.19h0a3.93,3.93,0,0,0,1.77,1.07,2.44,2.44,0,0,0,1.77-.2h0a1.92,1.92,0,0,0,1.06-1.67,4.85,4.85,0,0,0-.34-1.92l.09,0a5,5,0,0,0,.43.46,3.73,3.73,0,0,0,.56.44,2.73,2.73,0,0,0,1.24.44,1.82,1.82,0,0,0,1.14-.28,2,2,0,0,0,.78-1.94,7.38,7.38,0,0,0-.53-2.07,14,14,0,0,0-1.39-2.61,22.92,22.92,0,0,0-2.15-2.72.15.15,0,0,0-.18,0h0l-1.61.84a.15.15,0,0,0-.06.21h0l.06.12,0,0a12.39,12.39,0,0,1,1.89,1.86,7,7,0,0,1,1.15,2,2.94,2.94,0,0,1,.2.89.74.74,0,0,1-.34.69.9.9,0,0,1-.74.07,1.69,1.69,0,0,1-.7-.54q-.17-.21-.32-.43t-.28-.46l-1.05-1.92a.15.15,0,0,0-.21-.06h0l-1.29.68a.15.15,0,0,0-.06.21h0l1.11,2h0l.2.4c.07.14.13.27.18.4a2.28,2.28,0,0,1,.22,1,1,1,0,0,1-.49.78,1.2,1.2,0,0,1-.42.16,1.08,1.08,0,0,1-.44,0,1.57,1.57,0,0,1-.48-.21,3.06,3.06,0,0,1-.49-.4,7.05,7.05,0,0,1-1.5-2.6,13.13,13.13,0,0,1-.51-2.77.15.15,0,0,0,0-.06h0Z"/>
  <path class="cls-3" d="M197.69,150.29a1.57,1.57,0,0,1,.33,0,1.26,1.26,0,0,1,.31.05,1.36,1.36,0,0,1,.27.12,1.27,1.27,0,0,1,.24.17h0a1.63,1.63,0,0,1,.38.52,2.14,2.14,0,0,1,.12.33,3.7,3.7,0,0,1,.09.4l.23,1.43a.21.21,0,0,1-.17.24l-4,.66a.21.21,0,0,1-.24-.17l-.19-1.19c0-.14,0-.27-.06-.39s0-.22,0-.3h0a1.59,1.59,0,0,1,.08-.5h0a1.11,1.11,0,0,1,.13-.26.88.88,0,0,1,.19-.21h0a1,1,0,0,1,.23-.13h0a1.28,1.28,0,0,1,.26-.07,1.16,1.16,0,0,1,.33,0,1,1,0,0,1,.31.09l.17.11v0h0a1.24,1.24,0,0,1,.22-.37,1.15,1.15,0,0,1,.34-.28,1.4,1.4,0,0,1,.44-.14Zm-1.61,1.61-.08,0-.06,0h0l0,0,0,.05h0a.41.41,0,0,0,0,.1.74.74,0,0,0,0,.13c0,.06,0,.12,0,.19s0,.15,0,.24l.07.43.74-.12-.08-.48c0-.08,0-.15,0-.21a1.39,1.39,0,0,0,0-.15h0l0-.1-.06-.09h0l-.06-.05h0l-.07,0h-.25Zm1.79-.64-.18,0-.11.05-.06.07a.56.56,0,0,0-.06.13.54.54,0,0,0,0,.11.9.9,0,0,0,0,.14q0,.08,0,.19c0,.07,0,.15,0,.24l.1.63,1.08-.18-.08-.5c0-.11,0-.22-.06-.3a2.31,2.31,0,0,0-.06-.23v0a.89.89,0,0,0-.06-.14l-.08-.11h0l-.1-.08h0l-.08,0h0l-.1,0ZM199.51,133l-.1.53a.21.21,0,0,1-.25.17l-3.32-.63-.2,1,.1,0,.29.07.27.07.24.06.52.13.43.13h0l.32.12.28.13h0l.22.14h0l.17.14h0l.13.14.11.16a1.2,1.2,0,0,1,.09.18h0a.94.94,0,0,1,.05.19h0a1,1,0,0,1,0,.19,1.3,1.3,0,0,1,0,.21v.07l0,.08h0l0,.06v0a.21.21,0,0,1-.25.17h0l-.52-.1a.21.21,0,0,1-.17-.25v0h0v0h0v0h0v0h0v0h0a.4.4,0,0,0,0-.06h0a.35.35,0,0,0,0-.06h0v0h0v0h0a.65.65,0,0,0-.16-.15,1.65,1.65,0,0,0-.31-.16h0l-.5-.17-.7-.18h0l-.3-.07-.39-.09h0l-.41-.09-.38-.08a.21.21,0,0,1-.16-.25h0l.47-2.47a.21.21,0,0,1,.25-.17l4,.76a.21.21,0,0,1,.17.25ZM198,136.13v0ZM201.82,125l-.86,2.54a.21.21,0,0,1-.27.13l-3.86-1.31a.21.21,0,0,1-.13-.27l.86-2.54a.21.21,0,0,1,.27-.13l.46.15a.21.21,0,0,1,.13.27l-.62,1.83.66.22.62-1.83a.21.21,0,0,1,.27-.13l.46.15a.21.21,0,0,1,.13.27l-.62,1.83,1,.35.62-1.83a.21.21,0,0,1,.27-.13l.46.15a.21.21,0,0,1,.13.27Zm-1.14-9.89a1.07,1.07,0,0,1,.3.26.77.77,0,0,1,.15.34h0a.93.93,0,0,1,0,.35,1.4,1.4,0,0,1-.38.67.93.93,0,0,1-.31.19.77.77,0,0,1-.37,0,1.07,1.07,0,0,1-.37-.12.17.17,0,0,1-.07-.23h0l.19-.34a.17.17,0,0,1,.23-.07h0l.16.06h.09l.07,0a.39.39,0,0,0,.08-.1.41.41,0,0,0,0-.12.16.16,0,0,0,0-.08.18.18,0,0,0,0-.07l-.14-.1a.17.17,0,0,1-.06-.23h0l.2-.35a.17.17,0,0,1,.23-.06h0Zm5,2.26a.21.21,0,0,0-.08-.29l-3.54-2a.21.21,0,0,0-.29.08l-.28.5h0a.21.21,0,0,0,0,.2l1.45,2.68-2.15-1.23a.21.21,0,0,0-.29.08l-.27.47a.21.21,0,0,0,.08.29l3.54,2a.21.21,0,0,0,.29-.08l.27-.47a.21.21,0,0,0,0-.21l-1.48-2.73,2.19,1.25a.21.21,0,0,0,.29-.08l.27-.47Zm4.25-8.1a1.54,1.54,0,0,1,.23.24,1.36,1.36,0,0,1,.16.28,1.39,1.39,0,0,1,.09.29,1.23,1.23,0,0,1,0,.3v0a1.71,1.71,0,0,1,0,.3,1.62,1.62,0,0,1-.1.3,2,2,0,0,1-.17.3,3.63,3.63,0,0,1-.25.32l-1,1.12a.21.21,0,0,1-.3,0l-3.09-2.66a.21.21,0,0,1,0-.3l1.78-2.07a.21.21,0,0,1,.3,0l.37.31a.21.21,0,0,1,0,.3l-1.29,1.5.53.45.48-.56.27-.29.24-.22a1.27,1.27,0,0,1,.27-.17,1.45,1.45,0,0,1,.31-.1h0a1.22,1.22,0,0,1,.31,0,1.19,1.19,0,0,1,.3.06h0a1.45,1.45,0,0,1,.27.13,1.81,1.81,0,0,1,.26.19Zm-.64.76-.13-.09-.12-.05h-.11l-.11,0h0l-.11,0-.11.08h0l-.16.16-.21.23-.37.43.85.73.36-.42.19-.24.12-.18h0a.74.74,0,0,0,.06-.13.6.6,0,0,0,0-.13h0a.55.55,0,0,0,0-.13.39.39,0,0,0,0-.1h0a.41.41,0,0,0-.06-.1h0l-.11-.12Zm5.43-8.53h0a1.9,1.9,0,0,1,.4.11,2.27,2.27,0,0,1,.39.21h0a2.66,2.66,0,0,1,.36.29,3.61,3.61,0,0,1,.63.8,2.64,2.64,0,0,1,.2.43,2.31,2.31,0,0,1,.11.43,1.84,1.84,0,0,1,0,.41h0a1.85,1.85,0,0,1-.07.41,1.83,1.83,0,0,1-.16.38h0a2.05,2.05,0,0,1-.25.35,2.58,2.58,0,0,1-.33.31,2.51,2.51,0,0,1-.38.25,2.11,2.11,0,0,1-.4.16h0a1.9,1.9,0,0,1-.41.07,1.79,1.79,0,0,1-.41,0h0a1.89,1.89,0,0,1-.4-.11,2.28,2.28,0,0,1-.39-.21h0a2.61,2.61,0,0,1-.37-.29,3.65,3.65,0,0,1-.63-.8,2.68,2.68,0,0,1-.2-.42h0a2.26,2.26,0,0,1-.11-.43,2,2,0,0,1,0-.43,1.73,1.73,0,0,1,.07-.4,1.87,1.87,0,0,1,.17-.38h0a2.18,2.18,0,0,1,.24-.34,2.46,2.46,0,0,1,.32-.31,2.52,2.52,0,0,1,.38-.25,2,2,0,0,1,.4-.16h0a1.91,1.91,0,0,1,.39-.07,1.8,1.8,0,0,1,.4,0Zm.73,1.6a2.31,2.31,0,0,0-.46-.46,1.24,1.24,0,0,0-.46-.21h0a.94.94,0,0,0-.43,0,1.14,1.14,0,0,0-.42.22,1.15,1.15,0,0,0-.31.36.93.93,0,0,0-.11.42h0a1.23,1.23,0,0,0,.1.49,2.64,2.64,0,0,0,.8,1,1.19,1.19,0,0,0,.45.2h0a1,1,0,0,0,.43,0,1.24,1.24,0,0,0,.72-.57,1,1,0,0,0,.11-.42,1.19,1.19,0,0,0-.09-.49,2.32,2.32,0,0,0-.34-.56Zm9.1-3.26-.47.26a.21.21,0,0,1-.29-.08l-1.65-3-.92.52,0,.09.14.27.12.25.11.22.24.48q.11.23.18.41h0q.07.17.12.34a2.82,2.82,0,0,1,.08.3h0a2.23,2.23,0,0,1,0,.25,1.37,1.37,0,0,1,0,.23,1.85,1.85,0,0,1,0,.2,1.66,1.66,0,0,1-.05.19,1.16,1.16,0,0,1-.08.19h0a1,1,0,0,1-.1.15h0l-.14.14-.17.12h0l-.06,0-.07,0h0l-.06,0,0,0a.21.21,0,0,1-.29-.08h0l-.25-.45a.21.21,0,0,1,.08-.29l0,0h0l0,0h0l0,0,0,0h0l0,0,0,0h0l0,0v0h0a.65.65,0,0,0,0-.22,1.66,1.66,0,0,0-.08-.35q-.06-.2-.19-.49t-.31-.65h0l-.14-.28h0l-.18-.34-.19-.38-.18-.34a.21.21,0,0,1,.08-.28h0l2.2-1.24a.21.21,0,0,1,.29.08l2,3.56a.21.21,0,0,1-.08.29Zm6.88-4.4a.84.84,0,0,0-.06-.14l-.07-.1h0l-.07-.06-.1,0h0l-.13,0h-.15l-.21.05-.29.09h0l-.52.17.35,1.07.5-.17.29-.1h0l.2-.09.12-.08.09-.1.07-.11a.39.39,0,0,0,0-.1h0a.42.42,0,0,0,0-.11h0a.88.88,0,0,0,0-.16Zm0,.27h0Zm.9-.57a1.49,1.49,0,0,1,.06.3,1.36,1.36,0,0,1,0,.32,1.38,1.38,0,0,1-.07.29,1.22,1.22,0,0,1-.13.26h0a1.7,1.7,0,0,1-.2.25,1.64,1.64,0,0,1-.24.2h0a2,2,0,0,1-.3.17l-.37.15-1.38.45a.21.21,0,0,1-.27-.13l-1.28-3.87a.21.21,0,0,1,.13-.27l.51-.17a.21.21,0,0,1,.27.13l.43,1.32.68-.22.38-.11.32-.06h0a1.26,1.26,0,0,1,.32,0h0a1.46,1.46,0,0,1,.31.07,1.2,1.2,0,0,1,.28.14,1.19,1.19,0,0,1,.23.2h0a1.43,1.43,0,0,1,.18.25,1.75,1.75,0,0,1,.13.3v0Zm8.51-.32-.53.09a.21.21,0,0,1-.24-.17L239.81,93l-1.59.26L238.5,95a.21.21,0,0,1-.17.24l-.53.09a.21.21,0,0,1-.24-.17l-.66-4a.21.21,0,0,1,.17-.24l.54-.09a.21.21,0,0,1,.24.17l.22,1.37,1.59-.26-.22-1.37a.21.21,0,0,1,.17-.24l.54-.09a.21.21,0,0,1,.24.17l.66,4a.21.21,0,0,1-.17.24ZM248.68,93a.81.81,0,0,0,0-.15.55.55,0,0,0,0-.12l-.05-.09-.08-.07h0l-.11-.06-.14,0-.22,0h-.75v1.12H248l.22,0,.14,0,.12-.06h0l.1-.08.06-.09h0a.44.44,0,0,0,0-.1.85.85,0,0,0,0-.16Zm1,0a1.54,1.54,0,0,1,0,.33,1.37,1.37,0,0,1-.27.56,1.24,1.24,0,0,1-.21.21,1.74,1.74,0,0,1-.27.17,1.64,1.64,0,0,1-.29.12,2,2,0,0,1-.34.06l-.4,0-1.35,0a.21.21,0,0,1-.21-.21l.05-4.08a.21.21,0,0,1,.21-.21h.54a.21.21,0,0,1,.21.21l0,1.39h.62l.39,0,.32,0h0a1.26,1.26,0,0,1,.3.1,1.46,1.46,0,0,1,.28.18h0a1.2,1.2,0,0,1,.2.21,1.18,1.18,0,0,1,.15.27h0a1.45,1.45,0,0,1,.08.29,1.77,1.77,0,0,1,0,.32Zm.93,1.56a.21.21,0,0,0,.22-.2l.19-4.07a.21.21,0,0,0-.2-.22l-.51,0a.21.21,0,0,0-.22.2l-.19,4.07a.21.21,0,0,0,.2.22l.51,0Zm8.62,1.53-.53-.12a.21.21,0,0,1-.16-.25l.56-2.46-2.18,2.21a.21.21,0,0,1-.21.05l-.52-.12a.21.21,0,0,1-.16-.25l.9-4a.21.21,0,0,1,.25-.16l.53.12a.21.21,0,0,1,.16.25l-.55,2.42,2.14-2.17a.21.21,0,0,1,.2-.06h0l.56.13a.21.21,0,0,1,.16.25l-.9,4a.21.21,0,0,1-.25.16Zm11.81,5-.61-.33a.21.21,0,0,1-.11-.15l-.54-2.33-.05,0-.79,1.44a.21.21,0,0,1-.29.08l-.48-.26a.21.21,0,0,1-.08-.29l2-3.57a.21.21,0,0,1,.29-.08l.48.26a.21.21,0,0,1,.08.29l-.77,1.4h0l.08,0h.2l.11,0h0l.11,0,.13-.08h0l.07-.05.08-.07h0l.09-.07h0l.1-.08h0a2.31,2.31,0,0,1,.4-.26,1.24,1.24,0,0,1,.4-.13,1.1,1.1,0,0,1,.42,0,2,2,0,0,1,.45.19l.19.1a.21.21,0,0,1,.08.29l-.23.43a.21.21,0,0,1-.29.08l-.2-.11-.13-.06-.08,0H272l-.06,0-.08,0h0l-.1.07-.12.1h0l-.29.22h0a1.44,1.44,0,0,1-.27.14h0a1.3,1.3,0,0,1-.27.07h0l.57,2.54a.21.21,0,0,1-.31.23Zm6.73,4.76-.43-.33a.21.21,0,0,1,0-.3l2.07-2.67-.84-.65-.07.08-.2.23-.18.21-.16.19-.35.41-.31.32h0l-.25.23-.25.19-.22.14h0l-.21.09h0l-.18,0-.2,0h-.2l-.19,0h0l-.18-.08-.17-.11-.05,0h0l-.06-.05-.05,0h0l0,0a.21.21,0,0,1,0-.3l.32-.42a.21.21,0,0,1,.3,0h0l0,0,0,0h0l0,0,0,0h0l0,0h0l.05,0h.08a.63.63,0,0,0,.22-.08,1.67,1.67,0,0,0,.29-.21h0q.16-.14.37-.35l.48-.54h0l.19-.23.26-.31h0l.26-.32h0l.25-.3a.21.21,0,0,1,.29,0h0l2,1.55a.21.21,0,0,1,0,.3l-2.49,3.22a.21.21,0,0,1-.3,0ZM287,109.4l-3.6,1.1h0l-.24.06h-.23l-.21,0-.2-.06h0l-.15-.08-.14-.1-.11-.1-.1-.1-.08-.1-.09-.12-.1-.13h0l0,0a.21.21,0,0,1,0-.29l.37-.33a.21.21,0,0,1,.3,0l0,0,0,0h0l.08.11.05.07.07.08h0l0,0,.06.06h0l.05,0,0,0h0l0,0,.07,0h.07l.09,0h0l.13,0,1.23-3a.21.21,0,0,1,.36,0l.39.44a.21.21,0,0,1,0,.22h0l-.85,2.06,2.08-.65a.21.21,0,0,1,.23.07l.36.41a.21.21,0,0,1,0,.3l-.08,0Zm2.76,8.68a1.53,1.53,0,0,1-.29.15,1.39,1.39,0,0,1-.61.09,1.22,1.22,0,0,1-.29-.06h0a1.73,1.73,0,0,1-.29-.13,1.62,1.62,0,0,1-.26-.18,2,2,0,0,1-.24-.25,3.6,3.6,0,0,1-.24-.32l-.81-1.24a.21.21,0,0,1,.06-.29l3.41-2.24a.21.21,0,0,1,.29.06L292,116a.21.21,0,0,1-.06.29l-.4.26a.21.21,0,0,1-.29-.06l-1.08-1.65-.58.38.41.62.2.33a3,3,0,0,1,.15.29,1.27,1.27,0,0,1,.09.31,1.47,1.47,0,0,1,0,.33,1.2,1.2,0,0,1-.06.3,1.19,1.19,0,0,1-.14.28,1.46,1.46,0,0,1-.2.24,1.77,1.77,0,0,1-.25.2Zm-.55-.82.12-.09.08-.1a.36.36,0,0,0,0-.1.39.39,0,0,0,0-.11h0a.5.5,0,0,0,0-.12h0a.63.63,0,0,0-.05-.13h0l-.11-.19-.17-.26-.31-.48-.94.62.31.47.18.25.14.17h0l.11.1.12.06h0l.12,0H289l.1,0,.14-.08Zm-94.71,24.56h0a1.9,1.9,0,0,1,.33-.25,2.27,2.27,0,0,1,.4-.19h0a2.66,2.66,0,0,1,.45-.12,3.6,3.6,0,0,1,1,0,2.64,2.64,0,0,1,.46.1,2.3,2.3,0,0,1,.41.17,1.83,1.83,0,0,1,.34.24h0a1.81,1.81,0,0,1,.49.66h0a2.07,2.07,0,0,1,.13.41,2.62,2.62,0,0,1,.05.45,2.51,2.51,0,0,1,0,.45,2.12,2.12,0,0,1-.11.42h0a1.89,1.89,0,0,1-.19.37,1.79,1.79,0,0,1-.26.31h0a1.87,1.87,0,0,1-.33.25,2.27,2.27,0,0,1-.4.19h0a2.63,2.63,0,0,1-.46.12,3.49,3.49,0,0,1-.51,0,3.44,3.44,0,0,1-.5,0,2.67,2.67,0,0,1-.46-.1h0a2.25,2.25,0,0,1-.41-.17,2,2,0,0,1-.35-.24,1.71,1.71,0,0,1-.28-.3,1.88,1.88,0,0,1-.21-.36v0a2.18,2.18,0,0,1-.12-.4,2.45,2.45,0,0,1-.05-.44,2.5,2.5,0,0,1,0-.45,2,2,0,0,1,.11-.42h0a1.9,1.9,0,0,1,.18-.36,1.82,1.82,0,0,1,.26-.31Zm1.72.37a2.32,2.32,0,0,0-.64.1,1.24,1.24,0,0,0-.44.24h0a.93.93,0,0,0-.25.35,1.13,1.13,0,0,0-.08.47,1.15,1.15,0,0,0,.1.47.93.93,0,0,0,.27.34h0a1.23,1.23,0,0,0,.45.21,2.33,2.33,0,0,0,.65.06,2.31,2.31,0,0,0,.65-.1,1.19,1.19,0,0,0,.44-.24h0a1,1,0,0,0,.25-.35,1.24,1.24,0,0,0,0-.92,1,1,0,0,0-.27-.34,1.19,1.19,0,0,0-.45-.22,2.32,2.32,0,0,0-.65-.06Zm63.69-51.47h0a.17.17,0,0,0-.13-.2l-.39-.09h0a.17.17,0,0,0-.2.13.63.63,0,0,1-.06.16l-.05.06-.07,0h-.13l-.12,0-.05-.05h0a.19.19,0,0,1,0-.08.61.61,0,0,1,0-.17h0a.17.17,0,0,0-.13-.2l-.38-.09h0a.17.17,0,0,0-.2.14,1.08,1.08,0,0,0,0,.39.78.78,0,0,0,.15.34.93.93,0,0,0,.27.24,1.41,1.41,0,0,0,.76.17.93.93,0,0,0,.34-.09h0a.77.77,0,0,0,.28-.24A1.07,1.07,0,0,0,259.93,90.72Z"/>
  <g>
    <rect class="cls-1" x="2" y="2" width="206" height="288" rx="5" ry="5"/>
    <path class="cls-2" d="M203,292H7a7,7,0,0,1-7-7V7A7,7,0,0,1,7,0H203a7,7,0,0,1,7,7V285A7,7,0,0,1,203,292ZM7,4A3,3,0,0,0,4,7V285a3,3,0,0,0,3,3H203a3,3,0,0,0,3-3V7a3,3,0,0,0-3-3Z"/>
  </g>
  <path class="cls-3" d="M75,194.46l-8.63-7.09a.19.19,0,0,1,0-.27h0l7.18-8.19a.19.19,0,0,1,.27,0l8.27,6.79a.19.19,0,0,1,0,.26h0L81,187.37a.19.19,0,0,1-.27,0h0l-5.62-4.6-1.27,1.47,5.24,4.29a.19.19,0,0,1,0,.27h0L78,190.24a.19.19,0,0,1-.27,0h0l-5.31-4.34-1.61,1.86,5.73,4.69a.19.19,0,0,1,0,.27h0l-1.28,1.68a.19.19,0,0,1-.27,0Zm52.41-34.82-2-2.46a.18.18,0,0,0-.16,0c-.56.19-1.06.4-1.63.6a.27.27,0,0,0-.05.36,18.89,18.89,0,0,0,3.28,2.08.67.67,0,0,0,.58,0c.18-.11.15-.37,0-.53Zm-8.1-13.31c.14.28.26.53.38.74a.28.28,0,0,1-.11.4,19.05,19.05,0,0,1-2.49,1,.39.39,0,0,1-.47-.09c-.6-1-1.18-5.83-.44-7.38.24-.49.86-.78,1.07-.05,0,.15.1.32.15.52a35.48,35.48,0,0,0,1.91,4.82Zm1.54,3c1.06,2.11,2.11,3.91,3.31,5.89.14.34.21.38,0,.54a14.51,14.51,0,0,1-1.72.59c-.41.13-.74-.16-1-.4a14.29,14.29,0,0,1-3.76-5.41.3.3,0,0,1,.13-.34l2.36-1.16c.49-.23.49-.12.74.29Zm-7.15-10.62a.16.16,0,0,1,.19-.08c.08,0,.08.15.06.23-2.09,11.36,2.67,19.4,12.19,23.49a5.87,5.87,0,0,1,1.66.9,1.78,1.78,0,0,1,.68,1.27,1.47,1.47,0,0,1-.93,1.38c-2.07.75-4.93-.58-6.63-1.61-7.16-4.33-13-16.29-7.21-25.59Zm33,8.53,3.17-1.71.09,0a.15.15,0,0,1,.14.16c-.21,3.37-1.41,8.58-2.77,10.86-.29.38-.61.46-.84-.17-1-2.56-1.91-4.94-3-7.27h0a.15.15,0,0,1,.07-.19q1.58-.81,3.19-1.66Zm-5.79,2.93-.91.43q-2.37,1.12-4.72,2.19a.15.15,0,0,0-.08.2h0a56.07,56.07,0,0,1,2.83,5.67c.5,1.12.17,1.07,1.41.73,1.43-.36,3.19-.81,4.65-1.24.8-.24.95-.39.63-1.37a52,52,0,0,0-2.71-7,.15.15,0,0,0-.19-.08h0l-.91.43Zm-7.49,3.39h0a.16.16,0,0,1,.21.08,39.26,39.26,0,0,1,2.79,5.59c.26.78.42.84-.47,1.11a20.41,20.41,0,0,1-2.42.54c-1.19.09-2,.42-3.27-.49a21.66,21.66,0,0,1-3.33-3.82h0a.16.16,0,0,1,.08-.21l6.41-2.79Zm-7.73-7.16-3.33,1.69a.15.15,0,0,0-.07.2h0A51.75,51.75,0,0,0,126,154.9a.15.15,0,0,0,.2.07h0l3.35-1.5,3.36-1.52a.15.15,0,0,0,.07-.2c-1.4-2.49-2.67-4.76-3.73-7a.15.15,0,0,0-.21-.05h0l-3.32,1.69Zm8.36-4.32,3.29-1.75h0a.15.15,0,0,1,.2.06c1.18,2.23,2.46,4.5,3.74,7.42a.15.15,0,0,1-.07.2l-3.29,1.6-3.29,1.56h0a.15.15,0,0,1-.2-.07c-1.27-2.24-2.56-4.57-3.73-7.07h0a.15.15,0,0,1,.06-.2l3.31-1.74Zm8.23-4.5-3.23,1.81a.15.15,0,0,0-.06.2h0a70.43,70.43,0,0,1,3.61,7.19l.11.27a.15.15,0,0,0,.2.08h0l3.22-1.7,3.11-1.7a.15.15,0,0,0,.07-.19,47.67,47.67,0,0,0-3.59-7.75.15.15,0,0,0-.2-.06h0l-3.23,1.84Zm6.57-3.83.06,0,0,0a.15.15,0,0,1,.18.11,36.43,36.43,0,0,1,1,5.49c0,.35.06.69.09,1s0,.66,0,1h0a.15.15,0,0,1-.29.06l-.57-1.4a42.51,42.51,0,0,0-2.28-5h0a.15.15,0,0,1,.05-.21l1.65-1Zm-6.08-8.79,2.84-1.73h0a.15.15,0,0,1,.21.07,42,42,0,0,1,2.29,5.93q.18.58.34,1.17t.31,1.16h0a.15.15,0,0,1-.07.16c-.41.25-.85.5-1.29.75l-1,.6h0a.15.15,0,0,1-.2-.07c-.29-.61-.59-1.26-.9-1.94l-.89-1.95c-.3-.66-.6-1.31-.89-1.94s-.6-1.28-.92-1.91a.15.15,0,0,1,.05-.21l.16-.09Zm-8.36,5,3.25-1.95,3.24-1.95h0a.15.15,0,0,1,.2.07q.47,1,.93,1.92T143,130l.89,1.94.9,1.93h0a.15.15,0,0,1-.06.19l-3.23,1.87-3.24,1.84h0a.15.15,0,0,1-.2-.07c-.58-1.19-1.15-2.39-1.71-3.58l-.09-.19-.05-.11c-.58-1.22-1.16-2.44-1.78-3.63a.15.15,0,0,1,.05-.21Zm-5,2.94-3.26,1.92a.15.15,0,0,0-.06.2h0q.47.89.92,1.78l.89,1.79h0q.85,1.72,1.7,3.42l.08.16a.15.15,0,0,0,.2.07h0l3.29-1.77,3.28-1.79a.15.15,0,0,0,.06-.2h0l-.91-1.86-.9-1.87q-.46-1-.91-1.87l-.93-1.86a.15.15,0,0,0-.2-.07h0l-3.26,1.93Zm-8.27,4.85c-.55.32-1,.53-1.53.88-.79.51-.92,1-.69,2a27,27,0,0,0,2.41,6,.15.15,0,0,0,.2.06h0l.92-.48.93-.49,4.78-2.51a.15.15,0,0,0,.06-.2h0l-.89-1.77-.88-1.78q-.44-.89-.89-1.77l-.92-1.76a.15.15,0,0,0-.2-.06h0l-3.3,1.93Zm23.24-17.34a1,1,0,0,1-.39,1.29l-20.95,12.68L117.14,138a.15.15,0,0,1-.23-.13q0-.37,0-.76t0-.77a.15.15,0,0,1,.08-.13L143.52,120c.48-.21.65,0,.89.46Zm-16.15,44.92h0Zm26.45-37.84-1.23-3.12a.19.19,0,0,1,.11-.25l3.56-1.4-1.1-2.79c-.15-.38-.3-.77-.42-1.16a11.35,11.35,0,0,1-.33-1.2h0a5.56,5.56,0,0,1-.12-.89,4.51,4.51,0,0,1,0-.89h0a3.09,3.09,0,0,1,.21-.75,2.47,2.47,0,0,1,.42-.67h0a3.05,3.05,0,0,1,.55-.49,3.3,3.3,0,0,1,.67-.35,2.83,2.83,0,0,1,.74-.18,2.74,2.74,0,0,1,.76,0,3.08,3.08,0,0,1,.74.22,3.32,3.32,0,0,1,.67.4h0a6.07,6.07,0,0,1,.74.67,5.67,5.67,0,0,1,.61.77h0a9.08,9.08,0,0,1,.57,1c.17.35.32.71.46,1.06l2.37,6a.19.19,0,0,1-.11.25L155,127.6a.19.19,0,0,1-.25-.11ZM158.84,117a1.13,1.13,0,0,0-.28.07l-.23.11-.21.14h0a.78.78,0,0,0-.17.21,1.19,1.19,0,0,0-.11.26h0a1.52,1.52,0,0,0-.05.38,2.78,2.78,0,0,0,0,.4,3.75,3.75,0,0,0,.14.61c.06.2.14.41.22.6L159,122l2.55-1-.86-2.18c-.07-.17-.14-.34-.23-.51a4.21,4.21,0,0,0-.28-.47h0a3.41,3.41,0,0,0-.26-.33,1.7,1.7,0,0,0-.29-.26h0a1.35,1.35,0,0,0-.26-.14,1.19,1.19,0,0,0-.27-.08h0a1,1,0,0,0-.28,0Zm-3.52,13.2h0Zm.16-.22,10.27-1.56h0a.19.19,0,0,1,.21.16l.44,3.41h0a.19.19,0,0,1-.16.21l-4.52.59.66,5.38,4.53-.52h0a.19.19,0,0,1,.21.17l.38,3.46v0a.19.19,0,0,1-.17.21l-10.37.92h0a.19.19,0,0,1-.21-.17l-.33-3.2h0a.19.19,0,0,1,.17-.21l3.72-.43-.66-5.35-3.71.49h0a.19.19,0,0,1-.21-.17l-.39-3.2a.19.19,0,0,1,.16-.22Zm.49,18.3,10.94-3.83h.1a.19.19,0,0,1,.17.21l-.42,3.4h0a.19.19,0,0,1-.13.16l-2.17.69-.65,5.31,1.92,1.19a.19.19,0,0,1,.1.19l-.41,3.31h0a.19.19,0,0,1,0,.08.19.19,0,0,1-.26.05l-9.68-6.37a.19.19,0,0,1-.1-.19l.5-4h0a.19.19,0,0,1,.13-.16Zm6,4.79.43-3.52-4,1.29,3.61,2.23Zm-4.76,18.13a.19.19,0,0,0,.09.25l2.08,1a.19.19,0,0,0,.23-.05,20.71,20.71,0,0,0,3.1-4.94,10.72,10.72,0,0,0,1-4.57h0a4,4,0,0,0-.11-.83,2.86,2.86,0,0,0-.32-.79h0a2.82,2.82,0,0,0-.64-.74,2.29,2.29,0,0,0-1.39-.51,2.64,2.64,0,0,0-1.44.4,3.3,3.3,0,0,0-.85.75h0c-.12.14-.24.28-.35.44s-.22.31-.32.46l-.09,0a5.2,5.2,0,0,0,.18-1.18,3.73,3.73,0,0,0-.12-1.07,2.29,2.29,0,0,0-.45-.9,1.81,1.81,0,0,0-.93-.59,2.13,2.13,0,0,0-1.1,0,2.79,2.79,0,0,0-1.08.57,10.17,10.17,0,0,0-2.47,3.49,22.52,22.52,0,0,0-1.64,5.32.19.19,0,0,0,.11.21l1.83.86a.19.19,0,0,0,.25-.09h0l.05-.12a.19.19,0,0,0,0-.09,11.8,11.8,0,0,1,.6-3.49,6.9,6.9,0,0,1,1.44-2.55h0a1.08,1.08,0,0,1,.67-.35h0a.84.84,0,0,1,.35,0h0a.82.82,0,0,1,.29.18,1,1,0,0,1,.3.66h0a1.76,1.76,0,0,1,0,.41,3.69,3.69,0,0,1-.1.42h0a6.11,6.11,0,0,1-.2.59c-.08.2-.16.39-.25.58l-1,2.15a.19.19,0,0,0,.09.25l1.4.65a.19.19,0,0,0,.25-.09l1-2.24c.09-.19.18-.38.28-.57s.2-.38.31-.55h0a1.92,1.92,0,0,1,1.06-.87,1.3,1.3,0,0,1,.68,0,1,1,0,0,1,.53.32,1.53,1.53,0,0,1,.3,1h0a7.23,7.23,0,0,1-1,3,13.21,13.21,0,0,1-2.56,3l0,.06h0l-.05.11Zm-10,.46L158.5,174l.08,0a.19.19,0,0,1,0,.27l-2.1,2.69a.19.19,0,0,1-.2.08l-2.21-.53-3.3,4.21,1,2h0a.19.19,0,0,1,0,.2l-2,2.62-.07.06a.19.19,0,0,1-.25-.09l-5-10.46a.19.19,0,0,1,0-.2l2.49-3.19a.19.19,0,0,1,.19-.07Zm2.66,7.18,2.18-2.79-4.13-1,1.95,3.77ZM140.45,186a2,2,0,0,0,.16-.37,2.8,2.8,0,0,0,.1-.38h0a4.13,4.13,0,0,0,.06-.7c0-.24,0-.47,0-.68h0a6.72,6.72,0,0,1,0-.74,2.9,2.9,0,0,1,.13-.7,1.64,1.64,0,0,1,.32-.54,3,3,0,0,1,.49-.45l.71-.53a.19.19,0,0,0,0-.27L141.28,179a.19.19,0,0,0-.26,0h0l-.23.16h0l-.08.06h0l-.36.26-.35.26h0a9.68,9.68,0,0,0-.95.8,4,4,0,0,0-.78,1h0a3.94,3.94,0,0,0-.32,1,6,6,0,0,0-.09,1h0c0,.12,0,.24,0,.36s0,.25,0,.37h0c0,.13,0,.26,0,.38s0,.26,0,.38,0,.31,0,.48,0,.31-.06.47h0c0,.11,0,.23-.07.34h0a2.37,2.37,0,0,1-.12.33h0a1.81,1.81,0,0,1-.14.25h0a1.77,1.77,0,0,1-.18.23h0l-.26.25-.29.25-2.53-3.36a.19.19,0,0,0-.27,0l-2.68,2a.19.19,0,0,0,0,.27l6.25,8.31a.19.19,0,0,0,.27,0l2.68-2a.19.19,0,0,0,0-.27l-2.5-3.32.72-.54,5.95.9a.19.19,0,0,0,.15,0l3.21-2.41a.19.19,0,0,0-.09-.34h0l-7.4-1Zm-17.1,4.74.31,1.68a.19.19,0,0,1-.15.22l-4.25.8,1.57,8.36a.19.19,0,0,1-.15.22l-3.29.62a.19.19,0,0,1-.22-.15l-1.57-8.36-4.25.8a.19.19,0,0,1-.22-.15l-.31-1.68a.19.19,0,0,1,.15-.22l12.16-2.28a.19.19,0,0,1,.22.15Zm-13.86,2.42-.32,10.44h0a.19.19,0,0,1-.2.18l-3-.13a.19.19,0,0,1-.18-.2l.33-7.22-6.82,6.51h0a.19.19,0,0,1-.16.05l-3-.41h0a.19.19,0,0,1-.16-.21L97.29,192h0a.19.19,0,0,1,.21-.16l2.92.41h0a.19.19,0,0,1,.17.21l-.76,6,6-5.59a.19.19,0,0,1,.14-.06l3.28.12h0a.19.19,0,0,1,.18.2ZM95,191.38a.19.19,0,0,0-.12-.24h0l-2.84-1a.19.19,0,0,0-.24.12h0l-1.28,3.46L85.4,191.8l1.49-3.45a.19.19,0,0,0-.1-.25h0l-2.85-1.28a.19.19,0,0,0-.25.1h0l-4.25,9.63a.19.19,0,0,0,.1.25h0l2.95,1.26a.19.19,0,0,0,.25-.1h0l1.83-4.25,5.2,2L88.18,200a.19.19,0,0,0,.11.24h0l3.08,1a.19.19,0,0,0,.24-.12h0L95,191.38Zm33.57.91a2,2,0,1,1-2,2,2,2,0,0,1,2-2Zm-18.43-11.76c1.9-9.2-5-21.17-16-24.18a5.27,5.27,0,0,0-3.87.14,1.55,1.55,0,0,0-.73,1.61,2.62,2.62,0,0,0,1.85,1.83c10.71,3.68,17.13,9.75,17.73,20,0,.84,0,1.61,0,2.45,0,.09,0,.21.11.23s.14,0,.18-.11a9.1,9.1,0,0,0,.68-2ZM86.24,164q.53,1.08,1.08,2.14a.15.15,0,0,1-.05.2h0c-1.13.69-3.28,2.21-4.84,3.31-1.37,1-2.71,1.91-3.69,2.53a.15.15,0,0,1-.19,0h0c-3.6-5-1.07-9.37,2.1-11,1.93-.9,4.16,0,5.59,2.89Zm4.6.36-1.65,1h0a.17.17,0,0,1-.23-.07c-.48-.92-1-2.21-1.28-2.87-.17-.47-.13-.7.7-.65,1.37.08,3.9.81,4.22,1.39a.17.17,0,0,1-.06.24l-1.67,1Zm5.38.37a16,16,0,0,1,4.66,3.26l0,0a.15.15,0,0,1-.06.2q-1.91,1.09-3.82,2.26t-3.77,2.36h0a.15.15,0,0,1-.2,0c-.66-1-1.26-1.94-1.83-2.93s-1.11-2-1.64-3h0a.15.15,0,0,1,.06-.2c2.63-1.58,3.79-3.27,6.58-1.9ZM98,171.57q1.93-1.19,3.92-2.33a.15.15,0,0,1,.19,0c5.35,6.69.55,19.31-4.62,10.22-1-1.36-2-3.27-2.8-4.48a1.09,1.09,0,0,1,.31-1.54c1.1-.71,1.9-1.21,3-1.9Zm-10-3.91h0a.15.15,0,0,1,.2.06c.54,1,1.09,2,1.67,3s1.18,2,1.84,2.93h0a.15.15,0,0,1,0,.21l-5.39,3.9a1.21,1.21,0,0,1-1.41-.18,32.32,32.32,0,0,1-5-4.37h0v0a.15.15,0,0,1,0-.21l2.34-1.55c1.86-1.23,4.36-2.91,5.79-3.81Zm-.11,10.86c1.58-1.17,3.05-2.26,4.68-3.41a.15.15,0,0,1,.21,0v0h0l.35.56A20.81,20.81,0,0,1,96,181.15c.24.93-.11,1.5-1.55,1.22a19.61,19.61,0,0,1-6.58-2.77c-.76-.52-.41-.82-.06-1.08Zm60.59-57.11a39.83,39.83,0,0,0-8.17-11.15c-1.35-1.29-2.76-2.5-4.17-3.64a38.39,38.39,0,0,0-9-5.5,42.06,42.06,0,0,0-10.72-2.95,39.23,39.23,0,0,0-12.34.12q-1.29.22-2.62.54t-2.67.75h0A44.37,44.37,0,0,0,92,102.26a25.64,25.64,0,0,0-6.43,4.61c-5.4,5.3-7.84,11.51-8.35,18.9,0,.42,0,1-.07,1.57-.1,2.41-3.41,2.06-3.74-.11a15.25,15.25,0,0,1,0-4.19c.56-6.59,2.92-11.2,7.46-16,.42-.44.84-.87,1.26-1.28s.85-.78,1.26-1.13h0a39.34,39.34,0,0,1,14-7.23q1.48-.44,3-.79t3-.61h0a67.74,67.74,0,0,1,8-.73c.63,0,1.25,0,1.85,0s1.16,0,1.69.07h0a.15.15,0,0,0,0-.3h0l-.26,0a63.3,63.3,0,0,0-20.89,1.7q-1.82.49-3.51,1.12t-3.24,1.37h0a42.13,42.13,0,0,0-8,5.1c-.48.4-.94.8-1.36,1.21s-.82.81-1.17,1.22h0a44.31,44.31,0,0,0-2.79,3.51c-2.63,3.76-3.57,8-3.7,12.58,0,.49,0,1,0,1.42s.19,1.34-.14,1.62c-.18.15-.47.12-.81-.1a4.5,4.5,0,0,1-1.41-2.86,19.25,19.25,0,0,1,3.67-13.69,37.84,37.84,0,0,1,3.15-3.82,33.24,33.24,0,0,1,3.35-3.12l.63-.5.61-.46h0a.15.15,0,0,0-.15-.26,23.2,23.2,0,0,0-4,2.29A30.85,30.85,0,0,0,68.71,109c-5.16,6.41-5.39,15.84-.3,21a14,14,0,0,0,15.37,2.44A23.85,23.85,0,0,0,87,130.57a1.32,1.32,0,0,1,1.3,0,2.32,2.32,0,0,1,.75.56,2.14,2.14,0,0,1,.46.8,1.5,1.5,0,0,1-.3,1.44A9.92,9.92,0,0,1,86,135.78a20.69,20.69,0,0,1-3.9,1.41,17.48,17.48,0,0,1-7.67-.06c-.49-.11-1-.24-1.43-.39a11.62,11.62,0,0,1-1.27-.49h0a18,18,0,0,1-6.87-6.1c-.34-.49-.65-1-.94-1.48s-.54-1-.77-1.48a.15.15,0,0,0-.29.08,20.67,20.67,0,0,0,4.06,8,16,16,0,0,0,1.22,1.33,10.87,10.87,0,0,0,1.28,1.08h0a18.2,18.2,0,0,0,11.54,3.31,19.74,19.74,0,0,0,2.36-.26,17,17,0,0,0,5.42-1.84,11.09,11.09,0,0,0,2.93-2.29,1.29,1.29,0,0,1,2.16.42,2,2,0,0,1-.2,2,8.45,8.45,0,0,1-2.36,2.38A12.3,12.3,0,0,1,88,142.93a19.92,19.92,0,0,1-11.05.66q-1.07-.23-2.12-.58t-2.09-.8h0a16.81,16.81,0,0,1-3.78-2.43q-.37-.31-.74-.64t-.68-.65l0,0a.15.15,0,0,0-.24.17,16.49,16.49,0,0,0,8.29,7.46,17.87,17.87,0,0,0,12.64.61,15,15,0,0,0,5.51-3c.41-.35,1.26-.7,1.47.15.45,3.37-4.19,5.23-6.58,5.82a20.3,20.3,0,0,1-9.93-.08,18.77,18.77,0,0,1-3.9-1.52A19.39,19.39,0,0,1,71,145.46h0a.41.41,0,0,0-.12-.08c-.19-.07-.26,0-.13.27h0a3.1,3.1,0,0,0,.46.59,18.81,18.81,0,0,0,1.76,1.63c9.32,7.09,22.41,6.75,25.23-2,1.5-4.63-.21-10.21-2.76-14.11a24.53,24.53,0,0,0-4.79-5.3,2.11,2.11,0,0,1-.6-2c.16-1,1-1.91,2-1.39a15.8,15.8,0,0,1,4.52,4.22q.49.61,1,1.29t.93,1.42h0a28.24,28.24,0,0,1,3.39,7.39,20.28,20.28,0,0,1,.48,7.93h0a.15.15,0,0,0,.29.07,22.91,22.91,0,0,0,1.53-5.58,17.94,17.94,0,0,0-.1-5.1,23.07,23.07,0,0,0-2.72-7.89q-.44-.77-1-1.53t-1.12-1.49h0a41.33,41.33,0,0,0-4.66-4.57l-.88-.83c-1.3-1.31.28-2.9,1.68-2.67s4.41,2.77,7.07,6.39c.52.71,1,1.46,1.51,2.25s.94,1.62,1.35,2.48h0a25.21,25.21,0,0,1,2.14,6.63,31.42,31.42,0,0,1,.39,6.95.15.15,0,0,0,.29.06A26.51,26.51,0,0,0,108.7,127c-1.13-5.17-4.81-9.6-8.67-13.12l-.07-.07a1.8,1.8,0,0,1-.73-1.18.6.6,0,0,1,.19-.44,1.28,1.28,0,0,1,.56-.29,3.62,3.62,0,0,1,2.6.46c5,2.92,8.8,9.54,9.53,14.89.46,3.39,0,6.86-.54,10.63l-.14,1a.15.15,0,0,0,.27.12,19.09,19.09,0,0,0,2.47-6.32c.14-.62.27-1.27.37-2,2-13.92-11.2-31.09-23.91-18A23.83,23.83,0,0,0,85.42,123a29.77,29.77,0,0,0-.69,4c-.19,2.11-3.52,2.87-3.79.6a8.43,8.43,0,0,1,0-1.15c0-.5,0-1,.07-1.27a23.46,23.46,0,0,1,.38-2.85q.11-.56.25-1.12t.32-1.11h0a27.58,27.58,0,0,1,4.33-8.21q.54-.71,1.1-1.37t1.16-1.26h0a28.59,28.59,0,0,1,8.5-5.86c.6-.28,1.21-.53,1.81-.76s1.2-.43,1.8-.62h0a35.35,35.35,0,0,1,6.81-1.36,44,44,0,0,1,6.58-.13A35.79,35.79,0,0,1,125.79,103a40.75,40.75,0,0,1,9.54,5.54c1.38,1.05,2.79,2.19,4.13,3.41a32.7,32.7,0,0,1,3.7,3.9q1,1.25,1.86,2.58l.34.52.33.52v0h0a44.18,44.18,0,0,1,5.41,14.84q.27,1.56.42,3.15t.2,3.21h0a44.52,44.52,0,0,1-43.18,45.65q-1.75.05-3.49,0c-9.92-.48-21-5.06-27.48-13-2.4-2.95-3.27-6.43-2.21-9.32a8.51,8.51,0,0,1,3-3.74l.66-.52c.2-.18.91-.83.53-1.13s-.92-.05-1.44.2a9.37,9.37,0,0,0-3.08,2.32c-3.57,4-2.54,8.1-.05,12,5,7.92,16.81,13.11,26.43,14.32a46.09,46.09,0,0,0,51.76-46.84h0a45.68,45.68,0,0,0-3.47-16.37q-.61-1.48-1.32-2.9Zm16.48-11.35c-.19-.34-.26-.54-.55-.38l-1,.56h0a.15.15,0,0,0-.06.21,64.79,64.79,0,0,1-1.1,64h0A65.27,65.27,0,0,1,156,183.1q-.65.78-1.33,1.54t-1.37,1.49h0a64.35,64.35,0,0,1-7.64,6.87q-.79.6-1.59,1.18t-1.62,1.13h0a64.81,64.81,0,0,1-69.15,2h0a65.23,65.23,0,0,1-8.69-6.12q-.78-.65-1.54-1.33t-1.49-1.37h0a64.36,64.36,0,0,1-6.87-7.64q-.6-.79-1.18-1.59l-.71-1a.24.24,0,0,0-.38-.1l-.93.56c-.25.15-.15.32-.11.38a82.24,82.24,0,0,0,6.13,7.67q.69.74,1.43,1.49t1.48,1.45h0a66.51,66.51,0,0,0,8.4,6.76q.88.6,1.79,1.17t1.84,1.12h0a66.64,66.64,0,0,0,70.9-2.09h0a66.11,66.11,0,0,0,8.21-6.51q.74-.69,1.49-1.43t1.45-1.48h0a66.56,66.56,0,0,0,6.75-8.4q.6-.88,1.17-1.79t1.12-1.83h0a66.22,66.22,0,0,0,9.14-30.53A67,67,0,0,0,165,110.15l0-.09ZM42.43,194.36h0Zm15.36-21.18a.19.19,0,0,0-.27,0h0l-1.94,1.48a.19.19,0,0,0-.06.23h0a21.9,21.9,0,0,0,2.69,4.61,16.68,16.68,0,0,0,3.46,3.42h0a4.87,4.87,0,0,0,2.39.93,3,3,0,0,0,2.12-.61h0a2.38,2.38,0,0,0,.95-2.26,6,6,0,0,0-.82-2.28l.1-.07a6.21,6.21,0,0,0,.62.47,4.63,4.63,0,0,0,.77.42,3.38,3.38,0,0,0,1.61.28,2.26,2.26,0,0,0,1.33-.58,2.46,2.46,0,0,0,.55-2.54,9.16,9.16,0,0,0-1.08-2.42,17.42,17.42,0,0,0-2.24-2.9,28.45,28.45,0,0,0-3.2-2.88.19.19,0,0,0-.23,0h0l-1.79,1.37a.19.19,0,0,0,0,.27h0l.1.13.06,0a15.37,15.37,0,0,1,2.7,1.88,8.67,8.67,0,0,1,1.83,2.22,3.65,3.65,0,0,1,.43,1.05.92.92,0,0,1-.27.91,1.12,1.12,0,0,1-.89.24,2.1,2.1,0,0,1-1-.51q-.25-.22-.48-.46t-.44-.5L63.12,173a.19.19,0,0,0-.27,0h0L61.41,174a.19.19,0,0,0,0,.27h0l1.78,2.25h0l.34.45.31.45a2.82,2.82,0,0,1,.48,1.19,1.2,1.2,0,0,1-.44,1.06,1.49,1.49,0,0,1-.49.29,1.34,1.34,0,0,1-.54.08,2,2,0,0,1-.63-.16,3.8,3.8,0,0,1-.69-.39,8.75,8.75,0,0,1-2.38-2.87,16.29,16.29,0,0,1-1.2-3.28.19.19,0,0,0,0-.07h0Z"/>
  <path class="cls-3" d="M48,161.17a1.94,1.94,0,0,1,.4-.09,1.56,1.56,0,0,1,.39,0,1.68,1.68,0,0,1,.36.09,1.58,1.58,0,0,1,.33.16h0a2,2,0,0,1,.57.55,2.65,2.65,0,0,1,.21.38,4.6,4.6,0,0,1,.19.47l.58,1.7a.26.26,0,0,1-.16.33l-4.78,1.65a.26.26,0,0,1-.33-.16l-.49-1.42c-.06-.17-.11-.32-.15-.47s-.07-.26-.09-.36h0a2,2,0,0,1,0-.63h0a1.38,1.38,0,0,1,.1-.35,1.09,1.09,0,0,1,.19-.29h0a1.26,1.26,0,0,1,.26-.21h0a1.59,1.59,0,0,1,.31-.14,1.44,1.44,0,0,1,.4-.08,1.19,1.19,0,0,1,.4.05l.23.09v-.05h0a1.54,1.54,0,0,1,.19-.5,1.42,1.42,0,0,1,.36-.41,1.74,1.74,0,0,1,.51-.27Zm-1.63,2.31-.09,0-.06,0h0l0,0a.26.26,0,0,0,0,.07h0a.51.51,0,0,0,0,.13.92.92,0,0,0,0,.17l.06.23.09.28.18.51.89-.3-.2-.57-.09-.25-.08-.17h0L47,163.6l-.1-.09h0l-.09-.05h0l-.09,0h-.13l-.16,0Zm2.06-1.16-.21.09-.12.09a.34.34,0,0,0-.06.1.69.69,0,0,0,0,.17.67.67,0,0,0,0,.14,1.12,1.12,0,0,0,0,.18q0,.1.06.23l.09.28.26.75,1.28-.44-.2-.59c0-.14-.09-.26-.14-.36a2.87,2.87,0,0,0-.13-.27v0a1.1,1.1,0,0,0-.11-.16l-.12-.11h0l-.14-.08h0l-.11,0h-.13l-.19,0Zm-1.82-22.66v.67a.26.26,0,0,1-.27.26l-4.2-.07,0,1.31h.13l.37,0,.35,0,.31,0,.67,0,.55.06h0l.42.08.37.1h0l.3.12h0l.24.14h0l.18.15.17.18a1.49,1.49,0,0,1,.15.2h0a1.16,1.16,0,0,1,.11.22v0a1.22,1.22,0,0,1,.05.22,1.62,1.62,0,0,1,0,.26s0,.06,0,.08v.1h0V144a.26.26,0,0,1-.26.26h-.65a.26.26,0,0,1-.26-.27v-.06h0v0h0v0h0v-.05h0v0h0a.49.49,0,0,0,0-.07h0v-.07h0l0,0h0l0,0,0,0a.81.81,0,0,0-.23-.15,2.05,2.05,0,0,0-.42-.14h0a6.49,6.49,0,0,0-.64-.1l-.89-.08h0l-.38,0-.49,0h0l-.52,0-.48,0a.26.26,0,0,1-.25-.27h0l.05-3.12a.26.26,0,0,1,.27-.26l5.06.09a.26.26,0,0,1,.26.27ZM45.4,143.8v0Zm2.39-14.42-.52,3.29a.26.26,0,0,1-.3.22l-5-.79a.26.26,0,0,1-.22-.3l.52-3.29a.26.26,0,0,1,.3-.22l.59.09a.26.26,0,0,1,.22.3L43,131.05l.85.13.37-2.37a.26.26,0,0,1,.3-.22l.59.09a.26.26,0,0,1,.22.3L45,131.36l1.34.21.38-2.37A.26.26,0,0,1,47,129l.59.09a.26.26,0,0,1,.22.3Zm-3.47-11.86a1.33,1.33,0,0,1,.42.25,1,1,0,0,1,.25.38h0a1.16,1.16,0,0,1,.06.43,1.74,1.74,0,0,1-.33.9,1.16,1.16,0,0,1-.34.3,1,1,0,0,1-.44.13,1.33,1.33,0,0,1-.48-.07.21.21,0,0,1-.14-.27h0l.17-.46a.21.21,0,0,1,.27-.13h0l.2,0,.11,0h0l.07-.06a.48.48,0,0,0,.08-.14.51.51,0,0,0,0-.16.2.2,0,0,0,0-.09.23.23,0,0,0-.07-.08.78.78,0,0,0-.19-.1.21.21,0,0,1-.12-.27h0l.17-.47a.21.21,0,0,1,.27-.13h0Zm6.57,1.73a.26.26,0,0,0-.16-.34L46,117.18a.26.26,0,0,0-.34.16l-.24.67h0a.26.26,0,0,0,0,.25l2.34,3-2.89-1.05a.26.26,0,0,0-.34.16l-.23.63a.26.26,0,0,0,.16.34L49.23,123a.26.26,0,0,0,.34-.16l.23-.63a.26.26,0,0,0,0-.26l-2.38-3L50.32,120a.26.26,0,0,0,.34-.16l.23-.63Zm3.5-10.8a1.92,1.92,0,0,1,.33.25,1.69,1.69,0,0,1,.25.3,1.73,1.73,0,0,1,.17.33,1.53,1.53,0,0,1,.09.36v0a2.12,2.12,0,0,1,0,.38,2,2,0,0,1-.06.39,2.5,2.5,0,0,1-.15.4,4.51,4.51,0,0,1-.23.44l-.95,1.57a.26.26,0,0,1-.36.09l-4.34-2.6a.26.26,0,0,1-.09-.36l1.74-2.9a.26.26,0,0,1,.36-.09l.51.31a.26.26,0,0,1,.09.36l-1.26,2.1.74.44.47-.79q.14-.23.26-.41a3.77,3.77,0,0,1,.25-.32,1.57,1.57,0,0,1,.3-.26,1.8,1.8,0,0,1,.36-.19h0a1.51,1.51,0,0,1,.37-.09,1.47,1.47,0,0,1,.38,0h0a1.8,1.8,0,0,1,.36.1,2.24,2.24,0,0,1,.36.18Zm-.62,1.06-.17-.08-.15,0h-.13l-.13,0h0l-.12.08-.12.13h0l-.16.23-.2.32-.37.61,1.2.72.36-.59.19-.33a2.37,2.37,0,0,0,.11-.24h0a.92.92,0,0,0,0-.17.75.75,0,0,0,0-.17h0a.69.69,0,0,0,0-.16.48.48,0,0,0-.05-.12h0l-.09-.11h0l-.16-.12Zm4.85-11.57h0a2.36,2.36,0,0,1,.51.05,2.82,2.82,0,0,1,.52.17h0a3.3,3.3,0,0,1,.5.28,4.47,4.47,0,0,1,.94.85,3.28,3.28,0,0,1,.33.49,2.87,2.87,0,0,1,.22.5,2.28,2.28,0,0,1,.11.5h0a2.29,2.29,0,0,1,0,.51,2.27,2.27,0,0,1-.12.5h0a2.55,2.55,0,0,1-.23.48,3.2,3.2,0,0,1-.34.45,3.11,3.11,0,0,1-.41.38,2.61,2.61,0,0,1-.45.28h0a2.36,2.36,0,0,1-.49.17,2.23,2.23,0,0,1-.51.06h0a2.34,2.34,0,0,1-.51-.05,2.83,2.83,0,0,1-.52-.17h0a3.24,3.24,0,0,1-.51-.28,4.52,4.52,0,0,1-.93-.84,3.32,3.32,0,0,1-.33-.48h0a2.81,2.81,0,0,1-.23-.5,2.47,2.47,0,0,1-.11-.52,2.15,2.15,0,0,1,0-.51,2.32,2.32,0,0,1,.13-.5v0a2.71,2.71,0,0,1,.23-.46,3.05,3.05,0,0,1,.33-.44,3.13,3.13,0,0,1,.41-.39,2.51,2.51,0,0,1,.45-.28h0a2.37,2.37,0,0,1,.47-.17,2.23,2.23,0,0,1,.5-.06Zm1.23,1.81a2.87,2.87,0,0,0-.66-.46,1.54,1.54,0,0,0-.6-.16h0a1.16,1.16,0,0,0-.53.1,1.41,1.41,0,0,0-.47.36,1.43,1.43,0,0,0-.31.51,1.15,1.15,0,0,0,0,.54h0a1.53,1.53,0,0,0,.22.58,3.27,3.27,0,0,0,1.19,1.07,1.48,1.48,0,0,0,.6.16h0a1.18,1.18,0,0,0,.53-.1,1.54,1.54,0,0,0,.77-.85,1.18,1.18,0,0,0,0-.54,1.48,1.48,0,0,0-.22-.58,2.87,2.87,0,0,0-.53-.61Zm10.44-5.9-.52.42a.26.26,0,0,1-.37,0L66.75,91l-1,.83.08.1.22.3.2.28.18.25.39.54.3.46h0q.12.2.22.39a3.5,3.5,0,0,1,.16.35h0a2.76,2.76,0,0,1,.1.3,1.7,1.7,0,0,1,.05.28,2.29,2.29,0,0,1,0,.25,2.06,2.06,0,0,1,0,.25,1.44,1.44,0,0,1-.06.25h0a1.19,1.19,0,0,1-.09.21h0a1.26,1.26,0,0,1-.15.2l-.19.18h0l-.07.05-.08.06h0l-.07.05,0,0a.26.26,0,0,1-.37,0h0l-.41-.5a.26.26,0,0,1,0-.37l0,0h0l0,0,0,0h0l0,0,0,0h0l.05,0,0-.06h0l0,0a.18.18,0,0,0,0,0v0a.81.81,0,0,0,0-.27,2.06,2.06,0,0,0-.17-.41q-.12-.24-.33-.56t-.51-.73h0L65.2,93v0l-.29-.38-.32-.42-.29-.38a.26.26,0,0,1,0-.36h0l2.44-2a.26.26,0,0,1,.37,0l3.18,3.93a.26.26,0,0,1,0,.37ZM77.78,87a1,1,0,0,0-.1-.16l-.11-.11h0l-.1-.06-.13,0h-.16l-.17,0h0l-.24.11-.34.17h0l-.6.32.65,1.23.58-.31.33-.19h0l.22-.15.13-.13a.73.73,0,0,0,.09-.14.69.69,0,0,0,.06-.15.48.48,0,0,0,0-.13h0a.53.53,0,0,0,0-.14h0a1.09,1.09,0,0,0-.08-.19Zm.11.32h0Zm1-.89a1.85,1.85,0,0,1,.14.36,1.69,1.69,0,0,1,.06.39,1.72,1.72,0,0,1,0,.37,1.52,1.52,0,0,1-.11.35h0a2.11,2.11,0,0,1-.19.35,2,2,0,0,1-.25.3h0a2.5,2.5,0,0,1-.33.27,4.48,4.48,0,0,1-.43.26l-1.59.85a.26.26,0,0,1-.35-.11l-2.37-4.47a.26.26,0,0,1,.11-.35l.59-.32a.26.26,0,0,1,.35.11l.81,1.52.78-.42.44-.21.38-.15h0a1.56,1.56,0,0,1,.39-.07h0a1.81,1.81,0,0,1,.4,0,1.49,1.49,0,0,1,.37.11,1.47,1.47,0,0,1,.32.2h0a1.78,1.78,0,0,1,.27.27,2.18,2.18,0,0,1,.22.34v0Zm10.35-2.18-.64.22a.26.26,0,0,1-.33-.16l-.72-2.09-1.89.65L86.35,85a.26.26,0,0,1-.16.33l-.64.22a.26.26,0,0,1-.33-.16l-1.65-4.78a.26.26,0,0,1,.16-.33l.64-.22a.26.26,0,0,1,.33.16l.56,1.63,1.89-.65-.56-1.63a.26.26,0,0,1,.16-.33l.64-.22a.26.26,0,0,1,.33.16l1.65,4.78a.26.26,0,0,1-.16.33Zm9.18-3.81a1,1,0,0,0,0-.19.68.68,0,0,0-.07-.14l-.09-.1L98.08,80h0l-.15,0h-.18l-.28,0-.38.05-.55.09.22,1.38.53-.08.37-.07.26-.07.17-.08.13-.1h0l.1-.12a.48.48,0,0,0,.06-.12v0a.55.55,0,0,0,0-.13,1.05,1.05,0,0,0,0-.2Zm1.21-.2a1.91,1.91,0,0,1,0,.41,1.69,1.69,0,0,1-.22.74,1.54,1.54,0,0,1-.22.3,2.16,2.16,0,0,1-.3.27,2,2,0,0,1-.34.2,2.48,2.48,0,0,1-.4.14l-.49.1L96,82.68a.26.26,0,0,1-.3-.22l-.79-5a.26.26,0,0,1,.22-.3l.66-.11a.26.26,0,0,1,.3.22l.27,1.7.75-.12.48-.06.4,0h0a1.56,1.56,0,0,1,.39.06,1.82,1.82,0,0,1,.38.16h0a1.49,1.49,0,0,1,.29.21,1.47,1.47,0,0,1,.24.3h0a1.8,1.8,0,0,1,.16.33,2.19,2.19,0,0,1,.1.39ZM101.06,82a.26.26,0,0,0,.23-.29l-.63-5a.26.26,0,0,0-.29-.23l-.63.08a.26.26,0,0,0-.23.29l.63,5a.26.26,0,0,0,.29.23l.63-.08Zm10.86.06-.67,0a.26.26,0,0,1-.25-.27l.16-3.13L109,81.76a.26.26,0,0,1-.24.11l-.66,0a.26.26,0,0,1-.25-.27l.26-5.05a.26.26,0,0,1,.27-.25l.67,0a.26.26,0,0,1,.25.27l-.16,3.07,2.17-3.11a.26.26,0,0,1,.23-.11h0l.71,0a.26.26,0,0,1,.25.27l-.26,5.05a.26.26,0,0,1-.27.25Zm15.5,3.66-.82-.28a.26.26,0,0,1-.16-.16l-1.15-2.73-.07,0-.67,1.93a.26.26,0,0,1-.33.16l-.64-.22a.26.26,0,0,1-.16-.33l1.65-4.78a.26.26,0,0,1,.33-.16l.64.22a.26.26,0,0,1,.16.33l-.64,1.87h.12l.11,0h0l.11,0h0l.12-.06h0l.12-.08.14-.12h0l.07-.08.09-.1h0l.09-.1h0l.1-.12h0a2.86,2.86,0,0,1,.44-.41,1.54,1.54,0,0,1,.46-.24,1.36,1.36,0,0,1,.52,0,2.52,2.52,0,0,1,.59.13l.25.09a.26.26,0,0,1,.16.33l-.2.57a.26.26,0,0,1-.33.16l-.27-.09-.17,0-.11,0H128l-.08,0h0l-.07,0-.08.07h0l-.1.11-.13.15h0a3.77,3.77,0,0,1-.31.33h0a1.79,1.79,0,0,1-.3.23h0a1.62,1.62,0,0,1-.32.14h0l1.23,3a.26.26,0,0,1-.33.35Zm9.23,4.41-.59-.32a.26.26,0,0,1-.11-.35l2-3.71-1.16-.62-.06.11-.19.32-.18.3-.15.27-.35.57-.31.46v0l-.26.34a3.62,3.62,0,0,1-.26.28l-.24.21h0l-.24.16h0l-.21.1-.24.08-.25,0h-.24l-.24-.06-.24-.1-.07,0h0l-.09-.05-.07,0h0l0,0a.26.26,0,0,1-.11-.35l.31-.58a.26.26,0,0,1,.35-.11h.06l0,0,0,0h0l0,0,0,0h0l.05,0h0l.07,0h.1A.79.79,0,0,0,134,87a2.07,2.07,0,0,0,.31-.31v0q.17-.2.37-.51t.47-.76h0l.19-.32.25-.43h0l.25-.44h0l.24-.42a.26.26,0,0,1,.35-.1h0l2.77,1.47a.26.26,0,0,1,.11.35L137,90a.26.26,0,0,1-.35.11Zm12,2.31-4.17,2.1h0l-.28.12-.28.06h-.26l-.25,0h0l-.2-.06-.19-.09-.16-.1-.14-.11-.12-.1-.14-.13-.15-.14h0l0,0a.26.26,0,0,1,0-.37l.39-.48a.26.26,0,0,1,.37,0l0,0,0,0h0l.12.12.08.08.1.08h0l.06,0,.08.06h0l.07,0,.06,0h.25l.1,0h0l.15-.08.87-4a.26.26,0,0,1,.44-.14l.56.46a.26.26,0,0,1,.09.26h0l-.61,2.7,2.41-1.23a.26.26,0,0,1,.3,0l.52.42a.26.26,0,0,1,0,.37.26.26,0,0,1-.09.07Zm5.2,10a1.9,1.9,0,0,1-.33.25,1.73,1.73,0,0,1-.73.23,1.52,1.52,0,0,1-.37,0h0a2.15,2.15,0,0,1-.38-.09,2,2,0,0,1-.36-.17,2.49,2.49,0,0,1-.34-.25,4.47,4.47,0,0,1-.36-.35l-1.25-1.34a.26.26,0,0,1,0-.37l3.7-3.45a.26.26,0,0,1,.37,0l2.31,2.48a.26.26,0,0,1,0,.37l-.44.41a.26.26,0,0,1-.37,0l-1.67-1.79-.63.59.63.67.32.37a3.67,3.67,0,0,1,.24.33,1.58,1.58,0,0,1,.17.36,1.82,1.82,0,0,1,.08.4,1.49,1.49,0,0,1,0,.38,1.47,1.47,0,0,1-.11.37,1.81,1.81,0,0,1-.2.33,2.2,2.2,0,0,1-.27.3Zm-.85-.89.13-.14a.7.7,0,0,0,.08-.14.45.45,0,0,0,0-.13.48.48,0,0,0,0-.14h0a.62.62,0,0,0,0-.14h0a.78.78,0,0,0-.09-.15h0l-.17-.21-.26-.28-.48-.52-1,1,.47.51.27.27.2.18h0l.16.1.16.05h0l.16,0h0l.13,0h0l.12-.06.16-.13ZM42.37,151.48h0a2.35,2.35,0,0,1,.35-.38,2.82,2.82,0,0,1,.45-.32h0a3.3,3.3,0,0,1,.52-.24,4.47,4.47,0,0,1,1.24-.24,3.27,3.27,0,0,1,.59,0,2.86,2.86,0,0,1,.53.12,2.28,2.28,0,0,1,.47.22h0a2.25,2.25,0,0,1,.73.7h0a2.57,2.57,0,0,1,.24.47,3.25,3.25,0,0,1,.16.54,3.12,3.12,0,0,1,.06.55,2.63,2.63,0,0,1,0,.53h0a2.34,2.34,0,0,1-.15.49,2.22,2.22,0,0,1-.26.44h0a2.33,2.33,0,0,1-.35.38,2.82,2.82,0,0,1-.45.31h0a3.27,3.27,0,0,1-.53.24,4.33,4.33,0,0,1-.61.17,4.27,4.27,0,0,1-.62.08,3.31,3.31,0,0,1-.58,0h0a2.79,2.79,0,0,1-.54-.12,2.46,2.46,0,0,1-.48-.22,2.12,2.12,0,0,1-.4-.31,2.34,2.34,0,0,1-.33-.4v0a2.71,2.71,0,0,1-.23-.46,3,3,0,0,1-.15-.53,3.11,3.11,0,0,1-.06-.56,2.5,2.5,0,0,1,0-.53v0a2.36,2.36,0,0,1,.15-.47,2.26,2.26,0,0,1,.25-.44Zm2.18.09a2.88,2.88,0,0,0-.76.25,1.53,1.53,0,0,0-.49.38h0a1.16,1.16,0,0,0-.24.48,1.41,1.41,0,0,0,0,.59,1.43,1.43,0,0,0,.22.55,1.16,1.16,0,0,0,.41.36h0a1.53,1.53,0,0,0,.6.17,2.89,2.89,0,0,0,.8-.06,2.86,2.86,0,0,0,.77-.26,1.48,1.48,0,0,0,.48-.39h0a1.19,1.19,0,0,0,.24-.48,1.54,1.54,0,0,0-.22-1.12,1.19,1.19,0,0,0-.4-.36,1.47,1.47,0,0,0-.59-.17,2.88,2.88,0,0,0-.81.06Zm67.1-76.32h0a.21.21,0,0,0-.2-.22l-.5,0h0a.21.21,0,0,0-.22.2.79.79,0,0,1,0,.21.23.23,0,0,1-.05.09l-.08,0h-.16l-.16,0-.08-.05h0a.24.24,0,0,1,0-.1.76.76,0,0,1,0-.21h0a.21.21,0,0,0-.2-.22l-.49,0h0a.21.21,0,0,0-.22.21,1.34,1.34,0,0,0,.07.48,1,1,0,0,0,.25.38,1.16,1.16,0,0,0,.39.23,1.74,1.74,0,0,0,1,0,1.15,1.15,0,0,0,.4-.19h0a1,1,0,0,0,.29-.35A1.33,1.33,0,0,0,111.66,75.26Z"/>
</svg>
