<svg id="Layer_1" data-name="Layer 1" xmlns="http://www.w3.org/2000/svg" width="13" height="13" viewBox="0 0 13 13">
  <defs>
    <style>
      .cls-1 {
        fill: #999;
      }
    </style>
  </defs>
  <title>icon-exit</title>
  <rect class="cls-1" x="11" y="5" width="1" height="3"/>
  <path class="cls-1" d="M8.5,13h-7A1.5,1.5,0,0,1,0,11.5V1.5A1.5,1.5,0,0,1,1.5,0h7A1.5,1.5,0,0,1,10,1.5v10A1.5,1.5,0,0,1,8.5,13ZM1.5,1a.5.5,0,0,0-.5.5v10a.5.5,0,0,0,.5.5h7a.5.5,0,0,0,.5-.5V1.5A.5.5,0,0,0,8.5,1Z"/>
  <rect class="cls-1" x="6" y="6" width="7" height="1"/>
</svg>
