<svg id="Layer_1" data-name="Layer 1" xmlns="http://www.w3.org/2000/svg" width="123" height="40" viewBox="0 0 123 40">
  <defs>
    <style>
      .cls-1 {
        fill: #fff;
      }
    </style>
  </defs>
  <title>app-store</title>
  <g>
    <rect width="123" height="40" rx="5.44" ry="5.44"/>
    <path class="cls-1" d="M23,9.18A2.18,2.18,0,0,0,20.82,7H11.18A2.18,2.18,0,0,0,9,9.18V31.82A2.18,2.18,0,0,0,11.18,34h9.64A2.18,2.18,0,0,0,23,31.82Zm-6.75,23a1.45,1.45,0,1,1,1.45-1.45A1.45,1.45,0,0,1,16.25,32.22ZM22,29H11V12H22Z"/>
    <g>
      <path class="cls-1" d="M31.66,11l-.61,2h-.78l2-6h.92l2,6h-.81l-.63-2Zm1.92,0L33,9.19A8.09,8.09,0,0,0,32.71,8h0a9.3,9.3,0,0,0-.29,1.18L31.82,11Z"/>
      <path class="cls-1" d="M36,9l.83,2.14c.14.39.25.86.34.86h0c.1,0,.22-.47.36-.86L38.34,9h.8l-1.66,4h-.73l-1.6-4Z"/>
      <path class="cls-1" d="M43,12a5.29,5.29,0,0,1-.27,1h-.78c-.23,0-.69.39-1.29.39a1.25,1.25,0,0,1-1.24-1.33c0-1,.59-1.7,2.59-1.69v-.09a.91.91,0,0,0-1-1,2.12,2.12,0,0,0-1.13.31l-.19-.51a3.4,3.4,0,0,1,1.56-.37A1.62,1.62,0,0,1,43,10.46ZM42,10.9c-.84,0-1.79.13-1.79.95a.67.67,0,0,0,.71.73,1.07,1.07,0,0,0,1-.71.79.79,0,0,0,0-.24Z"/>
      <path class="cls-1" d="M44.22,8a.49.49,0,0,1,0-1,.47.47,0,0,1,.49.49.48.48,0,0,1-.5.5ZM44,13V9h1v4Z"/>
      <path class="cls-1" d="M46,7h1v6H46Z"/>
      <path class="cls-1" d="M51,12c0,.37-.17,1-.13,1h-.78c-.23,0-.69.39-1.29.39a1.31,1.31,0,0,1-1.31-1.33c0-1,.51-1.7,2.51-1.69v-.09a.85.85,0,0,0-.94-1A2,2,0,0,0,48,9.62L47.8,9.1a3.13,3.13,0,0,1,1.49-.37A1.57,1.57,0,0,1,51,10.46ZM50,10.9c-.84,0-1.79.13-1.79.95a.67.67,0,0,0,.71.73,1.06,1.06,0,0,0,1-.71.78.78,0,0,0,0-.24Z"/>
      <path class="cls-1" d="M52,7h1v3h-.22c.27-1,.76-1,1.44-1A1.78,1.78,0,0,1,56,11a1.8,1.8,0,0,1-1.9,2c-.61,0-1.09,0-1.41-1h0l0,1H52a8.21,8.21,0,0,0,0-1Zm1,4.36c0,.1-.11.19-.09.28a1.12,1.12,0,0,0,1.09.9c.81,0,1.25-.65,1.25-1.62S54.8,9.34,54,9.34a1.1,1.1,0,0,0-1,.94c0,.1.07.2.07.32Z"/>
      <path class="cls-1" d="M57,7h1v6H57Z"/>
      <path class="cls-1" d="M59.34,11a1.34,1.34,0,0,0,1.44,1.46,2.9,2.9,0,0,0,1.17-.21l.14.54a3.43,3.43,0,0,1-1.41.27,2,2,0,0,1-2.07-2.13,2.06,2.06,0,0,1,2-2.28,1.78,1.78,0,0,1,1.73,2,2,2,0,0,1,0,.37Zm2.24,0c0-1-.2-1.25-1.05-1.25S59.41,10,59.34,11Z"/>
      <path class="cls-1" d="M66.74,13a2,2,0,0,1-2-2.1,2,2,0,0,1,2.09-2.2,2,2,0,0,1,2,2.1A2,2,0,0,1,66.75,13Zm0,0c.73,0,1.28-.9,1.28-1.86,0-.71-.36-1.72-1.26-1.72s-1.29,1-1.29,1.8S66,13,66.76,13Z"/>
      <path class="cls-1" d="M70,10a2.17,2.17,0,0,0-.27-1h.68l0,1h0c.21-1,.52-1,1.22-1S73,9.09,73,10.53V13h0V10.62a1.19,1.19,0,0,0-1.18-1.25,1,1,0,0,0-.9.78c0,.1.08.24.08.36V13H70Z"/>
      <path class="cls-1" d="M77,7.83V9h0v2.69c0,.52.29.82.71.82a2,2,0,0,0,.52-.05l.07.58a2,2,0,0,1-.66.1c-.36,0-.4-.12-.58-.32S77,12.21,77,11.72V9h0V7.83Z"/>
      <path class="cls-1" d="M79,7h1V9h0c.12,0,.31-.17.55-.29a1.87,1.87,0,0,1,.89-.09A1.72,1.72,0,0,1,83,10.54V13H82V10.63c0-.69-.24-1.26-1-1.26a1.08,1.08,0,0,0-1,.77,1,1,0,0,0,0,.37V13H79Z"/>
      <path class="cls-1" d="M84.42,11a1.34,1.34,0,0,0,1.44,1.46A2.91,2.91,0,0,0,87,12.25l.14.54a3.44,3.44,0,0,1-1.41.27,2,2,0,0,1-2.07-2.13,2.06,2.06,0,0,1,2-2.28,1.78,1.78,0,0,1,1.73,2,2,2,0,0,1,0,.37Zm2.24,0c0-1-.2-1.25-1.05-1.25S84.49,10,84.43,11Z"/>
      <path class="cls-1" d="M90.48,8a.49.49,0,0,1,0-1A.47.47,0,0,1,91,7.5a.48.48,0,0,1-.5.5ZM90,13V9h1v4Z"/>
      <path class="cls-1" d="M92,7.26a6,6,0,0,1,1.52-.12,2.5,2.5,0,0,1,1.68.49,1.59,1.59,0,0,1,.54,1.23,1.69,1.69,0,0,1-.45,1.25,2.28,2.28,0,0,1-1.73.64c-.23,0-.55,0-.55-.05V13H92Zm1,2.82s.33.06.57.06c.92,0,1.44-.45,1.44-1.25s-.51-1.16-1.34-1.16A2.34,2.34,0,0,0,93,7.8Z"/>
      <path class="cls-1" d="M97,7h0V9h.43c.12,0,.31-.17.55-.29s.38-.09.66-.09c.57,0,1.35.47,1.35,1.93V13H99V10.63c0-.69,0-1.26-.74-1.26a1.23,1.23,0,0,0-1.12.77.92.92,0,0,0-.14.37V13h0Z"/>
      <path class="cls-1" d="M103.16,13a2,2,0,0,1-2-2.1,2,2,0,0,1,2.09-2.2,2,2,0,0,1,2,2.1A2,2,0,0,1,103.17,13Zm0,0c.73,0,1.28-.9,1.28-1.86,0-.71-.36-1.72-1.26-1.72s-1.29,1-1.29,1.8.52,1.78,1.26,1.78Z"/>
      <path class="cls-1" d="M106,10a7.25,7.25,0,0,1,.15-1h.68l0,1h0c.21-1,.81-1,1.51-1a1.4,1.4,0,0,1,1.6,1.56V13h-1V10.62c0-.68-.25-1.25-1-1.25a1.07,1.07,0,0,0-1,.78,1.16,1.16,0,0,0,0,.36V13h-1Z"/>
      <path class="cls-1" d="M111.41,11a1.34,1.34,0,0,0,1.44,1.46,2.9,2.9,0,0,0,1.17-.21l.14.54a3.44,3.44,0,0,1-1.41.27,2,2,0,0,1-2.07-2.13,2.06,2.06,0,0,1,2-2.28,1.78,1.78,0,0,1,1.73,2,2,2,0,0,1,0,.37Zm2.24,0c0-1-.2-1.25-1.05-1.25s-1.12.25-1.18,1.25Z"/>
    </g>
    <g>
      <path class="cls-1" d="M35.27,17,30.11,32h2.37L34,28h5l1.59,4H43L37.84,17Zm1.23,2.53c.17.68.36,1.53.6,2.29L38.49,26h-4l1.37-4.21C36.11,21.14,36.31,20.28,36.5,19.53Z"/>
      <path class="cls-1" d="M49.72,21a4.23,4.23,0,0,0-3.66,1.65L46,21h-2.1l0,.3c.06.94.11,2.08.11,3.57V37h2V31.12a4.82,4.82,0,0,0,3.28,1.35A4.89,4.89,0,0,0,52.83,31a6.3,6.3,0,0,0,1.57-4.42,6.11,6.11,0,0,0-1.32-4A4.34,4.34,0,0,0,49.72,21Zm-.57,1.9c2.05,0,3,1.9,3,3.78,0,2.43-1.17,3.94-3.06,3.94a2.94,2.94,0,0,1-2.84-2.13,2.58,2.58,0,0,1-.21-.74V25.86c0-.17.17-.37.2-.57s.09-.13.1-.19A3,3,0,0,1,49.14,22.87Z"/>
      <path class="cls-1" d="M61.56,21a4.23,4.23,0,0,0-3.66,1.65L57.81,21h-2.1l.11.3c.06.94.18,2.08.18,3.57V37h2V31.12a4.63,4.63,0,0,0,3.2,1.35A4.81,4.81,0,0,0,64.71,31a6.3,6.3,0,0,0,1.55-4.42,6.12,6.12,0,0,0-1.33-4A4.36,4.36,0,0,0,61.56,21ZM61,22.87c2,0,3,1.9,3,3.78,0,2.43-1.17,3.94-3.06,3.94a2.85,2.85,0,0,1-2.76-2.13,2.75,2.75,0,0,1-.14-.74V25.86a3.82,3.82,0,0,1,.13-.57c0-.06,0-.12.06-.19A2.94,2.94,0,0,1,61,22.87Z"/>
      <path class="cls-1" d="M76.4,23.47c-2.15-.83-2.83-1.49-2.83-2.69,0-1,.81-2,2.61-2a5.23,5.23,0,0,1,2.7.68l.2.12.65-1.92-.13-.08a6.66,6.66,0,0,0-3.35-.75c-2.93,0-5,1.73-5,4.21,0,2,1.28,3.4,4,4.4,2,.73,2.68,1.48,2.68,2.76,0,1.45-1.12,2.35-2.92,2.35a6.3,6.3,0,0,1-3.32-.94l-.2-.13-.62,2,.11.08a7.88,7.88,0,0,0,3.89,1c4,0,5.36-2.41,5.36-4.48S79.16,24.56,76.4,23.47Z"/>
      <path class="cls-1" d="M84,18.59l-2,.71V21H81v2h1v5.68a4.29,4.29,0,0,0,.88,2.92,3,3,0,0,0,2.27.87,5.56,5.56,0,0,0,1.8-.27l.14,0L87,30.31l-.22.07a5.11,5.11,0,0,1-1.28.12c-.89,0-1.48-.56-1.48-1.89V23h3V21H84Z"/>
      <path class="cls-1" d="M92.9,21a5.22,5.22,0,0,0-5.47,5.6A5.05,5.05,0,0,0,92.72,32h0a5.22,5.22,0,0,0,5.47-5.63,5.52,5.52,0,0,0-1.47-4A5,5,0,0,0,92.9,21Zm-.07,1.82c2.07,0,3,2.19,3,4.06,0,2.31-1.29,4.15-3.05,4.15h0c-1.74,0-3-1.82-3-4.08C89.75,24.95,90.7,22.79,92.83,22.79Z"/>
      <path class="cls-1" d="M105,21.08v0a1.76,1.76,0,0,0-.51-.07,3.13,3.13,0,0,0-2.85,1.75l0-1.72H99.9v.3c.06.91.09,1.87.09,3.25L100,32h2V26.37a6.34,6.34,0,0,1,0-.89,2.52,2.52,0,0,1,2.4-2.32,3.45,3.45,0,0,1,.48,0l.11,0Z"/>
      <path class="cls-1" d="M110.42,20.71c-3.06,0-5.2,2.45-5.2,5.95s2.13,5.55,5.42,5.55a8.83,8.83,0,0,0,3.64-.7l.14-.06L114,29.74l-.19.08a7.13,7.13,0,0,1-2.88.52A3.2,3.2,0,0,1,107.46,27l7.43,0,0-.15a5.09,5.09,0,0,0,.07-1C115,23.52,113.79,20.71,110.42,20.71Zm-.15,1.74A2.2,2.2,0,0,1,112,23a4.08,4.08,0,0,1,.79,2h-5.25A3,3,0,0,1,110.27,22.46Z"/>
    </g>
  </g>
</svg>
