<svg id="Layer_1" data-name="Layer 1" xmlns="http://www.w3.org/2000/svg" xmlns:xlink="http://www.w3.org/1999/xlink" width="1980" height="1783.95" viewBox="0 0 1980 1783.95">
  <defs>
    <style>
      .cls-1 {
        fill: #e4e9ea;
      }

      .cls-2 {
        fill: url(#radial-gradient);
      }

      .cls-3 {
        fill: url(#radial-gradient-2);
      }

      .cls-4 {
        fill: url(#radial-gradient-3);
      }

      .cls-5 {
        fill: url(#linear-gradient);
      }
    </style>
    <radialGradient id="radial-gradient" cx="990" cy="441.84" r="766.11" gradientTransform="matrix(1, 0, 0, -1, 0, 882)" gradientUnits="userSpaceOnUse">
      <stop offset="0" stop-color="#e4e9ea"/>
      <stop offset="0.43" stop-color="#e2e6e7"/>
      <stop offset="0.63" stop-color="#dde1e2"/>
      <stop offset="1" stop-color="#d9dcdd"/>
    </radialGradient>
    <radialGradient id="radial-gradient-2" cx="991" cy="476.67" r="426.48" xlink:href="#radial-gradient"/>
    <radialGradient id="radial-gradient-3" cx="991" cy="582.19" r="209.84" xlink:href="#radial-gradient"/>
    <linearGradient id="linear-gradient" x1="990" y1="879.86" x2="990" y2="1783.95" gradientUnits="userSpaceOnUse">
      <stop offset="0" stop-color="#dde1e2"/>
      <stop offset="1" stop-color="#dde1e2"/>
    </linearGradient>
  </defs>
  <title>bg-steps-promo-phone</title>
  <path class="cls-1" d="M1980,880.68V470a1024,1024,0,0,1-224.28,410Z"/>
  <path class="cls-1" d="M0,875v6l226.56-.69a1024.12,1024.12,0,0,1-222.49-403Q2,470,0,462.64Z"/>
  <path class="cls-2" d="M1499.57,96.57A520.73,520.73,0,0,1,1509.1,196c0,286.14-232,518.1-518.1,518.1S472.9,482.14,472.9,196a520.75,520.75,0,0,1,9.46-99L0,0V462.64Q2,470,4.07,477.35A1020.81,1020.81,0,0,0,226.56,880H990l765.44.32.28-.32A1024,1024,0,0,0,1980,470V0Z"/>
  <path class="cls-3" d="M991,714.1c286.14,0,518.1-232,518.1-518.1a520.74,520.74,0,0,0-9.54-99.43l-257.79,51.82a256.53,256.53,0,0,1,4.45,47.61c0,141-114.27,255.22-255.22,255.22S735.78,337,735.78,196a256.57,256.57,0,0,1,4.38-47.22L482.36,97a520.75,520.75,0,0,0-9.46,99C472.9,482.14,704.86,714.1,991,714.1Z"/>
  <path class="cls-4" d="M991,451.22c141,0,255.22-114.27,255.22-255.22a256.53,256.53,0,0,0-4.45-47.61L990,199,740.15,148.78A256.57,256.57,0,0,0,735.78,196C735.78,337,850,451.22,991,451.22Z"/>
  <rect class="cls-5" y="879.86" width="1980" height="904.09"/>
</svg>
