<svg id="Layer_1" data-name="Layer 1" xmlns="http://www.w3.org/2000/svg" width="101" height="56" viewBox="0 0 101 56">
  <defs>
    <style>
      .cls-1 { fill: #2f2f30; } .cls-2 { fill: #11c5ef; } .cls-3 { fill: #fff; }
    </style>
  </defs>
  <title>
    get-zen-reg-ticket
  </title>
  <path class="cls-1" d="M95.5 1h-21a2 2 0 0 1-4 0h-64C3.74 1 1 3.24 1 6v44c0 2.76 2.74 5 5.5 5h64a2 2 0 0 1 4 0h21c2.76 0 4.5-2.24 4.5-5V6c0-2.76-1.74-5-4.5-5z"/>
  <path class="cls-2" d="M95.5 56h-22v-1a1 1 0 0 0-2 0v1h-65C3.038 56 0 53.2 0 50V6c0-3.2 3.038-6 6.5-6h65v1a1 1 0 0 0 2 0V0h22c3.187 0 5.5 2.523 5.5 6v44c0 3.477-2.313 6-5.5 6zm-20.17-2H95.5c2.4 0 3.5-2.073 3.5-4V6c0-1.927-1.1-4-3.5-4H75.33a3 3 0 0 1-5.66 0H6.5C4.376 2 2 3.71 2 6v44c0 2.29 2.376 4 4.5 4h63.17a3 3 0 0 1 5.66 0z"/>
  <rect class="cls-2" x="70" y="6" width="4" height="4" rx="2" ry="2"/>
  <rect class="cls-2" x="70" y="14" width="4" height="4" rx="2" ry="2"/>
  <rect class="cls-2" x="70" y="22" width="4" height="4" rx="2" ry="2"/>
  <rect class="cls-2" x="70" y="30" width="4" height="4" rx="2" ry="2"/>
  <rect class="cls-2" x="70" y="38" width="4" height="4" rx="2" ry="2"/>
  <rect class="cls-2" x="70" y="46" width="4" height="4" rx="2" ry="2"/>
  <path class="cls-3" d="M9.68 42v-2.74l6.243-7.688H9.828v-2.687h10.06v2.538L13.5 39.26h6.52V42zM31 14h12v2H31zM52 14h12v2H52zM31 27h12v2H31zM52 27h12v2H52zM31 40h12v2H31zM52 40h12v2H52zM31 11h6v1h-6zM52 11h6v1h-6zM31 24h6v1h-6zM52 24h6v1h-6zM31 37h6v1h-6zM52 37h6v1h-6zM80 41h13v1H80zM80 22h13v1H80zM80 13h13v1H80zM80 34h13v1H80zM80 28h13v1H80zM80 16h13v1H80zM80 31h13v2H80zM80 18h13v2H80zM80 36h13v3H80zM80 24h13v3H80z"/>
</svg>
