<svg id="Layer_1" data-name="Layer 1" xmlns="http://www.w3.org/2000/svg" width="61.1" height="69" viewBox="0 0 61.1 69">
  <defs>
    <style>
      .cls-1 { fill: #11c5ef; } .cls-2 { fill: #2f2f30; } .cls-3 { fill: #fff; }
    </style>
  </defs>
  <title>
    get-zen-invite-friend
  </title>
  <path class="cls-1" d="M30.045 38h-6.817l-.21-.105c-7.2-3.6-10.708-10.122-10.708-19.933C12.31 9.292 18.262 3 26.463 3s14.154 6.292 14.154 14.96c0 3.462-.747 15.127-10.36 19.934zM23.7 36h5.867c8.39-4.36 9.048-14.894 9.048-18.04C38.617 10.45 33.505 5 26.463 5S14.31 10.45 14.31 17.96c0 9.008 2.99 14.748 9.39 18.04z"/>
  <path class="cls-1" d="M16.1 7c-1-4 5.037-8.193 16-6 5 1 8-1 8-1s2 4 0 7a19.105 19.105 0 0 1 0 13 31 31 0 0 0-2-7c-3 1-13.932-.233-17-1-4-1-7 2-8 7s-4-13 3-12zM26.475 44a12.91 12.91 0 0 1-9.08-3.42l-.382-.38 1.153-5.734 1.96.395-.936 4.66c3.784 3.3 10.786 3.3 14.57 0l-.938-4.66 1.96-.394 1.153 5.735-.38.38a12.908 12.908 0 0 1-9.08 3.42z"/>
  <path class="cls-1" d="M27.1 67.333A113.21 113.21 0 0 1 .836 63.965L0 63.735l.107-.86c1.108-8.867 3.48-18.753 17.656-23.816l.673 1.882C5.788 45.46 3.294 54.205 2.206 62.25A111.77 111.77 0 0 0 27.1 65.333a110.18 110.18 0 0 0 23.894-3.086C49.9 54.2 47.41 45.457 34.764 40.94l.672-1.882c14.178 5.063 16.548 14.95 17.656 23.817l.108.865-.843.225A113.15 113.15 0 0 1 27.1 67.333z"/>
  <circle class="cls-2" cx="50.1" cy="58" r="10"/>
  <path class="cls-1" d="M50.1 69a11 11 0 1 1 11-11 11.012 11.012 0 0 1-11 11zm0-20a9 9 0 1 0 9 9 9.01 9.01 0 0 0-9-9z"/>
  <path class="cls-2" d="M50.1 54v8"/>
  <path class="cls-3" d="M49.1 54h2v8h-2z"/>
  <g>
    <path class="cls-2" d="M46.1 58h8"/>
    <path class="cls-3" d="M46.1 57h8v2h-8z"/>
  </g>
</svg>
