<svg id="Layer_1" data-name="Layer 1" xmlns="http://www.w3.org/2000/svg" xmlns:xlink="http://www.w3.org/1999/xlink" width="104" height="108" viewBox="0 0 104 108">
  <defs>
    <style>
      .cls-1 {
        fill: url(#linear-gradient);
      }

      .cls-2 {
        fill: url(#linear-gradient-2);
      }

      .cls-3 {
        fill: #ce890f;
      }

      .cls-4 {
        fill: url(#radial-gradient);
      }

      .cls-5 {
        fill: url(#linear-gradient-3);
      }
    </style>
    <linearGradient id="linear-gradient" x1="18.67" y1="29" x2="-0.05" y2="29" gradientUnits="userSpaceOnUse">
      <stop offset="0" stop-color="#edab00"/>
      <stop offset="1" stop-color="#f4bd42"/>
    </linearGradient>
    <linearGradient id="linear-gradient-2" x1="87" y1="29" x2="103.7" y2="29" xlink:href="#linear-gradient"/>
    <radialGradient id="radial-gradient" cx="51.33" cy="3.5" r="70.86" gradientTransform="translate(54.47 -47.82) rotate(90.26) scale(1 0.83)" gradientUnits="userSpaceOnUse">
      <stop offset="0" stop-color="#f9c55d"/>
      <stop offset="0.66" stop-color="#edab00"/>
      <stop offset="1" stop-color="#ce890f"/>
    </radialGradient>
    <linearGradient id="linear-gradient-3" x1="51.5" y1="107.46" x2="51.5" y2="87" gradientTransform="translate(103 194) rotate(-180)" gradientUnits="userSpaceOnUse">
      <stop offset="0" stop-color="#ce890f"/>
      <stop offset="1" stop-color="#f4bd42"/>
    </linearGradient>
  </defs>
  <title>step-item-4</title>
  <g>
    <path class="cls-1" d="M21.58,48h-.12C11.26,48,0,39.76,0,27.5V18c0-4.71,4-8,9.33-8h12.5C35.33,10,35,21.67,35,25.5v2C35,40.14,30.06,48,21.58,48ZM8.34,18.12V27.5c0,8,7.76,12.5,13.12,12.5h.13C27.17,40,27,28.78,27,27.5v-2c0-6.82-1.26-7.5-5.17-7.5H9.33A3.45,3.45,0,0,0,8.34,18.12Z"/>
    <path class="cls-2" d="M83.21,48h-.12C74.6,48,69,40.14,69,27.5v-2c0-3.83.33-15.5,13.83-15.5h12.5c5.3,0,8.67,3.29,8.67,8v9.5C104,39.76,93.41,48,83.21,48Zm-.37-30c-3.91,0-5.83.68-5.83,7.5v2c0,1.28.49,12.5,6.08,12.5h.13C88.57,40,96,35.55,96,27.5V18.13c0-.06-.19-.12-.67-.12Z"/>
    <rect class="cls-3" x="42" y="71" width="19" height="25"/>
    <path class="cls-4" d="M22.33,0h60A4.67,4.67,0,0,1,87,4.67V38A35,35,0,0,1,52,73h0A35,35,0,0,1,17,38V5.33A5.33,5.33,0,0,1,22.33,0Z"/>
    <path class="cls-5" d="M25,86H78a0,0,0,0,1,0,0v3.14A18.86,18.86,0,0,1,59.14,108H43.55A18.55,18.55,0,0,1,25,89.45V86A0,0,0,0,1,25,86Z" transform="translate(103 194) rotate(180)"/>
  </g>
</svg>
