<svg id="Layer_1" data-name="Layer 1" xmlns="http://www.w3.org/2000/svg" width="235.24" height="301.08" viewBox="0 0 235.24 301.08">
  <defs>
    <style>
      .cls-1 {
        fill: #fff;
      }
    </style>
  </defs>
  <title>ticket-friend</title>
  <path class="cls-1" d="M132.6,171.72H107.45l-.4-.19c-32.28-15-49.35-45.77-49.35-88.91,0-37.78,25.88-65.19,61.54-65.19s61.54,27.42,61.54,65.19c0,15.45-3.44,67.53-47.76,88.9Zm-24.27-4h23.35c41.83-20.48,45.09-70.28,45.09-85.09,0-35.46-24.2-61.19-57.54-61.19S61.7,47.17,61.7,82.62C61.7,123.91,77.82,153.32,108.34,167.72Z"/>
  <path class="cls-1" d="M86.77,13.4c6-15,50-18,72-6,19.63,10.71,38,34,22.19,83.52-5.19-10.52-9.19-20.52-11.19-41.52-12,19-60.93,8.79-74.81,5.31-18.1-4.53-31.68,9.05-36.21,31.68-3-5-8-25-2-44C61.76,26.61,71.77,11.4,86.77,13.4Z"/>
  <path class="cls-1" d="M119.88,197c-14.91,0-28.62-5.16-37.62-14.17l-.76-.76,4.74-23.68,3.92.79-4.31,21.56c8.26,7.8,20.6,12.25,34,12.25s25.77-4.45,34-12.25l-4.31-21.56,3.92-.79,4.74,23.68-.76.76C148.5,191.87,134.79,197,119.88,197Z"/>
  <path class="cls-1" d="M117.19,301.08c-41.64,0-82.71-4.63-115.52-13.6L0,287l.22-1.72c2.09-16.7,6-38.42,18.13-58.3,13.43-22.06,34-37.81,63-48.17l1.35,3.77c-59.64,21.3-73.27,63-78.31,101.47,53.55,14.27,128.69,17.06,192.06,7.08a350.86,350.86,0,0,0,34.36-7.09c-4.87-37.76-15.65-79.39-75.41-100.74l1.35-3.77C219.58,202,230.1,245.91,235,285.31l.22,1.73-1.68.45a351.23,351.23,0,0,1-36.47,7.62A519.89,519.89,0,0,1,117.19,301.08Z"/>
  <path class="cls-1" d="M65.86,126.29c-10.09,0-16.62-20.92-16.62-28.15,0-5.68.26-10.5,3.51-12,2.88-1.35,6.12.92,8.31,2.75l-2.56,3.07c-3.06-2.55-4-2.2-4.05-2.2-.8.37-1.2,3.2-1.2,8.39,0,6.58,6.14,24.15,12.62,24.15Z"/>
  <path class="cls-1" d="M171.77,126.4v-4c6.22,0,13.66-17.41,13.66-24.27,0-5.87-.58-7.37-1.06-7.6,0,0-1.06-.31-4.32,2.4l-2.56-3.07c2.3-1.91,5.69-4.3,8.57-2.95,3.11,1.46,3.36,5.94,3.36,11.22C189.43,105,182.1,126.4,171.77,126.4Z"/>
  <circle class="cls-1" cx="95.97" cy="98.83" r="4.82"/>
  <circle class="cls-1" cx="140.02" cy="98.83" r="4.82"/>
  <path class="cls-1" d="M82.76,89.11a20.44,20.44,0,0,1,5.15-3,19.24,19.24,0,0,1,5.92-1.38,17.43,17.43,0,0,1,6.07.67,16.93,16.93,0,0,1,5.38,2.68l-.48.88a34.06,34.06,0,0,0-5.38-1.5A22,22,0,0,0,94,87.18a26.94,26.94,0,0,0-5.39,1c-1.78.5-3.55,1.15-5.35,1.83Z"/>
  <path class="cls-1" d="M153,90c-1.8-.68-3.57-1.33-5.35-1.83a26.93,26.93,0,0,0-5.39-1,22,22,0,0,0-5.42.29,34.06,34.06,0,0,0-5.38,1.5l-.48-.88a16.93,16.93,0,0,1,5.38-2.68,17.43,17.43,0,0,1,6.07-.67,19.24,19.24,0,0,1,5.92,1.38,20.44,20.44,0,0,1,5.15,3Z"/>
  <path class="cls-1" d="M112.08,123.88a16.66,16.66,0,0,0,3.58,1.13,19.76,19.76,0,0,0,3.71.36,17.49,17.49,0,0,0,7.29-1.49l.55.83a10.2,10.2,0,0,1-3.69,2,14.1,14.1,0,0,1-4.16.63,13.84,13.84,0,0,1-4.16-.62,10,10,0,0,1-3.69-2Z"/>
  <path class="cls-1" d="M132.61,144a7.32,7.32,0,0,1-3.63.43c-1.2-.15-2.33-.51-3.37-.7a4,4,0,0,0-1.37-.05,1.35,1.35,0,0,0-.5.2,1.41,1.41,0,0,0-.22.17l-.34.3a4.76,4.76,0,0,1-1.88.87,8.44,8.44,0,0,1-1.89.24,8.15,8.15,0,0,1-1.89-.21,4.92,4.92,0,0,1-1.88-.83,7.32,7.32,0,0,0-.58-.48,1.82,1.82,0,0,0-.54-.21,5.38,5.38,0,0,0-1.43-.08c-1,.07-2.16.3-3.3.47a8.09,8.09,0,0,1-3.64-.11l.28-1a8,8,0,0,0,3.1-.31c1.09-.24,2.19-.55,3.4-.71a5.77,5.77,0,0,1,2,0,3.52,3.52,0,0,1,1,.39,6.81,6.81,0,0,1,.75.57,5.06,5.06,0,0,0,2.72.63,4.79,4.79,0,0,0,2.69-.66l.1-.08.2-.18a3.09,3.09,0,0,1,.46-.33,3.05,3.05,0,0,1,1.08-.4,4.84,4.84,0,0,1,2,.14c1.18.3,2.2.7,3.25.9a6.72,6.72,0,0,0,3.1,0Z"/>
  <path class="cls-1" d="M113.31,148.59a43.12,43.12,0,0,0,6.11.8,17,17,0,0,0,3-.14,19.56,19.56,0,0,0,3-.64l.36.93a12.66,12.66,0,0,1-3.11,1,15.19,15.19,0,0,1-3.27.24,23,23,0,0,1-6.31-1.24Z"/>
</svg>
