<svg id="Layer_1" data-name="Layer 1" xmlns="http://www.w3.org/2000/svg" width="23.278" height="23.278" viewBox="0 0 23.278 23.278">
  <defs>
    <style>
      .cls-1 { fill: #fff; }
    </style>
  </defs>
  <title>
    icon-soc-insta
  </title>
  <path class="cls-1" d="M11.64 2.097c3.107 0 3.475.012 4.7.068a6.44 6.44 0 0 1 2.16.4 3.854 3.854 0 0 1 2.21 2.21 6.44 6.44 0 0 1 .4 2.16c.055 1.227.067 1.6.067 4.7s-.012 3.476-.068 4.7a6.44 6.44 0 0 1-.4 2.16 3.854 3.854 0 0 1-2.21 2.21 6.44 6.44 0 0 1-2.16.4c-1.228.056-1.6.068-4.7.068s-3.477-.012-4.7-.068a6.44 6.44 0 0 1-2.162-.4 3.854 3.854 0 0 1-2.21-2.21 6.44 6.44 0 0 1-.4-2.16c-.055-1.227-.067-1.6-.067-4.7s.013-3.476.07-4.7a6.44 6.44 0 0 1 .4-2.16 3.854 3.854 0 0 1 2.208-2.21 6.44 6.44 0 0 1 2.16-.4c1.228-.056 1.6-.068 4.7-.068m0-2.1c-3.16 0-3.556.013-4.8.07a8.544 8.544 0 0 0-2.824.54 5.95 5.95 0 0 0-3.4 3.4 8.54 8.54 0 0 0-.54 2.826c-.058 1.24-.07 1.638-.07 4.8s.012 3.557.07 4.8a8.54 8.54 0 0 0 .54 2.825 5.95 5.95 0 0 0 3.4 3.4 8.544 8.544 0 0 0 2.825.54c1.24.058 1.637.07 4.8.07s3.556-.012 4.8-.07a8.544 8.544 0 0 0 2.824-.54 5.95 5.95 0 0 0 3.4-3.4 8.54 8.54 0 0 0 .54-2.825c.058-1.24.07-1.638.07-4.8s-.012-3.557-.07-4.8a8.54 8.54 0 0 0-.54-2.825 5.95 5.95 0 0 0-3.4-3.4 8.544 8.544 0 0 0-2.825-.54c-1.242-.058-1.64-.07-4.8-.07"/>
  <path class="cls-1" d="M11.64 5.662a5.977 5.977 0 1 0 5.976 5.977A5.977 5.977 0 0 0 11.64 5.66m0 9.856a3.88 3.88 0 1 1 3.88-3.88 3.88 3.88 0 0 1-3.88 3.88M19.252 5.426a1.4 1.4 0 1 1-1.4-1.4 1.4 1.4 0 0 1 1.4 1.4"/>
</svg>