<svg id="Layer_1" data-name="Layer 1" xmlns="http://www.w3.org/2000/svg" width="38.5" height="38.5" viewBox="0 0 38.5 38.5">
  <defs>
    <style>
      .cls-1 {
        fill: #e74c3c;
      }
    </style>
  </defs>
  <title>icon-sad-smile-red</title>
  <path class="cls-1" d="M13.56,14.48a1.51,1.51,0,1,1,3,0A1.5,1.5,0,0,1,15.08,16,1.54,1.54,0,0,1,13.56,14.48Zm8.17,0a1.52,1.52,0,0,1,1.5-1.54,1.54,1.54,0,0,1,1.52,1.54,1.51,1.51,0,1,1-3,0Z"/>
  <path class="cls-1" d="M9.9,24.8l-1-1.57a17.3,17.3,0,0,1,20.49,0l-1,1.57a16.28,16.28,0,0,0-9.23-3A16.28,16.28,0,0,0,9.9,24.8Z"/>
  <path class="cls-1" d="M19.25,38.5A19.25,19.25,0,1,1,38.5,19.25,19.27,19.27,0,0,1,19.25,38.5Zm0-36.5A17.25,17.25,0,1,0,36.5,19.25,17.27,17.27,0,0,0,19.25,2Z"/>
</svg>
