<svg id="Layer_1" data-name="Layer 1" xmlns="http://www.w3.org/2000/svg" width="26.47" height="22.53" viewBox="0 0 26.47 22.53">
  <defs>
    <style>
      .cls-1 { fill: #fff; }
    </style>
  </defs>
  <title>
    icon-exit
  </title>
  <path class="cls-1" d="M17 19.53a1 1 0 0 1-1 1H3a1 1 0 0 1-1-1V3a1 1 0 0 1 1-1h13a1 1 0 0 1 1 1v5.2h2V3a3 3 0 0 0-3-3H3a3 3 0 0 0-3 3v16.53a3 3 0 0 0 3 3h13a3 3 0 0 0 3-3v-4.7h-2z"/>
  <path class="cls-1" d="M8.17 10.26h14v2h-14z"/>
  <path class="cls-1" d="M21.29 14.25l5.18-2.99-5.18-2.99v5.98z"/>
</svg>
