<svg id="Layer_1" data-name="Layer 1" xmlns="http://www.w3.org/2000/svg" width="4.25" height="59.84" viewBox="0 0 4.25 59.84">
  <defs>
    <style>
      .cls-1 {
        fill: #1E1E20;
      }
    </style>
  </defs>
  <title>btn-black-wave-right</title>
  <path class="cls-1" d="M1,59.84A3,3,0,0,1,4,57l.25,0V53L4,53a3,3,0,0,1,0-6l.25,0V43L4,43a3,3,0,0,1,0-6l.25,0V33L4,33a3,3,0,0,1,0-6l.25,0V23L4,23a3,3,0,0,1,0-6l.25,0V13L4,13A3,3,0,0,1,4,7l.25,0V3L4,3A3,3,0,0,1,1,0H0V59.84Z" transform="translate(0 0)"/>
</svg>
