<svg id="Layer_1" data-name="Layer 1" xmlns="http://www.w3.org/2000/svg" width="86" height="48" viewBox="0 0 86 48">
  <defs>
    <style>
      .cls-1 { fill: #2f2f30; } .cls-2 { fill: #11c5ef; } .cls-3 { fill: #fff; }
    </style>
  </defs>
  <title>
    get-zen-prognoz
  </title>
  <rect class="cls-1" x="1" y="1" width="84" height="46" rx="5" ry="5"/>
  <path class="cls-2" d="M80 48H6a6.007 6.007 0 0 1-6-6V6a6.007 6.007 0 0 1 6-6h74a6.007 6.007 0 0 1 6 6v36a6.007 6.007 0 0 1-6 6zM6 2a4 4 0 0 0-4 4v36a4 4 0 0 0 4 4h74a4 4 0 0 0 4-4V6a4 4 0 0 0-4-4z"/>
  <path class="cls-2" d="M17.962 23.157h1.155c3.543 0 6.688-1.593 6.688-5.573a5.5 5.5 0 0 0-5.733-5.574 6.17 6.17 0 0 0-5.533 3.19l-1.713-1.12a8.052 8.052 0 0 1 7.325-3.98c4.3 0 7.883 2.667 7.883 7.364a6.48 6.48 0 0 1-5.175 6.57v.078a7.047 7.047 0 0 1 6.05 7.126c0 4.977-3.662 8.32-8.757 8.32a8.767 8.767 0 0 1-8.48-5.258l1.87-.955a7.03 7.03 0 0 0 6.608 4.26 6.177 6.177 0 0 0 6.49-6.37c0-4.46-3.94-6.13-7.524-6.13h-1.154zM73.252 24.87c0 7.045-1.99 14.688-9.078 14.688-7.125 0-9.076-7.644-9.076-14.69 0-7.086 1.95-14.77 9.076-14.77 7.087.002 9.078 7.684 9.078 14.77zm-15.885 0c0 5.174 1.154 12.738 6.807 12.738 5.613 0 6.81-7.564 6.81-12.74 0-5.215-1.2-12.818-6.81-12.818-5.653 0-6.807 7.603-6.807 12.82z"/>
  <circle class="cls-3" cx="42" cy="19.127" r="2"/>
  <circle class="cls-3" cx="42" cy="30.127" r="2"/>
</svg>
