<svg id="Layer_1" data-name="Layer 1" xmlns="http://www.w3.org/2000/svg" xmlns:xlink="http://www.w3.org/1999/xlink" width="2270.86" height="2269.83" viewBox="0 0 2270.86 2269.83">
  <defs>
    <style>
      .cls-1 {
        fill: url(#radial-gradient);
      }

      .cls-2 {
        fill: url(#radial-gradient-2);
      }

      .cls-3 {
        fill: url(#radial-gradient-3);
      }

      .cls-4 {
        fill: url(#radial-gradient-4);
      }

      .cls-5 {
        opacity: 0.06;
        fill: url(#radial-gradient-5);
      }
    </style>
    <radialGradient id="radial-gradient" cx="1135.43" cy="1134.92" r="1135.17" gradientUnits="userSpaceOnUse">
      <stop offset="0" stop-color="#9b2eef"/>
      <stop offset="0.35" stop-color="#9a2cec"/>
      <stop offset="0.59" stop-color="#9527e3"/>
      <stop offset="0.64" stop-color="#9325e0"/>
      <stop offset="1" stop-color="#6918b7"/>
    </radialGradient>
    <radialGradient id="radial-gradient-2" cx="1135.92" cy="1134.84" r="746.29" gradientUnits="userSpaceOnUse">
      <stop offset="0" stop-color="#9b2eef"/>
      <stop offset="0.35" stop-color="#9a2cec"/>
      <stop offset="0.59" stop-color="#9527e3"/>
      <stop offset="0.64" stop-color="#9325e0"/>
      <stop offset="1" stop-color="#7b1cc6"/>
    </radialGradient>
    <radialGradient id="radial-gradient-3" cx="1136.61" cy="1134.67" r="444.22" gradientUnits="userSpaceOnUse">
      <stop offset="0" stop-color="#9b2eef"/>
      <stop offset="0.35" stop-color="#9a2cec"/>
      <stop offset="0.59" stop-color="#9527e3"/>
      <stop offset="0.64" stop-color="#9325e0"/>
      <stop offset="1" stop-color="#8e1ed6"/>
    </radialGradient>
    <radialGradient id="radial-gradient-4" cx="1136.24" cy="1135.22" r="285.43" xlink:href="#radial-gradient-3"/>
    <radialGradient id="radial-gradient-5" cx="1136.24" cy="1135.27" r="142.2" gradientTransform="translate(1.6 1.75)" gradientUnits="userSpaceOnUse">
      <stop offset="0" stop-color="#fff" stop-opacity="0.5"/>
      <stop offset="1" stop-color="#fff"/>
    </radialGradient>
  </defs>
  <title>bg-promo-video</title>
  <polygon class="cls-1" points="2091.08 518.82 2026.22 667.65 2185.42 699.44 2095.03 834.3 2246 894.01 2132.98 1010.56 2270.86 1096.27 2138.85 1190.76 2259.21 1299.71 2112.45 1369.12 2211.42 1497.81 2054.62 1539.89 2129.03 1684.18 1967.23 1697.6 2014.67 1852.86 1853.09 1837.16 1872.05 1998.4 1715.86 1954.11 1705.72 2116.14 1559.95 2044.67 1521.05 2202.28 1390.38 2105.93 1323.96 2254.07 1212.6 2135.94 1120.79 2269.83 1032.31 2133.71 918.07 2249.07 855.32 2099.34 722.32 2192.43 687.31 2033.91 539.82 2101.76 533.68 1939.53 376.45 1979.96 399.38 1819.24 237.45 1830.94 288.71 1676.9 127.3 1659.5 205.24 1517.09 49.52 1471.15 151.64 1344.94 6.63 1271.93 129.64 1165.99 0 1068.26 139.95 985.98 29.84 866.68 182.24 810.71 95.2 673.67 255.14 645.81 193.97 495.42 356.31 496.57 322.98 337.68 482.51 367.8 478.08 205.51 629.67 263.63 654.29 103.16 793.06 187.41 845.94 33.91 967.44 141.59 1046.88 0 1147.2 127.64 1250.64 2.51 1326.56 146.01 1450.68 41.37 1499.76 196.12 1640.57 115.32 1661.23 276.35 1814.2 221.99 1805.78 384.11 1966 357.94 1928.76 515.96 2091.08 518.82"/>
  <polygon class="cls-2" points="1764.19 729.8 1721.55 827.65 1826.21 848.55 1766.79 937.21 1866.04 976.46 1791.73 1053.09 1882.38 1109.43 1795.59 1171.56 1874.72 1243.18 1778.23 1288.81 1843.3 1373.42 1740.22 1401.09 1789.13 1495.95 1682.77 1504.77 1713.96 1606.84 1607.72 1596.52 1620.19 1702.52 1517.51 1673.4 1510.84 1779.92 1415.01 1732.94 1389.43 1836.56 1303.53 1773.22 1259.86 1870.61 1186.65 1792.94 1126.29 1880.97 1068.12 1791.48 993.02 1867.32 951.76 1768.88 864.33 1830.09 841.31 1725.86 744.35 1770.47 740.31 1663.82 636.94 1690.4 652.02 1584.73 545.56 1592.43 579.26 1491.16 473.14 1479.72 524.38 1386.09 422.01 1355.89 489.15 1272.92 393.81 1224.92 474.69 1155.27 389.45 1091.03 481.46 1036.93 409.07 958.5 509.26 921.7 452.04 831.61 557.19 813.29 516.97 714.42 623.7 715.18 601.79 610.72 706.67 630.52 703.76 523.83 803.41 562.03 819.6 456.54 910.84 511.93 945.6 411.01 1025.48 481.8 1077.7 388.72 1143.66 472.63 1211.66 390.37 1261.57 484.71 1343.17 415.92 1375.44 517.65 1468.01 464.53 1481.59 570.4 1582.16 534.66 1576.62 641.25 1681.96 624.04 1657.47 727.92 1764.19 729.8"/>
  <polygon class="cls-3" points="1510.57 893.58 1485.19 951.82 1547.49 964.26 1512.12 1017.03 1571.2 1040.4 1526.97 1086.01 1580.93 1119.55 1529.27 1156.53 1576.37 1199.16 1518.94 1226.32 1557.67 1276.68 1496.31 1293.15 1525.42 1349.61 1462.11 1354.86 1480.68 1415.62 1417.44 1409.48 1424.86 1472.57 1363.74 1455.24 1359.78 1518.64 1302.73 1490.68 1287.51 1552.36 1236.38 1514.65 1210.38 1572.62 1166.8 1526.39 1130.88 1578.79 1096.25 1525.52 1051.55 1570.66 1026.99 1512.07 974.95 1548.5 961.25 1486.47 903.53 1513.02 901.13 1449.53 839.6 1465.36 848.58 1402.46 785.21 1407.04 805.27 1346.76 742.1 1339.95 772.6 1284.22 711.67 1266.25 751.63 1216.86 694.88 1188.29 743.02 1146.83 692.29 1108.59 747.05 1076.39 703.97 1029.7 763.6 1007.8 729.54 954.17 792.13 943.27 768.19 884.42 831.72 884.87 818.68 822.7 881.1 834.48 879.37 770.97 938.69 793.72 948.33 730.92 1002.63 763.89 1023.32 703.82 1070.87 745.96 1101.96 690.55 1141.21 740.5 1181.69 691.54 1211.4 747.69 1259.97 706.74 1279.18 767.3 1334.28 735.68 1342.36 798.69 1402.23 777.42 1398.93 840.87 1461.63 830.62 1447.05 892.46 1510.57 893.58"/>
  <polygon class="cls-4" points="1376.52 980.31 1360.21 1017.73 1400.24 1025.72 1377.52 1059.63 1415.47 1074.64 1387.06 1103.95 1421.73 1125.5 1388.53 1149.26 1418.8 1176.65 1381.89 1194.1 1406.78 1226.46 1367.36 1237.04 1386.06 1273.32 1345.38 1276.7 1357.31 1315.73 1316.68 1311.79 1321.45 1352.33 1282.18 1341.19 1279.63 1381.93 1242.98 1363.96 1233.19 1403.59 1200.34 1379.37 1183.64 1416.61 1155.64 1386.91 1132.56 1420.58 1110.31 1386.35 1081.58 1415.36 1065.81 1377.71 1032.36 1401.12 1023.56 1361.26 986.48 1378.32 984.93 1337.53 945.4 1347.69 951.16 1307.28 910.45 1310.22 923.34 1271.49 882.75 1267.12 902.35 1231.31 863.2 1219.76 888.87 1188.02 852.41 1169.67 883.34 1143.03 850.75 1118.46 885.93 1097.77 858.25 1067.77 896.57 1053.7 874.68 1019.24 914.9 1012.24 899.52 974.42 940.34 974.71 931.96 934.76 972.07 942.33 970.95 901.53 1009.07 916.14 1015.26 875.79 1050.15 896.98 1063.45 858.38 1094 885.46 1113.97 849.86 1139.2 881.95 1165.2 850.49 1184.29 886.57 1215.5 860.26 1227.84 899.17 1263.25 878.85 1268.44 919.34 1306.9 905.67 1304.79 946.44 1345.07 939.86 1335.71 979.59 1376.52 980.31"/>
  <circle class="cls-5" cx="1136.24" cy="1135.42" r="142"/>
</svg>
