<svg id="Layer_1" data-name="Layer 1" xmlns="http://www.w3.org/2000/svg" xmlns:xlink="http://www.w3.org/1999/xlink" width="2812.76" height="2811.49" viewBox="0 0 2812.76 2811.49">
  <defs>
    <style>
      .cls-1 {
        fill: url(#radial-gradient);
      }

      .cls-2 {
        fill: url(#radial-gradient-2);
      }

      .cls-3 {
        fill: url(#radial-gradient-3);
      }

      .cls-4 {
        fill: url(#radial-gradient-4);
      }

      .cls-5 {
        fill: url(#radial-gradient-5);
      }

      .cls-6 {
        fill: url(#radial-gradient-6);
      }
    </style>
    <radialGradient id="radial-gradient" cx="1406.38" cy="1406.26" r="1406.06" gradientTransform="matrix(1, 0, 0, -1, 0, 2812)" gradientUnits="userSpaceOnUse">
      <stop offset="0" stop-color="#f2665f"/>
      <stop offset="0.3" stop-color="#f1645c"/>
      <stop offset="0.54" stop-color="#ee5c52"/>
      <stop offset="0.64" stop-color="#ec574b"/>
      <stop offset="1" stop-color="#e74c3c"/>
    </radialGradient>
    <radialGradient id="radial-gradient-2" cx="1405.36" cy="1405.51" r="1135.17" xlink:href="#radial-gradient"/>
    <radialGradient id="radial-gradient-3" cx="1405.85" cy="1405.72" r="807.9" xlink:href="#radial-gradient"/>
    <radialGradient id="radial-gradient-4" cx="1406.53" cy="1405.88" r="535.35" xlink:href="#radial-gradient"/>
    <radialGradient id="radial-gradient-5" cx="1406.16" cy="1405.96" r="317.77" gradientTransform="matrix(1, 0, 0, -1, 0, 2812)" gradientUnits="userSpaceOnUse">
      <stop offset="0" stop-color="#f2665f"/>
      <stop offset="0.29" stop-color="#f1635c"/>
      <stop offset="0.55" stop-color="#ee5c51"/>
      <stop offset="0.64" stop-color="#ec574b"/>
      <stop offset="1" stop-color="#e74c3c"/>
    </radialGradient>
    <radialGradient id="radial-gradient-6" cx="1406.54" cy="1405.75" r="208.79" gradientUnits="userSpaceOnUse">
      <stop offset="0" stop-color="#f2665f"/>
      <stop offset="0.32" stop-color="#f1645c"/>
      <stop offset="0.53" stop-color="#ee5d53"/>
      <stop offset="0.64" stop-color="#ec574b"/>
      <stop offset="1" stop-color="#e74c3c"/>
    </radialGradient>
  </defs>
  <title>bg-promo-video-wide</title>
  <polygon class="cls-1" points="2590.08 642.62 2509.74 826.97 2706.93 866.35 2594.97 1033.39 2781.97 1107.35 2641.98 1251.71 2812.76 1357.87 2649.25 1474.91 2798.33 1609.86 2616.54 1695.83 2739.13 1855.23 2544.92 1907.36 2637.08 2086.09 2436.68 2102.7 2495.44 2295.01 2295.29 2275.57 2318.78 2475.28 2125.32 2420.42 2112.76 2621.11 1932.2 2532.59 1884.02 2727.82 1722.17 2608.47 1639.89 2791.96 1501.96 2645.64 1388.24 2811.49 1278.65 2642.89 1137.15 2785.76 1059.42 2600.3 894.68 2715.62 851.32 2519.26 668.64 2603.31 661.04 2402.36 466.29 2452.44 494.68 2253.37 294.12 2267.86 357.61 2077.06 157.68 2055.51 254.21 1879.11 61.34 1822.21 187.83 1665.88 8.21 1575.46 160.58 1444.23 0 1323.18 173.35 1221.27 36.96 1073.5 225.72 1004.17 117.92 834.42 316.02 799.92 240.25 613.65 441.34 615.07 400.05 418.26 597.65 455.56 592.16 254.55 779.93 326.54 810.42 127.77 982.31 232.13 1047.81 42 1198.31 175.37 1296.7 0 1420.96 158.1 1549.09 3.11 1643.12 180.86 1796.86 51.24 1857.65 242.92 2032.06 142.84 2057.65 342.29 2247.13 274.96 2236.69 475.77 2435.15 443.36 2389.02 639.08 2590.08 642.62"/>
  <polygon class="cls-2" points="2361 790.39 2296.14 939.22 2455.35 971.02 2364.96 1105.87 2515.93 1165.59 2402.91 1282.13 2540.79 1367.84 2408.78 1462.34 2529.14 1571.29 2382.37 1640.69 2481.34 1769.38 2324.55 1811.47 2398.95 1955.76 2237.16 1969.17 2284.6 2124.43 2123.01 2108.74 2141.97 2269.98 1985.78 2225.68 1975.64 2387.71 1829.88 2316.24 1790.97 2473.86 1660.31 2377.51 1593.88 2525.65 1482.52 2407.51 1390.71 2541.41 1302.23 2405.29 1187.99 2520.64 1125.24 2370.91 992.24 2464.01 957.24 2305.48 809.75 2373.34 803.61 2211.11 646.38 2251.54 669.3 2090.82 507.38 2102.52 558.64 1948.48 397.22 1931.08 475.16 1788.66 319.45 1742.73 421.56 1616.52 276.56 1543.51 399.57 1437.56 269.93 1339.84 409.88 1257.56 299.77 1138.26 452.16 1082.29 365.12 945.24 525.06 917.38 463.89 767 626.24 768.15 592.9 609.26 752.43 639.37 748 477.09 899.59 535.2 924.21 374.73 1062.99 458.98 1115.87 305.49 1237.37 413.16 1316.8 271.58 1417.13 399.22 1520.57 274.09 1596.49 417.59 1720.61 312.94 1769.68 467.7 1910.5 386.89 1931.15 547.92 2084.13 493.56 2075.7 655.69 2235.92 629.52 2198.68 787.54 2361 790.39"/>
  <polygon class="cls-3" points="2085.97 967.82 2039.81 1073.73 2153.12 1096.36 2088.79 1192.34 2196.23 1234.84 2115.8 1317.78 2213.93 1378.78 2119.97 1446.03 2205.64 1523.57 2101.18 1572.97 2171.62 1664.55 2060.02 1694.51 2112.98 1797.2 1997.83 1806.75 2031.6 1917.24 1916.6 1906.07 1930.08 2020.82 1818.93 1989.31 1811.72 2104.62 1707.97 2053.75 1680.29 2165.92 1587.29 2097.36 1540.02 2202.78 1460.76 2118.71 1395.42 2214 1332.45 2117.12 1251.14 2199.22 1206.49 2092.66 1111.83 2158.92 1086.92 2046.1 981.95 2094.39 977.58 1978.92 865.68 2007.7 882 1893.32 766.76 1901.64 803.24 1792.01 688.36 1779.63 743.83 1678.28 633.01 1645.59 705.68 1555.76 602.48 1503.81 690.03 1428.4 597.76 1358.85 697.37 1300.29 619 1215.38 727.46 1175.56 665.52 1078.02 779.34 1058.19 735.81 951.17 851.35 951.98 827.62 838.89 941.16 860.33 938.01 744.83 1045.89 786.2 1063.42 671.99 1162.18 731.95 1199.81 622.71 1286.28 699.34 1342.83 598.57 1414.22 689.42 1487.84 600.37 1541.87 702.49 1630.21 628.01 1665.13 738.15 1765.34 680.65 1780.05 795.25 1888.93 756.56 1882.93 871.95 1996.95 853.32 1970.45 965.78 2085.97 967.82"/>
  <polygon class="cls-4" points="1857.22 1115.57 1826.63 1185.76 1901.71 1200.76 1859.09 1264.36 1930.27 1292.52 1876.98 1347.48 1942 1387.9 1879.74 1432.46 1936.51 1483.85 1867.29 1516.58 1913.97 1577.26 1840.02 1597.11 1875.11 1665.16 1798.82 1671.49 1821.18 1744.7 1744.98 1737.31 1753.92 1813.35 1680.27 1792.45 1675.48 1868.87 1606.74 1835.16 1588.39 1909.5 1526.77 1864.06 1495.45 1933.92 1442.92 1878.21 1399.63 1941.35 1357.9 1877.16 1304.02 1931.56 1274.43 1860.95 1211.71 1904.86 1195.2 1830.09 1125.65 1862.09 1122.76 1785.58 1048.6 1804.65 1059.41 1728.86 983.04 1734.38 1007.22 1661.73 931.1 1653.52 967.86 1586.36 894.42 1564.69 942.57 1505.17 874.19 1470.75 932.21 1420.79 871.06 1374.7 937.07 1335.89 885.14 1279.63 957.01 1253.23 915.96 1188.6 991.38 1175.47 962.54 1104.54 1039.11 1105.09 1023.38 1030.15 1098.62 1044.36 1096.53 967.82 1168.02 995.23 1179.63 919.55 1245.08 959.29 1270.01 886.89 1327.32 937.68 1364.77 870.9 1412.09 931.1 1460.87 872.08 1496.67 939.76 1555.21 890.41 1578.35 963.4 1644.75 925.29 1654.5 1001.23 1726.64 975.59 1722.66 1052.05 1798.23 1039.71 1780.67 1114.23 1857.22 1115.57"/>
  <polygon class="cls-5" points="1673.68 1233.58 1655.52 1275.24 1700.09 1284.14 1674.78 1321.9 1717.04 1338.61 1685.4 1371.24 1724 1395.23 1687.05 1421.68 1720.74 1452.18 1679.66 1471.6 1707.36 1507.63 1663.47 1519.41 1684.3 1559.8 1639.01 1563.55 1652.29 1607.02 1607.06 1602.63 1612.36 1647.76 1568.64 1635.36 1565.8 1680.72 1524.99 1660.71 1514.11 1704.83 1477.54 1677.86 1458.93 1719.33 1427.76 1686.26 1402.06 1723.73 1377.29 1685.64 1345.32 1717.92 1327.75 1676.02 1290.52 1702.07 1280.72 1657.69 1239.43 1676.69 1237.72 1631.27 1193.71 1642.6 1200.12 1597.61 1154.8 1600.88 1169.13 1557.76 1123.96 1552.89 1145.78 1513.03 1102.18 1500.17 1130.77 1464.83 1090.18 1444.4 1124.61 1414.75 1088.32 1387.39 1127.5 1364.36 1096.67 1330.96 1139.33 1315.29 1114.97 1276.93 1159.74 1269.13 1142.62 1227.03 1188.06 1227.35 1178.73 1182.88 1223.39 1191.3 1222.15 1145.88 1264.58 1162.15 1271.47 1117.22 1310.33 1140.8 1325.12 1097.84 1359.13 1127.98 1381.38 1088.35 1409.45 1124.08 1438.41 1089.06 1459.67 1129.23 1494.41 1099.93 1508.15 1143.24 1547.56 1120.63 1553.35 1165.71 1596.17 1150.49 1593.81 1195.87 1638.66 1188.54 1628.23 1232.78 1673.68 1233.58"/>
  <polygon class="cls-6" points="1582.31 1292.43 1570.38 1319.8 1599.67 1325.65 1583.04 1350.45 1610.81 1361.44 1590.02 1382.87 1615.38 1398.64 1591.1 1416.02 1613.24 1436.06 1586.24 1448.82 1604.45 1472.49 1575.61 1480.23 1589.29 1506.78 1559.54 1509.24 1568.26 1537.8 1538.54 1534.91 1542.03 1564.57 1513.3 1556.42 1511.43 1586.22 1484.62 1573.08 1477.47 1602.07 1453.43 1584.35 1441.22 1611.6 1420.73 1589.87 1403.85 1614.49 1387.57 1589.46 1366.56 1610.67 1355.02 1583.13 1330.56 1600.26 1324.12 1571.1 1296.99 1583.58 1295.86 1553.74 1266.94 1561.18 1271.16 1531.62 1241.37 1533.77 1250.8 1505.43 1221.11 1502.23 1235.45 1476.04 1206.81 1467.59 1225.59 1444.38 1198.92 1430.95 1221.54 1411.46 1197.7 1393.49 1223.44 1378.35 1203.19 1356.41 1231.22 1346.12 1215.21 1320.91 1244.63 1315.79 1233.38 1288.13 1263.24 1288.34 1257.1 1259.11 1286.45 1264.65 1285.63 1234.8 1313.51 1245.49 1318.04 1215.97 1343.57 1231.47 1353.29 1203.24 1375.64 1223.04 1390.25 1197 1408.71 1220.48 1427.73 1197.46 1441.7 1223.86 1464.53 1204.61 1473.55 1233.07 1499.45 1218.21 1503.25 1247.83 1531.39 1237.83 1529.84 1267.65 1559.31 1262.84 1552.46 1291.9 1582.31 1292.43"/>
</svg>
