<svg id="Layer_1" data-name="Layer 1" xmlns="http://www.w3.org/2000/svg" width="104.5" height="49" viewBox="0 0 104.5 49">
  <defs>
    <style>
      .cls-1 { fill: #2f2f30; } .cls-2 { fill: #11c5ef; } .cls-3 { fill: #fff; }
    </style>
  </defs>
  <title>
    get-zen-repost
  </title>
  <rect class="cls-1" x="13" y="13" width="90" height="35" rx="5" ry="5"/>
  <path class="cls-2" d="M95.8 49h-5.03v-2h5.03zm-10.057 0h-5.028v-2h5.028zm-10.056 0h-5.03v-2h5.03zM65.63 49H60.6v-2h5.028zM55.57 49h-5.03v-2h5.03zm-10.057 0h-5.03v-2h5.03zm-10.057 0h-5.03v-2h5.03zM25.4 49h-5.028v-2H25.4zm-10.44-.826A5.97 5.97 0 0 1 12 43.206l2-.068a3.985 3.985 0 0 0 1.972 3.313zm86.255-.108l-1.072-1.687A3.986 3.986 0 0 0 102 43l2-.06V43a5.976 5.976 0 0 1-2.784 5.065zM14 38.144h-2v-5.03h2zm90-.23h-2v-5.03h2zm-90-9.828h-2v-5.028h2zm90-.23h-2V22.83h2zM12 18.03V18a5.978 5.978 0 0 1 2.755-5.047l1.082 1.682A3.988 3.988 0 0 0 14 18zm90-.192a3.983 3.983 0 0 0-1.99-3.3l1-1.73a5.97 5.97 0 0 1 2.984 4.953zM95.6 14h-5.03v-2h5.03zm-10.058 0h-5.03v-2h5.03zm-10.058 0h-5.028v-2h5.028zm-10.056 0H60.4v-2h5.028zM55.37 14h-5.028v-2h5.028zm-10.057 0h-5.028v-2h5.03zm-10.057 0h-5.028v-2h5.03zM25.2 14h-5.03v-2h5.03z"/>
  <rect class="cls-1" x="1" y="1" width="90" height="35" rx="5" ry="5"/>
  <path class="cls-2" d="M86 37H6a6.007 6.007 0 0 1-6-6V6a6.007 6.007 0 0 1 6-6h80a6.007 6.007 0 0 1 6 6v25a6.007 6.007 0 0 1-6 6zM6 2a4 4 0 0 0-4 4v25a4 4 0 0 0 4 4h80a4 4 0 0 0 4-4V6a4 4 0 0 0-4-4z"/>
  <path class="cls-3" d="M8 7h27v4H8zM8 15h73v2H8zM8 19h68v2H8zM8 23h71v2H8zM8 27h66v2H8z"/>
  <circle class="cls-1" cx="93.5" cy="19" r="10"/>
  <path class="cls-2" d="M93.5 30a11 11 0 1 1 11-11 11.012 11.012 0 0 1-11 11zm0-20a9 9 0 1 0 9 9 9.01 9.01 0 0 0-9-9z"/>
  <g>
    <path class="cls-3" d="M89.97 23.243l-1.94-.485C88.688 20.13 90.6 17 96 17v2c-3.39 0-5.307 1.348-6.03 4.243z"/>
    <path class="cls-3" d="M95 21.39l5.872-3.39L95 14.61v6.78z"/>
  </g>
</svg>
