<svg id="Layer_1" data-name="Layer 1" xmlns="http://www.w3.org/2000/svg" width="603" height="390.13" viewBox="0 0 603 390.13">
  <defs>
    <style>
      .cls-1 {
        fill: #8e1ed6;
      }

      .cls-2 {
        fill: #45a9ff;
      }

      .cls-3 {
        fill: #fff;
      }

      .cls-4 {
        fill: #1e1e20;
      }
    </style>
  </defs>
  <title>gift-slide-2</title>
  <rect class="cls-1" width="603" height="390.13"/>
  <g>
    <g>
      <path class="cls-2" d="M229.62,206.52l2.23-4.07a5.87,5.87,0,0,0,4.21,1.56c1.13-.08,2.07-.54,1.66-1.61s-1.41-1.27-2.86-1.16l-1.6.12-.88-4.17,1.8-.13c1.21-.09,2.17-.42,1.77-1.46a2,2,0,0,0-2.19-1,4.2,4.2,0,0,0-3,1.6l-3.91-3.4c1.38-1.74,3.26-2.79,6.44-3,4-.3,6.77,1.16,7.87,4,.89,2.3-.1,4.25-1.62,4.78l0,.1a5.86,5.86,0,0,1,4,3.63c1.63,4.2-1.6,6.28-5.27,6.56S231.92,208.3,229.62,206.52Z"/>
      <path class="cls-2" d="M245.2,189.37l11.42-.85,1.06,4.94-6,.45.37,1.74,5.77-.43,1,4.61-5.77.43.41,1.89,6.76-.5,1.06,4.94-12.14.9Z"/>
      <path class="cls-2" d="M261.65,188.14l5.67-.42,1.32,6.22,5-.37-1.32-6.22,5.72-.43L281.9,205l-5.7.42-1.49-7-5,.37,1.49,7-5.7.42Z"/>
      <path class="cls-2" d="M283.16,186.54l5.45-.41,2.09,9.7h.1l3.26-10.1,6-.44,3.89,18.12-5.45.41-2-9.16h-.1l-3.12,9.54-6.24.46Z"/>
      <path class="cls-2" d="M309,189.69l-4.42.33-1.05-5L317.92,184l1.05,5-4.27.32,2.81,13.13-5.72.43Z"/>
    </g>
    <g>
      <path class="cls-1" d="M337.07,214.65c-3.81,2.86-9.53,2.86-15.24,3.81s-33.34-.71-33.34-.71c9.53-7.62,24.77-19.17,24.77-19.17L358,149.93l-1-2.89-4.76-2.87,2.86-.72,10.48,5h2.86l4.76,3.33L351.35,195.6s23.81,1,27.62,1.91"/>
      <path class="cls-3" d="M315.26,219c-9.89,0-25.92-1-26.8-1l-.74,0,.58-.46c9.42-7.54,24.62-19.06,24.77-19.17l44.62-48.48-.87-2.63-5.26-3.17,3.62-.91,10.51,5h2.88l5,3.53-.11.22-21.71,43.42c3.37.14,23.69,1,27.24,1.9l-.14.55c-3.74-.93-27.33-1.89-27.57-1.9l-.44,0,22-44-4.49-3.14-2.89,0-10.39-4.95-2.09.53,4.27,2.57,1,3.15-44.88,48.76c-.19.15-14.77,11.21-24.22,18.74,4.44.26,27.44,1.53,32.54.67,1.35-.22,2.71-.4,4-.57,4.24-.54,8.25-1.05,11.1-3.19l.34.46c-3,2.23-7.05,2.75-11.37,3.3-1.31.17-2.66.34-4,.56A48.79,48.79,0,0,1,315.26,219Z"/>
    </g>
    <path class="cls-3" d="M122.07,253.14l1.09-5.15-5.22-7,3.1,0,7.49,3.27,73.29-10.86c-15.12-1.85-72.42-9.51-105.94-23.41l-.14-.06-.08-.13a6.51,6.51,0,0,1-1-4.81,5.37,5.37,0,0,1,2.07-3.51c3-2,10.53-4.71,17.66-5.71-6-14.21-27.16-68.39-27.37-68.95l-.24-.62.66-.06c.43,0,10.53-1,13.38-1,3.53,0,7.5,2.62,11.82,7.8,4.69,5.63,35.88,37.78,40,41.88.46.46,1,1,1.56,1.65,4.28,4.62,11.44,12.36,23.77,11.54,5.38-.36,26.61-1.67,51.19-3.2,41.23-2.56,92.55-5.73,100.27-6.33l.08,1c-7.73.59-59,3.77-100.28,6.33-24.58,1.52-45.81,2.84-51.18,3.2-12.81.85-20.46-7.42-24.57-11.86-.57-.62-1.08-1.17-1.53-1.62-4.11-4.11-35.33-36.3-40-41.95-4.06-4.87-7.88-7.44-11-7.44-2.39,0-10.28.68-12.63.89,2.41,6.18,22.05,56.48,27.38,68.9l.26.61-.66.08c-7.92,1-15.35,3.95-17.88,5.64a4.43,4.43,0,0,0-1.64,2.85,5.53,5.53,0,0,0,.75,3.95C135,225.07,205,232.77,205.66,232.85l3.88.42-81.16,12-7.66-3.35h-.81l4.31,5.81-.82,3.89,1.92-.64,4.81-4.81h.19c11.47-.87,111.11-8.34,117.24-6.68,4.91-.79,33.87-3.93,49.49-5.62l9.47-1c8.44-.94,11.08-1.79,23.69-6.63l.14,0c14.33-1.1,41.76-2.85,54.33-2.85,13.81,0,45.67-7.77,50.13-12.22,4.66-4.66,3.51-11,.94-13.55-2.13-2.13-7.42-6.8-19-14.16-10.18-6.48-23.21-6.46-28.12-6.47h-.25c-4.08,0-21.82.21-27.66,1.18l-.16-1c5.9-1,23.73-1.2,27.83-1.2h.25c5,0,18.24,0,28.66,6.63,11.07,7,16.53,11.66,19.17,14.3,2.87,2.87,4.18,9.85-.94,15s-37.64,12.52-50.83,12.52c-12.52,0-39.84,1.74-54.18,2.84-12.46,4.79-15.38,5.72-23.87,6.67l-9.48,1c-15.74,1.71-45.05,4.88-49.55,5.63l-.16,0-.15-.07c-2.78-1.34-71.25,3.27-116.72,6.7l-4.72,4.71Z"/>
    <path class="cls-3" d="M358,223.3c-10,0-18.32-2-20.24-4.89-1.31-2-2-6.42-1-9.93a7.13,7.13,0,0,1,3.94-4.78c6.74-2.89,31.69-7.44,39.2-6.69,3.4.34,6.06,2.72,7.49,6.71,1.94,5.43,1.18,12.91-1.6,15.68C382,223.3,367.55,223.3,358,223.3ZM378,197.49c-9.09,0-30.79,4.07-37,6.73a6.58,6.58,0,0,0-3.62,4.42c-1,3.36-.35,7.6.89,9.45,1.79,2.69,10.1,4.64,19.77,4.64,9.44,0,23.7,0,27.42-3.73,2.64-2.64,3.34-9.83,1.46-15.09-1-2.67-2.94-5.93-7-6.34C379.35,197.52,378.7,197.49,378,197.49Z"/>
    <path class="cls-3" d="M339.5,220.73c-1.84,0-3.29-3.2-3.29-7.29s1.44-7.28,3.29-7.28,3.29,3.2,3.29,7.28S341.34,220.73,339.5,220.73Zm0-14c-1.47,0-2.71,3.08-2.71,6.72s1.24,6.71,2.71,6.71,2.71-3.08,2.71-6.71S341,206.73,339.5,206.73Z"/>
    <path class="cls-3" d="M346.59,222.34v-.57c4.48,0,4.48-5.42,4.48-10.19,0-4-1.43-8.29-5.43-8.29v-.57c3.64,0,6,3.48,6,8.86C351.64,216.38,351.64,222.34,346.59,222.34Z"/>
    <path class="cls-3" d="M214.73,233.87c-3.13,0-6.18,0-9.13-.09v-.57c40,.86,99.7-4.44,119.31-6.18l5.44-.48,0,.57-5.44.48C306.8,229.2,254.22,233.87,214.73,233.87Z"/>
    <path class="cls-3" d="M280.41,255.88c-1.56,0-3-.06-4.33-.19L257,253.78l.06-.57,19.05,1.91c9.35.93,27.44-1.87,30.25-4.68s3.75-10.16.89-16.83l.52-.22c3,6.89,1.86,14.59-1,17.46C304.23,253.4,290.36,255.87,280.41,255.88Z"/>
    <path class="cls-3" d="M258,253.73c-2.64,0-4.79-3.27-4.79-7.29s2.15-7.29,4.79-7.29,4.79,3.27,4.79,7.29S260.64,253.73,258,253.73Zm0-14c-2.32,0-4.21,3-4.21,6.71s1.89,6.71,4.21,6.71,4.21-3,4.21-6.71S260.32,239.73,258,239.73Z"/>
    <path class="cls-3" d="M266.57,254.73v-.57c.9,0,1.76-.78,2.44-2.19,1.75-3.64,1.8-10.34-.76-13.54l.45-.36c2.73,3.41,2.69,10.28.83,14.14C268.74,253.86,267.72,254.73,266.57,254.73Z"/>
    <path class="cls-3" d="M97,209.73c-1.16,0-1.78-2.21-1.78-4.28s.63-4.28,1.78-4.28,1.78,2.21,1.78,4.28S98.16,209.73,97,209.73Zm0-8c-.51,0-1.22,1.41-1.22,3.72s.71,3.72,1.22,3.72,1.22-1.41,1.22-3.72S97.51,201.73,97,201.73Z"/>
    <polygon class="cls-3" points="71.33 219.48 60.71 218.31 100.78 211.3 100.88 211.86 64.73 218.19 71.33 218.92 106.5 214.16 106.58 214.72 71.33 219.48"/>
    <polygon class="cls-3" points="428 189.94 418.71 189.94 415.29 183.94 422 183.94 422 184.94 417.01 184.94 419.29 188.94 428 188.94 428 189.94"/>
    <path class="cls-3" d="M395.19,191.22a1.68,1.68,0,0,1-1.61-1.18l-.85-2.74a1.68,1.68,0,0,1,1.42-2.17l1-.11a1.68,1.68,0,0,1,1.8,1.17l.85,2.74a1.68,1.68,0,0,1-1.42,2.17l-1,.11Zm.15-5.65h-.13l-1,.11a1.11,1.11,0,0,0-.93,1.44l.85,2.74a1.11,1.11,0,0,0,1.19.77l1-.11a1.11,1.11,0,0,0,.94-1.43l-.86-2.74A1.11,1.11,0,0,0,395.34,185.57Z"/>
    <path class="cls-3" d="M385.15,191.8a1.68,1.68,0,0,1-1.6-1.18l-.85-2.74a1.68,1.68,0,0,1,1.42-2.17l1-.11a1.69,1.69,0,0,1,1.8,1.17l.86,2.74a1.68,1.68,0,0,1-1.42,2.17l-1,.11Zm.15-5.65h-.13l-1,.11a1.11,1.11,0,0,0-.94,1.43l.86,2.74a1.11,1.11,0,0,0,1.19.77l1-.11a1.11,1.11,0,0,0,.93-1.43l-.85-2.74A1.11,1.11,0,0,0,385.3,186.15Z"/>
    <path class="cls-3" d="M375.11,192.37a1.68,1.68,0,0,1-1.61-1.18l-.85-2.74a1.68,1.68,0,0,1,1.42-2.17l1-.11a1.7,1.7,0,0,1,1.8,1.17l.85,2.74a1.68,1.68,0,0,1-1.42,2.17l-1,.11Zm.15-5.65h-.13l-1,.11a1.11,1.11,0,0,0-.93,1.43l.85,2.74a1.11,1.11,0,0,0,1.19.77l1-.11a1.11,1.11,0,0,0,.94-1.43l-.86-2.74A1.11,1.11,0,0,0,375.26,186.72Z"/>
    <path class="cls-3" d="M365.07,192.94a1.68,1.68,0,0,1-1.6-1.18l-.85-2.74a1.68,1.68,0,0,1,1.42-2.17l1-.11a1.68,1.68,0,0,1,1.8,1.17l.85,2.74a1.68,1.68,0,0,1-1.42,2.17l-1,.11Zm.15-5.65h-.13l-1,.11a1.11,1.11,0,0,0-.94,1.43l.86,2.74a1.11,1.11,0,0,0,1.19.77l1-.11a1.11,1.11,0,0,0,.93-1.43l-.85-2.74A1.11,1.11,0,0,0,365.22,187.29Z"/>
    <path class="cls-3" d="M355,193.51a1.68,1.68,0,0,1-1.6-1.18l-.86-2.74a1.68,1.68,0,0,1,1.42-2.17l1-.11a1.68,1.68,0,0,1,1.8,1.17l.85,2.74a1.68,1.68,0,0,1-1.42,2.17l-1,.11Zm.15-5.65h-.13l-1,.11a1.11,1.11,0,0,0-.93,1.43l.85,2.74a1.11,1.11,0,0,0,1.19.77l1-.11a1.11,1.11,0,0,0,.94-1.43l-.86-2.74A1.11,1.11,0,0,0,355.18,187.86Z"/>
    <g>
      <path class="cls-1" d="M315.71,196.15l-1,.11a1.4,1.4,0,0,1-1.49-1l-.85-2.74a1.4,1.4,0,0,1,1.17-1.8l1-.11a1.4,1.4,0,0,1,1.49,1l.85,2.74A1.4,1.4,0,0,1,315.71,196.15Z"/>
      <path class="cls-3" d="M314.55,196.56a1.68,1.68,0,0,1-1.61-1.18l-.85-2.74a1.68,1.68,0,0,1,1.41-2.17l1-.11a1.68,1.68,0,0,1,1.8,1.17l.85,2.74a1.68,1.68,0,0,1-1.42,2.17l-1,.11Zm.15-5.65h-.13l-1,.11a1.11,1.11,0,0,0-.93,1.43l.85,2.74a1.12,1.12,0,0,0,1.19.77l1-.11a1.11,1.11,0,0,0,.94-1.43l-.86-2.74A1.11,1.11,0,0,0,314.7,190.91Z"/>
    </g>
    <g>
      <path class="cls-1" d="M305.31,196.12l-1,.11a1.4,1.4,0,0,1-1.49-1l-.85-2.74a1.4,1.4,0,0,1,1.17-1.8l1-.11a1.4,1.4,0,0,1,1.49,1l.85,2.74A1.4,1.4,0,0,1,305.31,196.12Z"/>
      <path class="cls-3" d="M304.15,196.53a1.68,1.68,0,0,1-1.6-1.18l-.85-2.74a1.68,1.68,0,0,1,1.42-2.17l1-.11a1.69,1.69,0,0,1,1.8,1.17l.85,2.74a1.68,1.68,0,0,1-1.42,2.17l-1,.11Zm.15-5.65h-.13l-1,.11a1.11,1.11,0,0,0-.93,1.43l.85,2.74a1.11,1.11,0,0,0,1.19.77l1-.11a1.11,1.11,0,0,0,.94-1.43l-.86-2.74A1.11,1.11,0,0,0,304.3,190.88Z"/>
    </g>
    <g>
      <path class="cls-1" d="M294.91,196.09l-1,.11a1.4,1.4,0,0,1-1.49-1l-.85-2.74a1.4,1.4,0,0,1,1.17-1.8l1-.11a1.4,1.4,0,0,1,1.49,1l.85,2.74A1.4,1.4,0,0,1,294.91,196.09Z"/>
      <path class="cls-3" d="M293.75,196.5a1.68,1.68,0,0,1-1.6-1.18l-.85-2.74a1.68,1.68,0,0,1,1.42-2.17l1-.11a1.68,1.68,0,0,1,1.8,1.17l.85,2.74a1.68,1.68,0,0,1-1.42,2.17l-1,.11Zm.15-5.65h-.13l-1,.11a1.11,1.11,0,0,0-.94,1.43l.86,2.74a1.1,1.1,0,0,0,1.19.77l1-.11a1.11,1.11,0,0,0,.93-1.43l-.85-2.74A1.11,1.11,0,0,0,293.9,190.85Z"/>
    </g>
    <g>
      <path class="cls-1" d="M284.51,197.1l-1,.11a1.4,1.4,0,0,1-1.49-1l-.85-2.74a1.4,1.4,0,0,1,1.17-1.8l1-.11a1.4,1.4,0,0,1,1.49,1l.85,2.74A1.4,1.4,0,0,1,284.51,197.1Z"/>
      <path class="cls-3" d="M283.35,197.51a1.68,1.68,0,0,1-1.6-1.18l-.85-2.74a1.68,1.68,0,0,1,1.42-2.17l1-.11a1.7,1.7,0,0,1,1.8,1.17l.85,2.74a1.68,1.68,0,0,1-1.41,2.17l-1,.11Zm.15-5.65h-.13l-1,.11a1.11,1.11,0,0,0-.94,1.43l.86,2.74a1.1,1.1,0,0,0,1.19.77l1-.11a1.11,1.11,0,0,0,.93-1.43l-.85-2.74A1.11,1.11,0,0,0,283.5,191.86Z"/>
    </g>
    <g>
      <path class="cls-1" d="M274.11,197.1l-1,.11a1.4,1.4,0,0,1-1.49-1l-.85-2.74a1.4,1.4,0,0,1,1.17-1.8l1-.11a1.4,1.4,0,0,1,1.49,1l.85,2.74A1.4,1.4,0,0,1,274.11,197.1Z"/>
      <path class="cls-3" d="M272.95,197.51a1.68,1.68,0,0,1-1.6-1.18l-.85-2.74a1.68,1.68,0,0,1,1.41-2.17l1-.11a1.7,1.7,0,0,1,1.8,1.17l.85,2.74a1.68,1.68,0,0,1-1.41,2.17l-1,.11Zm.15-5.65H273l-1,.11a1.11,1.11,0,0,0-.93,1.43l.85,2.74a1.11,1.11,0,0,0,1.19.77l1-.11a1.11,1.11,0,0,0,.93-1.43l-.86-2.74A1.11,1.11,0,0,0,273.09,191.86Z"/>
    </g>
    <g>
      <path class="cls-1" d="M263.71,198.12l-1,.11a1.4,1.4,0,0,1-1.49-1l-.85-2.74a1.4,1.4,0,0,1,1.17-1.8l1-.11a1.4,1.4,0,0,1,1.49,1l.85,2.74A1.4,1.4,0,0,1,263.71,198.12Z"/>
      <path class="cls-3" d="M262.55,198.53a1.68,1.68,0,0,1-1.61-1.18l-.85-2.74a1.68,1.68,0,0,1,1.42-2.17l1-.11a1.68,1.68,0,0,1,1.8,1.17l.85,2.74a1.68,1.68,0,0,1-1.42,2.17l-1,.11Zm.15-5.65h-.13l-1,.11a1.11,1.11,0,0,0-.93,1.43l.85,2.74a1.11,1.11,0,0,0,1.19.77l1-.11a1.11,1.11,0,0,0,.94-1.43l-.86-2.74A1.11,1.11,0,0,0,262.7,192.88Z"/>
    </g>
    <g>
      <path class="cls-1" d="M251.89,199l-1,.11a1.4,1.4,0,0,1-1.49-1l-.85-2.74a1.4,1.4,0,0,1,1.17-1.8l1-.11a1.4,1.4,0,0,1,1.49,1l.85,2.74A1.4,1.4,0,0,1,251.89,199Z"/>
      <path class="cls-3" d="M250.73,199.42a1.68,1.68,0,0,1-1.6-1.18l-.85-2.74a1.68,1.68,0,0,1,1.42-2.17l1-.11a1.68,1.68,0,0,1,1.8,1.17l.85,2.74a1.68,1.68,0,0,1-1.42,2.17l-1,.11Zm.15-5.65h-.13l-1,.11a1.11,1.11,0,0,0-.94,1.43l.86,2.74a1.11,1.11,0,0,0,1.19.77l1-.11a1.11,1.11,0,0,0,.93-1.44l-.85-2.74A1.11,1.11,0,0,0,250.88,193.77Z"/>
    </g>
    <g>
      <path class="cls-1" d="M240.07,199.9l-1,.11a1.4,1.4,0,0,1-1.49-1l-.85-2.74a1.4,1.4,0,0,1,1.17-1.8l1-.11a1.4,1.4,0,0,1,1.49,1l.85,2.74A1.4,1.4,0,0,1,240.07,199.9Z"/>
      <path class="cls-3" d="M238.91,200.3a1.68,1.68,0,0,1-1.6-1.18l-.85-2.74a1.68,1.68,0,0,1,1.42-2.17l1-.11a1.69,1.69,0,0,1,1.8,1.17l.85,2.74a1.68,1.68,0,0,1-1.41,2.17l-1,.11Zm.15-5.65h-.13l-1,.11a1.11,1.11,0,0,0-.94,1.43l.86,2.74a1.11,1.11,0,0,0,1.19.77l1-.11a1.11,1.11,0,0,0,.93-1.43l-.85-2.74A1.11,1.11,0,0,0,239.06,194.65Z"/>
    </g>
    <path class="cls-3" d="M227.09,201.19a1.68,1.68,0,0,1-1.6-1.18l-.85-2.74A1.68,1.68,0,0,1,226,195.1l1-.11a1.68,1.68,0,0,1,1.8,1.17l.85,2.74a1.68,1.68,0,0,1-1.42,2.17l-1,.11Zm.15-5.65h-.13l-1,.11a1.11,1.11,0,0,0-.93,1.43l.85,2.74a1.11,1.11,0,0,0,1.19.77l1-.11a1.11,1.11,0,0,0,.94-1.43l-.86-2.74A1.11,1.11,0,0,0,227.24,195.54Z"/>
    <polygon class="cls-2" points="94.77 147.76 124.3 145.85 130.97 152.52 114.78 176.34 151.93 174.43 160.5 182.05 162.56 183.96 157 184.91 157 181.1 145.41 182.05 136.76 188.72 111.96 190.62 104.32 171.57 117.64 155.38 98.59 157.28 94.77 147.76"/>
    <path class="cls-3" d="M215.27,202.08a1.68,1.68,0,0,1-1.6-1.18l-.85-2.74a1.68,1.68,0,0,1,1.42-2.17l1-.11A1.69,1.69,0,0,1,217,197l.85,2.74a1.68,1.68,0,0,1-1.42,2.17l-1,.11Zm.15-5.65h-.13l-1,.11a1.11,1.11,0,0,0-.93,1.44l.85,2.74a1.11,1.11,0,0,0,1.19.77l1-.11a1.11,1.11,0,0,0,.94-1.43l-.86-2.74A1.11,1.11,0,0,0,215.42,196.43Z"/>
    <polygon class="cls-3" points="359.2 156.94 355.44 156.94 357.54 150.17 358.5 150.47 356.8 155.94 358.75 155.94 365.27 148.73 366.01 149.4 359.2 156.94"/>
    <path class="cls-3" d="M134.61,205.95a48.18,48.18,0,0,1-12.91-1.71l-.51-.14,24.28-21.37,11.88-1-2.93,20.51-.15.06A54.47,54.47,0,0,1,134.61,205.95Zm-12.24-2.12c15.77,4.18,30-1.32,31.54-2l2.78-19.49-11,.92Z"/>
  </g>
  <path class="cls-4" d="M258.65,141c-8.82,0-17.58-.92-24.8-3-9.87,2.57-28.33,5.64-41.72-2.39-4.5-2.7-6.75-5.84-6.69-9.32.13-7,9.34-13.16,14.94-16.26,0-3.08,1.08-6.77,3.07-11,3-6.26,15.23-14.23,26.59-15.13,7.91-.63,14.31,2.21,18.52,8.19,13.21-8.8,43.56-28.87,58.26-10.26a16.54,16.54,0,0,1,1,1.45c10.73-4.33,26.25-7.57,35-2.53a11.6,11.6,0,0,1,5.92,8.84,12.83,12.83,0,0,1-1.06,7c18-2.6,26.45,3.18,28.23,9,2.1,6.79-3.4,14.47-14,19.58-16.53,8-36.35,9.43-58.9,4.38a16.48,16.48,0,0,1-4.9,4.18C290.35,138.1,274.39,141,258.65,141Zm-24.79-3.62.08,0c20,5.86,51.85,2.58,63.94-4.22a15.9,15.9,0,0,0,4.84-4.17l.11-.14.18,0c22.5,5.06,42.26,3.62,58.71-4.3,10.33-5,15.71-12.39,13.7-18.89-1.74-5.63-10.15-11.23-28.12-8.5l-.53.08.23-.48a12.45,12.45,0,0,0,1.23-7.15,11.06,11.06,0,0,0-5.64-8.42c-8.66-5-24.13-1.67-34.75,2.66l-.22.09-.13-.21a15.76,15.76,0,0,0-1.11-1.6c-14.45-18.31-44.78,1.91-57.73,10.54l-.23.16-.16-.23c-5.16-7.54-12.73-8.6-18.16-8.18-11,.87-23.28,8.81-26.12,14.81-2,4.21-3,7.88-3,10.91v.17l-.15.08c-9.31,5.13-14.7,10.91-14.79,15.85-.06,3.26,2.1,6.23,6.41,8.82,13.25,7.95,31.6,4.86,41.36,2.31Z"/>
  <path class="cls-4" d="M98.18,304.36c-4.25,0-7.52-.41-9-1.31a1.74,1.74,0,0,1-1-2c1.48-5.92,7.27-10.1,14.12-10.21a14.75,14.75,0,0,1,1.15-2.25c2.6-4.23,13.27-7.51,19.67-6.06,2.59.59,4.12,1.9,4.45,3.8,3.65-.74,7.5-1.16,11.23-1.57l1.06-.12c4.41-.49,5.92.72,6.41,1.83.86,1.94-.78,5.08-4.29,8.2C135.86,300.11,111.93,304.36,98.18,304.36Zm21.54-21.6c-6,0-13.74,2.79-15.8,6.13a13.86,13.86,0,0,0-1.17,2.33l-.07.18h-.2c-6.68,0-12.34,4.06-13.77,9.79-.13.54.11,1,.75,1.38,6.22,3.76,44.21-1.29,52.13-8.33,3.26-2.9,4.89-5.86,4.14-7.54-.58-1.31-2.65-1.84-5.83-1.49l-1.06.12c-3.81.42-7.76.86-11.47,1.62l-.31.06,0-.31c-.24-2.28-2.34-3.22-4.06-3.62A14.84,14.84,0,0,0,119.72,282.76Z"/>
  <path class="cls-4" d="M42.77,265.29a6,6,0,0,1-5-2.06c-2.63-3.47.3-10.15,6.54-14.87s13.46-5.75,16.09-2.27a5,5,0,0,1,1,2.92c3.91-2.43,8-2.7,9.56-.59h0c.89,1.17.9,2.88,0,4.8a14.22,14.22,0,0,1-4.42,5.27c-4.21,3.19-9.09,3.86-10.88,1.5a2.62,2.62,0,0,1-.21-.33c-.54.48-1.06.92-1.58,1.31C50.11,263.79,46,265.29,42.77,265.29Zm12.6-20.73c-3.1,0-7.08,1.48-10.73,4.24-6,4.54-8.87,10.85-6.43,14.08s9.3,2.16,15.29-2.38c.6-.45,1.2-1,1.83-1.54l.3-.27.16.37a2.6,2.6,0,0,0,.31.56c1.6,2.11,6.12,1.39,10.08-1.61a13.65,13.65,0,0,0,4.25-5c.77-1.73.78-3.23,0-4.22h0c-1.47-1.94-5.44-1.51-9.24,1l-.47.31,0-.56a4.63,4.63,0,0,0-.85-3.08A5.48,5.48,0,0,0,55.37,244.57Z"/>
  <path class="cls-4" d="M439,319.35a34.59,34.59,0,0,1-4-.22c-9.84.1-20.71-.09-32.25-.58-5-.21-8.77-1.29-11.31-3.22-4-2.26-6.71-6.39-8-12.24s3-14.82,10.62-22.46c6.8-6.8,17.43-13.32,26.87-11.22,5,1.11,8.54,3.41,10.56,6.85,13-13.32,31-18.74,44.73-13.5,6.15,2.34,9.55,7.55,9.62,14.68a55.2,55.2,0,0,1,6.52.55h0c5.44.86,8.79,3.54,9.67,7.74,1.78,8.46-6.62,20.56-15.27,26.12-6.18,4-20.26,6.35-41.86,7.08A42.31,42.31,0,0,1,439,319.35Zm-3.95-.79a38.57,38.57,0,0,0,9.8-.21c21.53-.73,35.51-3.08,41.6-7,8.5-5.46,16.76-17.29,15-25.53-.83-4-4-6.47-9.2-7.29a55.71,55.71,0,0,0-6.72-.55h-.28v-.28c0-5-1.58-11.5-9.25-14.42-13.63-5.2-31.47.29-44.38,13.64l-.27.28-.19-.34c-1.9-3.47-5.39-5.79-10.37-6.9-9.22-2-19.65,4.38-26.34,11.07C387,288.54,382.77,297.36,384,303s3.88,9.69,7.77,11.89c2.47,1.88,6.17,2.92,11,3.13C414.34,318.47,425.19,318.66,435.06,318.56Z"/>
</svg>
