<svg id="Layer_1" data-name="Layer 1" xmlns="http://www.w3.org/2000/svg" xmlns:xlink="http://www.w3.org/1999/xlink" width="410" height="410" viewBox="0 0 410 410">
  <defs>
    <style>
      .cls-1, .cls-9 {
        fill: none;
      }

      .cls-2 {
        clip-path: url(#clip-path);
      }

      .cls-3 {
        fill: #f2665f;
      }

      .cls-4 {
        fill: url(#radial-gradient);
      }

      .cls-5 {
        fill: url(#radial-gradient-2);
      }

      .cls-6 {
        fill: url(#radial-gradient-3);
      }

      .cls-7 {
        fill: url(#radial-gradient-4);
      }

      .cls-8 {
        fill: url(#radial-gradient-5);
      }

      .cls-9 {
        stroke: #fff;
        stroke-miterlimit: 10;
      }

      .cls-10 {
        fill: #e74c3c;
      }

      .cls-11 {
        fill: url(#radial-gradient-6);
      }
    </style>
    <clipPath id="clip-path">
      <circle class="cls-1" cx="205" cy="205" r="205"/>
    </clipPath>
    <radialGradient id="radial-gradient" cx="188.31" cy="226.09" r="9.54" gradientUnits="userSpaceOnUse">
      <stop offset="0" stop-color="#e4e9ea"/>
      <stop offset="0.43" stop-color="#e2e6e7"/>
      <stop offset="0.63" stop-color="#dde1e2"/>
      <stop offset="1" stop-color="#d9dcdd"/>
    </radialGradient>
    <radialGradient id="radial-gradient-2" cx="206.96" cy="224.75" r="9.21" xlink:href="#radial-gradient"/>
    <radialGradient id="radial-gradient-3" cx="226.46" cy="223.27" r="10.39" xlink:href="#radial-gradient"/>
    <radialGradient id="radial-gradient-4" cx="249.31" cy="221.57" r="10.54" xlink:href="#radial-gradient"/>
    <radialGradient id="radial-gradient-5" cx="267.89" cy="219.9" r="9.05" xlink:href="#radial-gradient"/>
    <radialGradient id="radial-gradient-6" cx="76.5" cy="193.5" r="30.1" xlink:href="#radial-gradient"/>
  </defs>
  <title>present-main-2</title>
  <g class="cls-2">
    <rect class="cls-3" width="410" height="410"/>
    <g>
      <g>
        <path class="cls-4" d="M182.21,233.69l2.34-4.27a6.17,6.17,0,0,0,4.42,1.64c1.19-.09,2.18-.57,1.74-1.69s-1.48-1.34-3-1.22l-1.68.13-.93-4.38,1.89-.14c1.27-.09,2.28-.44,1.86-1.53a2.11,2.11,0,0,0-2.3-1.06,4.41,4.41,0,0,0-3.13,1.68l-4.1-3.57c1.45-1.83,3.42-2.93,6.76-3.18,4.17-.31,7.11,1.22,8.26,4.19.94,2.41-.11,4.46-1.7,5l0,.11a6.15,6.15,0,0,1,4.2,3.81c1.71,4.4-1.68,6.6-5.53,6.88S184.62,235.56,182.21,233.69Z"/>
        <path class="cls-5" d="M198.56,215.68l12-.89,1.11,5.19-6.34.47.39,1.83,6.06-.45,1,4.84-6.06.45.43,2,7.1-.53,1.11,5.19-12.74.95Z"/>
        <path class="cls-6" d="M215.83,214.4l6-.44,1.39,6.53,5.23-.39L227,213.56l6-.45,4.06,19-6,.45-1.56-7.31-5.23.39,1.56,7.31-6,.45Z"/>
        <path class="cls-7" d="M238.41,212.72l5.72-.43,2.2,10.18h.1l3.42-10.6,6.27-.47,4.08,19-5.72.43-2.06-9.62h-.1l-3.28,10-6.55.49Z"/>
        <path class="cls-8" d="M265.51,216l-4.64.35-1.1-5.24L274.9,210l1.1,5.24-4.48.33,3,13.79-6,.45Z"/>
      </g>
      <g>
        <path class="cls-3" d="M295,242.5c-4,3-10,3-16,4s-35-.75-35-.75c10-8,26-20.12,26-20.12l47-51.06-1-3-5-3,3-.76L325,173h3l5,3.5-23,46s25,1,29,2"/>
        <path class="cls-9" d="M295,242c-4,3-10,3-16,4s-35-.75-35-.75c10-8,26-20.12,26-20.12l47-51.06-1-3-5-3,3-.76,11,5.24h3l5,3.5-23,46s25,1,29,2"/>
      </g>
      <path class="cls-9" d="M319.75,203.5c6-1,24.13-1.25,29.13-1.25s19.06-.12,30.06,6.88,17,11.94,20,14.94,4,10-1,15-39,13-53,13-44,2-57,3c-13,5-16,6-25,7s-56,6-62,7c-4-2-123,7-123,7l-5,5-3,1,1-4.75-5-6.75h2l8,3.5,81-12s-74-8-115-25c-2-3-.86-6.76,1-8,3-2,11-5,19-6-6-14-29-73-29-73s11-1,14-1,7,2,12,8,38,40,42,44,12,15,27,14,146-9,159-10"/>
      <path class="cls-9" d="M340,224c-8-.8-34,4-41,7-5.81,2.49-5,12-3,15s11,5,21,5,25,0,29-4C350.53,242.47,350,225,340,224Z"/>
      <ellipse class="cls-9" cx="298.5" cy="241" rx="3" ry="7.5"/>
      <path class="cls-9" d="M304,230c4,0,6,4,6,9s0,11-5,11"/>
      <path class="cls-9" d="M288,255c-12,1-84,8-131,7"/>
      <path class="cls-9" d="M264,262c3,7,2,15-1,18s-22,6-32,5l-20-2"/>
      <ellipse class="cls-9" cx="212" cy="276" rx="4.5" ry="7.5"/>
      <path class="cls-9" d="M223,267c4,5,2,17-2,17"/>
      <ellipse class="cls-9" cx="43" cy="233.5" rx="1.5" ry="4"/>
      <polyline class="cls-9" points="47 239 7 246 16 247 53 242"/>
      <polyline class="cls-9" points="383 211.5 378 211.5 381 216.5 390 216.5"/>
      <path class="cls-9" d="M357.24,217.2l-1.05.12a1.47,1.47,0,0,1-1.57-1l-.9-2.88a1.47,1.47,0,0,1,1.23-1.89l1.05-.12a1.47,1.47,0,0,1,1.57,1l.9,2.88A1.47,1.47,0,0,1,357.24,217.2Z"/>
      <path class="cls-9" d="M346.7,217.8l-1.05.12a1.47,1.47,0,0,1-1.57-1l-.9-2.88a1.47,1.47,0,0,1,1.23-1.89l1.05-.12a1.47,1.47,0,0,1,1.57,1l.9,2.88A1.47,1.47,0,0,1,346.7,217.8Z"/>
      <path class="cls-9" d="M336.16,218.4l-1.05.12a1.47,1.47,0,0,1-1.57-1l-.9-2.88a1.47,1.47,0,0,1,1.23-1.89l1.05-.12a1.47,1.47,0,0,1,1.57,1l.9,2.88A1.47,1.47,0,0,1,336.16,218.4Z"/>
      <path class="cls-9" d="M325.62,219l-1.05.12a1.47,1.47,0,0,1-1.57-1l-.9-2.88a1.47,1.47,0,0,1,1.23-1.89l1.05-.12a1.47,1.47,0,0,1,1.57,1l.9,2.88A1.47,1.47,0,0,1,325.62,219Z"/>
      <path class="cls-9" d="M313.85,213.81a1.47,1.47,0,0,1,1.57,1l.9,2.88a1.47,1.47,0,0,1-1.23,1.89l-1.05.12a1.47,1.47,0,0,1-1.57-1"/>
      <g>
        <path class="cls-10" d="M272.58,222.8l-1.05.12a1.47,1.47,0,0,1-1.57-1l-.9-2.88a1.47,1.47,0,0,1,1.23-1.89l1.05-.12a1.47,1.47,0,0,1,1.57,1l.9,2.88A1.47,1.47,0,0,1,272.58,222.8Z"/>
        <path class="cls-9" d="M272.58,222.8l-1.05.12a1.47,1.47,0,0,1-1.57-1l-.9-2.88a1.47,1.47,0,0,1,1.23-1.89l1.05-.12a1.47,1.47,0,0,1,1.57,1l.9,2.88A1.47,1.47,0,0,1,272.58,222.8Z"/>
      </g>
      <g>
        <path class="cls-10" d="M261.66,222.77l-1.05.12a1.47,1.47,0,0,1-1.57-1l-.9-2.88a1.47,1.47,0,0,1,1.23-1.89l1.05-.12a1.47,1.47,0,0,1,1.57,1l.9,2.88A1.47,1.47,0,0,1,261.66,222.77Z"/>
        <path class="cls-9" d="M261.66,222.77l-1.05.12a1.47,1.47,0,0,1-1.57-1l-.9-2.88a1.47,1.47,0,0,1,1.23-1.89l1.05-.12a1.47,1.47,0,0,1,1.57,1l.9,2.88A1.47,1.47,0,0,1,261.66,222.77Z"/>
      </g>
      <g>
        <path class="cls-10" d="M250.75,222.74l-1.05.12a1.47,1.47,0,0,1-1.57-1l-.9-2.88a1.47,1.47,0,0,1,1.23-1.89l1.05-.12a1.47,1.47,0,0,1,1.57,1l.9,2.88A1.47,1.47,0,0,1,250.75,222.74Z"/>
        <path class="cls-9" d="M250.75,222.74l-1.05.12a1.47,1.47,0,0,1-1.57-1l-.9-2.88a1.47,1.47,0,0,1,1.23-1.89l1.05-.12a1.47,1.47,0,0,1,1.57,1l.9,2.88A1.47,1.47,0,0,1,250.75,222.74Z"/>
      </g>
      <g>
        <path class="cls-10" d="M239.83,223.8l-1.05.12a1.47,1.47,0,0,1-1.57-1l-.9-2.88a1.47,1.47,0,0,1,1.23-1.89l1.05-.12a1.47,1.47,0,0,1,1.57,1l.9,2.88A1.47,1.47,0,0,1,239.83,223.8Z"/>
        <path class="cls-9" d="M239.83,223.8l-1.05.12a1.47,1.47,0,0,1-1.57-1l-.9-2.88a1.47,1.47,0,0,1,1.23-1.89l1.05-.12a1.47,1.47,0,0,1,1.57,1l.9,2.88A1.47,1.47,0,0,1,239.83,223.8Z"/>
      </g>
      <g>
        <path class="cls-10" d="M228.91,223.8l-1.05.12a1.47,1.47,0,0,1-1.57-1l-.9-2.88a1.47,1.47,0,0,1,1.23-1.89l1.05-.12a1.47,1.47,0,0,1,1.57,1l.9,2.88A1.47,1.47,0,0,1,228.91,223.8Z"/>
        <path class="cls-9" d="M228.91,223.8l-1.05.12a1.47,1.47,0,0,1-1.57-1l-.9-2.88a1.47,1.47,0,0,1,1.23-1.89l1.05-.12a1.47,1.47,0,0,1,1.57,1l.9,2.88A1.47,1.47,0,0,1,228.91,223.8Z"/>
      </g>
      <g>
        <path class="cls-10" d="M218,224.87l-1.05.12a1.47,1.47,0,0,1-1.57-1l-.9-2.88a1.47,1.47,0,0,1,1.23-1.89l1.05-.12a1.47,1.47,0,0,1,1.57,1l.9,2.88A1.47,1.47,0,0,1,218,224.87Z"/>
        <path class="cls-9" d="M218,224.87l-1.05.12a1.47,1.47,0,0,1-1.57-1l-.9-2.88a1.47,1.47,0,0,1,1.23-1.89l1.05-.12a1.47,1.47,0,0,1,1.57,1l.9,2.88A1.47,1.47,0,0,1,218,224.87Z"/>
      </g>
      <g>
        <path class="cls-10" d="M205.58,225.8l-1.05.12a1.47,1.47,0,0,1-1.57-1l-.9-2.88a1.47,1.47,0,0,1,1.23-1.89l1.05-.12a1.47,1.47,0,0,1,1.57,1l.9,2.88A1.47,1.47,0,0,1,205.58,225.8Z"/>
        <path class="cls-9" d="M205.58,225.8l-1.05.12a1.47,1.47,0,0,1-1.57-1l-.9-2.88a1.47,1.47,0,0,1,1.23-1.89l1.05-.12a1.47,1.47,0,0,1,1.57,1l.9,2.88A1.47,1.47,0,0,1,205.58,225.8Z"/>
      </g>
      <g>
        <path class="cls-10" d="M193.17,226.73l-1.05.12a1.47,1.47,0,0,1-1.57-1l-.9-2.88a1.47,1.47,0,0,1,1.23-1.89l1.05-.12a1.47,1.47,0,0,1,1.57,1l.9,2.88A1.47,1.47,0,0,1,193.17,226.73Z"/>
        <path class="cls-9" d="M193.17,226.73l-1.05.12a1.47,1.47,0,0,1-1.57-1l-.9-2.88a1.47,1.47,0,0,1,1.23-1.89l1.05-.12a1.47,1.47,0,0,1,1.57,1l.9,2.88A1.47,1.47,0,0,1,193.17,226.73Z"/>
      </g>
      <path class="cls-9" d="M180.77,227.66l-1.05.12a1.47,1.47,0,0,1-1.57-1l-.9-2.88a1.47,1.47,0,0,1,1.23-1.89l1.05-.12a1.47,1.47,0,0,1,1.57,1l.9,2.88A1.47,1.47,0,0,1,180.77,227.66Z"/>
      <polygon class="cls-11" points="41 172 72 170 79 177 62 202 101 200 110 208 112 210 106 211 106 207 94 208 85 215 59 217 51 197 65 180 45 182 41 172"/>
      <path class="cls-9" d="M168.36,228.6l-1.05.12a1.47,1.47,0,0,1-1.57-1l-.9-2.88a1.47,1.47,0,0,1,1.23-1.89l1.05-.12a1.47,1.47,0,0,1,1.57,1l.9,2.88A1.47,1.47,0,0,1,168.36,228.6Z"/>
      <polyline class="cls-9" points="317 174.31 315 180.5 318 180.5 325 172.88"/>
      <path class="cls-9" d="M69,231l25-22,12-1-3,21S87,236,69,231Z"/>
    </g>
  </g>
</svg>
