<svg id="Layer_1" data-name="Layer 1" xmlns="http://www.w3.org/2000/svg" width="347" height="217" viewBox="0 0 347 217">
  <defs>
    <style>
      .cls-1 { fill: none; } .cls-2 { fill: #1e1e20; } .cls-3 { fill: #e4e9ea; }
    </style>
  </defs>
  <title>
    ticket-prediction
  </title>
  <path class="cls-1" d="M215.95 35.19L222.67 4h-10.96l-8.51 39.52 12.75-8.33zM200.83 45.04L209.67 4h-10.96l-5.86 27.22 7.98 13.82zM191.03 30.15L196.67 4h-10.96l-7.19 33.37 12.51-7.22zM154.59 29.63l7.69 13.32L170.67 4h-10.96l-5.58 25.9.46-.27zM163.93 45.8l12.26-7.08L183.67 4h-10.96l-8.94 41.52.16.28zM258.46 53.92l6.35-4.15L274.67 4h-10.96l-9.56 44.39 4.31 5.53zM274.35 43.53l3.61 5.52L287.67 4h-10.96l-9.52 44.21 7.16-4.68zM151.8 31.25L157.67 4h-10.96l-7.42 34.47 12.51-7.22zM226.54 46.36L235.67 4h-10.96l-6.41 29.75 8.24 12.61zM244.84 49.38l6.27-4.89 1.44 1.84L261.67 4h-10.96L242 44.46l2.84 4.92zM46.26 49.67l11.41-3.92 9-41.75H55.71L10.69 213h10.95L52.75 68.58l-6.49-18.91zM71.71 40.92L79.67 4H68.71l-8.83 40.99 11.83-4.07zM130.47 20.73l6.51 18.95L144.67 4h-10.96l-3.63 16.86.39-.13zM75.77 152.26L62.69 213h10.95l10.11-46.92-7.98-13.82zM73.07 147.58l1.9-1.1 5.32-24.68-12.51 7.23L49.69 213h10.95l13.64-63.32-1.21-2.1zM63.63 131.42l-6.82-11.82L36.69 213h10.95l17.8-82.62-1.81 1.04zM287.48 63.62l-12.35 8.07-5.67 26.32 12.51-7.22L300.67 4h-10.96L279.5 51.41l7.98 12.21zM127.87 21.62L131.67 4h-10.96l-4.67 21.69 11.83-4.07zM85.75 36.1L92.67 4H81.71l-7.79 36.16 11.83-4.06zM113.83 26.45L118.67 4h-10.96L102 30.51l11.83-4.06zM99.79 31.27L105.67 4H94.71l-6.75 31.34 11.83-4.07zM51.63 110.63l5.78-3.33 8.4-38.97-11.76 4.04-.04-.13L23.68 213h10.96l20.68-95.98-3.69-6.39zM244.87 91.47l-.03.15 12.09-6.99.27.46.42-1.95-12.75 8.33zM42.71 4L4 183.69V208a5 5 0 0 0 4.65 5l45-209zM302.01 118.43l2.83-13.13-8.93 5.16 6.1 7.97zM119.57 49.85l-9.43 3.24-.55 2.52 9.98-5.76zM260 81.58l-1.31 6.09 7.17 12.42 1.26-.73 5.63-26.11L260 81.58zM107.26 56.96l.67-3.11-11.83 4.07-1.35 6.26 12.51-7.22zM9 4a5 5 0 0 0-5 5v44.52L14.67 4zM16.71 4L4 63.01v50.85L27.67 4H16.71zM29.71 4L4 123.35v50.85L40.67 4H29.71zM86.81 90.33l-7.79-13.49-4.42 20.54 12.21-7.05zM272.87 123.76l-10.23 5.9-.5 2.32 10.73-8.22zM259.69 133.86l.61-2.85-12.51 7.23-1.22 5.67 13.12-10.05zM244.12 145.79l1.34-6.21-12.51 7.23-1.95 9.04 13.12-10.06zM127.72 159.23l-1.09-1.67-.57 2.63 1.66-.96zM305.39 102.74L326.67 4h-10.96l-18.29 84.92 7.97 13.82zM89.82 137.91l.75-3.48-7.93-12.14 12.27-8.01.22-1.05-12.51 7.22-5.31 24.68 12.51-7.22zM294.37 83.63l1.56 2.71L313.67 4h-10.96l-18.4 85.44 10.06-5.81zM92.41 65.53l1.48-6.85-11.83 4.06-2.16 10.01 12.51-7.22zM72.26 98.72l5.27-24.46-.06-.1.09-.06 2.29-10.6-11.83 4.07-8.27 38.38 12.51-7.23zM106.93 106.42l-9.46 5.46-.18.84 9.64-6.3zM228.09 48.72l12.28-7.09.14.25L248.67 4h-10.96l-9.63 44.72h.01zM148.94 174.7l-8.25 38.3h10.95l9.81-45.53-12.51 7.23zM215.96 167.38l12.59-9.65 2.06-9.57-12.51 7.22L205.69 213h10.95l7.52-34.92-8.2-10.7zM269.91 156.26L257.69 213h10.95l14.39-66.79-13.12 10.05zM163.78 166.13L153.69 213h10.95l11.65-54.1-12.51 7.23zM343 118.71L322.69 213h10.95l9.36-43.45v-50.84zM134.09 183.27l-6.4 29.73h10.95l7.96-36.96-12.51 7.23zM179.33 157.15l-.7.4L166.69 213h10.95l9.22-42.8-7.53-13.05zM338 4h-9.29l-25.1 116.51 4.79 6.25-7.35 5.63L283.69 213h11l45-208.71A5 5 0 0 0 338 4zM285.48 144.33L270.69 213h10.95l16.96-78.73-13.12 10.06zM343 9a5 5 0 0 0-1.58-3.63L296.69 213h11L343 48.87zM188.41 172.52L179.69 213h10.95l10.28-47.7-12.51 7.22zM128.63 186.42l-5.98-10.37-7.96 36.95h10.95l6.11-28.38-3.12 1.8zM203.25 163.95L192.69 213h10.95l12.12-56.27-12.51 7.22zM343 58.37L309.69 213h10.95L343 109.22V58.37zM230.56 186.42l-4.8-6.26-7.07 32.84h10.95l6.68-30.99-5.76 4.41zM335.69 213H338a5 5 0 0 0 5-5v-29zM116.63 165.63l7.1-4.09 1.36-6.34-4.72-7.22-5.34 3.09L101.69 213h10.95l8.52-39.53-4.53-7.84zM238.77 180.13L231.69 213h10.95l9.25-42.92-13.12 10.05zM85.33 168.21L75.69 213h10.95l11.2-52.01-12.51 7.22zM100.18 159.64L88.69 213h10.95l13.05-60.58-12.51 7.22zM254.34 168.2l-9.65 44.8h10.95l11.82-54.86-13.12 10.06z"/>
  <path class="cls-2" d="M347 208V9a9 9 0 0 0-9-9H9a9 9 0 0 0-9 9v199a9 9 0 0 0 9 9h329a9 9 0 0 0 9-9zm-9 5H8.65A5 5 0 0 1 4 208V9a5 5 0 0 1 5-5h329a5 5 0 0 1 5 5v199a5 5 0 0 1-5 5z"/>
  <path class="cls-2" d="M343 169.55L333.64 213h2.05l7.31-33.95v-9.5zM343 109.22L320.64 213h2.05L343 118.71v-9.49zM343 48.88L307.64 213h2.05L343 58.37v-9.49zM339.61 4.29L294.64 213h2L341.42 5.37a5 5 0 0 0-1.81-1.08zM298.6 134.27L281.64 213h2.05l17.36-80.6-2.45 1.87zM306.37 104.42l-1.53.88-2.83 13.13 1.6 2.08L328.71 4h-2.04l-21.28 98.74.98 1.68zM283.03 146.21L268.64 213h2.05l14.79-68.67-2.45 1.88zM297.42 88.92L315.71 4h-2.04l-17.74 82.34 1.49 2.58zM267.46 158.14L255.64 213h2.05l12.22-56.74-2.45 1.88zM284.31 89.44L302.71 4h-2.04l-18.7 86.79 2.34-1.35zM279.5 51.41L289.71 4h-2.04l-9.71 45.05 1.54 2.36zM262.14 131.98l.5-2.32-2.34 1.35-.61 2.85 2.45-1.88zM267.12 99.36l2.34-1.35 5.67-26.32-2.38 1.56-5.63 26.11zM251.89 170.08L242.64 213h2.05l9.65-44.8-2.45 1.88zM246.57 143.91l1.22-5.67-2.33 1.34-1.34 6.21 2.45-1.88zM267.19 48.21L276.71 4h-2.04l-9.86 45.77 2.38-1.56zM257.62 83.14l-.42 1.95 1.49 2.58 1.31-6.09-2.38 1.56zM236.32 182.01L229.64 213h2.05l7.08-32.87-2.45 1.88zM254.15 48.39L263.71 4h-2.04l-9.12 42.33 1.6 2.06zM243.15 92.59l1.69-.97.03-.15-1.72 1.12zM232.95 146.81l-2.34 1.35-2.06 9.57 2.45-1.88 1.95-9.04zM224.16 178.08L216.64 213h2.05l7.07-32.84-1.6-2.08zM215.76 156.73L203.64 213h2.05l12.41-57.62-2.34 1.35zM242 44.46L250.71 4h-2.04l-8.16 37.88 1.49 2.58zM200.92 165.3L190.64 213h2.05l10.56-49.05-2.33 1.35zM228.08 48.72L237.71 4h-2.04l-9.13 42.36 1.54 2.36zM188.25 172.61l-1.39-2.41-9.22 42.8h2.05l8.72-40.48-.16.09zM218.26 33.68l.04.07L224.71 4h-2.04l-6.72 31.19 2.31-1.51zM200.84 45.06l2.36-1.54L211.71 4h-2.04l-8.84 41.04.01.02zM176.29 158.9L164.64 213h2.05l11.94-55.45-2.34 1.35zM191.93 29.63l.92 1.59L198.71 4h-2.04l-5.64 26.15.9-.52zM161.45 167.47L151.64 213h2.05l10.09-46.87-2.33 1.34zM146.6 176.04L138.64 213h2.05l8.25-38.3-2.34 1.34zM178.52 37.37L185.71 4h-2.04l-7.48 34.72 2.33-1.35zM163.77 45.52L172.71 4h-2.04l-8.39 38.95 1.49 2.57zM131.75 184.62L125.64 213h2.05l6.4-29.73-2.34 1.35zM126.63 157.56l-1.54-2.36-1.36 6.34 2.33-1.35.57-2.63zM121.16 173.47L112.64 213h2.05l7.96-36.95-1.49-2.58zM154.13 29.9L159.71 4h-2.04l-5.87 27.25 2.33-1.35zM112.69 152.42L99.64 213h2.05l13.34-61.93-2.34 1.35zM137.02 39.78l2.27-1.31L146.71 4h-2.04l-7.69 35.68.04.1zM130.08 20.86L133.71 4h-2.04l-3.8 17.62 2.21-.76zM97.84 160.99L86.64 213h2.05l11.49-53.36-2.34 1.35zM85.07 168.37l-1.32-2.29L73.64 213h2.05l9.64-44.79-.26.16zM109.59 55.61l.55-2.52-2.21.76-.67 3.11 2.33-1.35zM116.04 25.69L120.71 4h-2.04l-4.84 22.45 2.21-.76zM97.29 112.72l.18-.84-2.34 1.35-.22 1.05 2.38-1.56zM92.02 136.64l-1.45-2.21-.75 3.48 2.2-1.27zM74.28 149.68L60.64 213h2.05l13.08-60.74-1.49-2.58zM94.75 64.18l1.35-6.26-2.21.76-1.48 6.85 2.34-1.35zM102 30.51L107.71 4h-2.04l-5.88 27.27 2.21-.76zM82.62 120.45l-2.33 1.35-5.32 24.68 2.34-1.35 5.31-24.68zM65.44 130.38L47.64 213h2.05l18.09-83.97-2.34 1.35zM79.9 72.75l2.16-10.01-2.21.76-2.29 10.6 2.34-1.35zM74.6 97.38l4.42-20.54-1.49-2.58-5.27 24.46 2.34-1.34zM87.96 35.34L94.71 4h-2.04l-6.92 32.1 2.21-.76zM68.02 67.57l-2.21.76-8.4 38.97 2.34-1.35 8.27-38.38zM73.92 40.16L81.71 4h-2.04l-7.96 36.92 2.21-.76zM55.32 117.02L34.64 213h2.05l20.12-93.4-1.49-2.58zM59.88 44.99L68.71 4h-2.04l-9 41.75 2.21-.76zM52.75 68.58L21.64 213h2.04L54.01 72.24l-1.26-3.66zM53.67 4l-45 209h2.04l45-209zM40.67 4L4 174.2v9.49L42.71 4h-2.04zM27.67 4L4 113.86v9.49L29.71 4h-2.04zM14.67 4L4 53.52v9.49L16.71 4h-2.04z"/>
  <path class="cls-3" d="M218.77 167.75l12.17 15.87 74.67-57.23-12.67-16.53 10.7-6.18-10-17.32-28.51 16.46-8.93-15.45-29.85 17.23c-.55 12.82-4.82 25.64-17.64 25.64-13.9 0-17.71-14.91-17.71-28.66s3.81-28.81 17.71-28.81c13.68 0 17.62 14.67 17.71 28.37L284.71 63l-10.94-16.7L258 56.6l-7.25-9.3-6.51 5.07-4.62-8-12.19 7-9.77-15-17.5 11.52-9-15.53-28 16.17-9.33-16.17-17.91 10.37-6.69-19.46L48.8 50.91l6.5 18.91 73.41-25.22.83 1.81L80.2 74.89l9.34 16.17-35.17 20.31 10 17.32 73-42.12 1 1.7-53 34.6 9.44 14.45-19 11 10 17.32L121 145.3l9.54 14.6-11.19 6.46 10 17.32 50.69-29.27 8.96 15.47 96.15-55.51 1.11 1.66zM140 130.24q-11.53 0-16.54-10.25l3.65-1.86c2.64 5.44 7.15 8.31 12.89 8.31 7.15 0 12.66-4.89 12.66-12.43 0-8.7-7.69-12-14.68-12h-2.28v-3.77h2.3c6.91 0 13-3.11 13-10.87 0-6.52-5-10.87-11.18-10.87-4.58 0-7.92 1.86-10.79 6.21l-3.34-2.17c3.34-5.28 8-7.77 14.29-7.77 8.39 0 15.38 5.2 15.38 14.37A12.64 12.64 0 0 1 145.25 100v.16c7.22 1.4 11.8 6.76 11.8 13.9.01 9.66-7.14 16.18-17.05 16.18zm35-30.68a3.48 3.48 0 0 1-3.5-3.5 3.5 3.5 0 1 1 7 0 3.48 3.48 0 0 1-3.5 3.5zm-3.5 26.33a3.5 3.5 0 1 1 3.5 3.57 3.53 3.53 0 0 1-3.5-3.57z"/>
  <path class="cls-3" d="M208.7 76.57c-11 0-13.28 14.83-13.28 25s2.25 24.85 13.28 24.85c9 0 12.19-10 13-19.17l-9 5.18-1-1.7 10.22-6.68v-2.48c.08-10.16-2.27-25-13.22-25z"/>
  <path class="cls-2" d="M295.91 110.46l8.94-5.16 1.52-.88-1-1.68-8-13.82-1.49-2.58-1.56-2.71-10.06 5.81-2.26 1.35L269.46 98l-2.34 1.35-1.27.73-7.17-12.42-1.49-2.58-.27-.46-12.09 7-1.69 1 1.72-1.13 12.75-8.33 2.39-1.58 12.75-8.33 2.38-1.56 12.35-8.07-8-12.22-1.48-2.35-3.61-5.52-7.17 4.68-2.38 1.56-6.35 4.15-4.31-5.53-1.6-2.06-1.44-1.84-6.27 4.89-2.87-4.92-1.49-2.58-.14-.24-12.28 7.09-1.54-2.35-8.25-12.63v-.07l-2.31 1.51-12.79 8.33-2.36 1.54-8-13.82-.92-1.59-.9.52-12.51 7.22-2.34 1.35-12.24 7.06-.16-.28-1.49-2.58-7.68-13.31-.46.26-2.34 1.35-12.51 7.22-2.29 1.32v-.1l-6.51-18.95-.39.13-2.21.76L116 25.69l-2.21.76L102 30.51l-2.21.76L88 35.34l-2.21.76-11.87 4.06-2.21.76L59.88 45l-2.21.76-11.41 3.91 6.5 18.91L54 72.24v.13l11.75-4 2.25-.8 11.85-4.07 2.21-.76 11.83-4.07 2.21-.76 11.83-4.07 2.21-.76 9.43-3.24-10 5.76-2.31 1.4-12.51 7.18-2.34 1.35-12.51 7.23-2.34 1.34-.09.05.06.1L79 76.84l7.79 13.49-12.19 7.05-2.34 1.35-12.51 7.22-2.34 1.35-5.78 3.34 3.69 6.36 1.49 2.58 6.83 11.82 1.81-1 2.33-1.4 12.51-7.22 2.34-1.35 12.51-7.22 2.34-1.35 9.46-5.46-9.64 6.3-2.38 1.56-12.27 8 7.93 12.13 1.42 2.25-2.2 1.27-12.51 7.22-2.29 1.35-1.9 1.1 1.21 2.1 1.49 2.58 8 13.82 1.32 2.29.27-.15L97.85 161l2.34-1.35 12.51-7.22 2.34-1.35 5.35-3.09 4.72 7.22 1.54 2.35 1.09 1.67-1.66 1-2.34 1.35-7.09 4.09 4.52 7.83 1.49 2.58 6 10.37 3.12-1.8 2.34-1.35 12.48-7.3 2.34-1.35 12.51-7.22 2.34-1.35 12.51-7.22 2.34-1.35.7-.4 7.53 13 1.39 2.41.15-.09 12.51-7.22 2.34-1.35 12.51-7.22 2.34-1.35 12.51-7.22 2.34-1.35 12.51-7.22 2.34-1.35L260.3 131l2.34-1.35 10.23-5.9-10.73 8.25-2.45 1.88-13.12 10.06-2.45 1.88L231 155.85l-2.45 1.88-12.55 9.65 8.2 10.7 1.6 2.08 4.8 6.26 5.76-4.41 2.45-1.88 13.12-10.06 2.45-1.88 13.12-10.06 2.45-1.88L283 146.21l2.45-1.88 13.12-10.06 2.45-1.88 7.35-5.63-4.79-6.25-1.6-2.08zm-9.67 5.54l-1.11-1.66L189 169.88l-8.93-15.46-50.69 29.27-10-17.32 11.19-6.46L121 145.3l-35.2 20.33-10-17.32 19-11-9.44-14.45 53-34.6-1-1.7-73 42.12-10-17.32 35.18-20.3-9.34-16.17 49.33-28.48-.83-1.81-73.4 25.23-6.5-18.92 80.43-27.64 6.69 19.46 17.94-10.36 9.33 16.17 28-16.17 9 15.53 17.51-11.44 9.77 15 12.19-7 4.62 8 6.51-5.07L258 56.6l15.76-10.3L284.71 63l-58.31 38.1v.44c0 1 0 2-.07 3l29.87-17.17 8.93 15.46 28.51-16.46 10 17.32-10.7 6.18 12.67 16.53-74.67 57.23-12.17-15.87z"/>
  <path class="cls-2" d="M211.72 110.74l1 1.7 9-5.18c.1-1.09.17-2.16.21-3.2zM157.06 114c0-7.14-4.58-12.5-11.8-13.9v-.1a12.64 12.64 0 0 0 10.1-12.81c0-9.17-7-14.37-15.38-14.37-6.29 0-11 2.49-14.29 7.77l3.31 2.12c2.87-4.35 6.21-6.21 10.79-6.21C146 76.5 151 80.85 151 87.37c0 7.77-6.14 10.87-13 10.87h-2.3V102h2.3c7 0 14.68 3.26 14.68 12 0 7.53-5.51 12.43-12.66 12.43-5.75 0-10.25-2.87-12.89-8.31l-3.7 1.88q5 10.25 16.54 10.25c9.94-.01 17.09-6.53 17.09-16.25zM178.49 125.89a3.5 3.5 0 1 0-3.5 3.57 3.53 3.53 0 0 0 3.5-3.57zM178.49 96.07a3.5 3.5 0 1 0-7 0 3.5 3.5 0 0 0 7 0z"/>
  <path class="cls-2" d="M208.7 72.77c-13.9 0-17.71 15-17.71 28.81s3.81 28.66 17.71 28.66c12.82 0 17.09-12.82 17.64-25.64 0-1 .07-2 .07-3v-.44c-.08-13.72-4.03-28.39-17.71-28.39zm13.23 31.29c0 1-.11 2.12-.21 3.2-.84 9.17-4 19.17-13 19.17-11 0-13.28-14.76-13.28-24.85s2.25-25 13.28-25 13.28 14.83 13.28 25c0 .8 0 1.63-.06 2.48z"/>
</svg>