<svg id="Layer_1" data-name="Layer 1" xmlns="http://www.w3.org/2000/svg" width="447" height="229" viewBox="0 0 447 229">
  <defs>
    <style>
      .cls-1 {
        fill: #fff;
      }

      .cls-2 {
        fill: #f23c00;
      }
    </style>
  </defs>
  <title>ticket-scan</title>
  <path class="cls-1" d="M897,274a4.77,4.77,0,0,1,5,4.73V490a5,5,0,0,1-5,5H808.36a3.53,3.53,0,1,0-7.06,0H563.7a3.53,3.53,0,0,0-7.06,0H468a5,5,0,0,1-5-5V278.73a4.77,4.77,0,0,1,5-4.73h88.66a3.51,3.51,0,0,0,7,0H801.3a3.53,3.53,0,1,0,7.06,0H897m-92.17,23.37a3.53,3.53,0,1,0-3.53-3.53,3.53,3.53,0,0,0,3.53,3.53m-244.67,0a3.53,3.53,0,1,0-3.53-3.53,3.53,3.53,0,0,0,3.53,3.53m244.67,20.12A3.53,3.53,0,1,0,801.3,314a3.53,3.53,0,0,0,3.53,3.53m-244.67,0a3.53,3.53,0,1,0-3.53-3.53,3.53,3.53,0,0,0,3.53,3.53m244.67,20.12a3.53,3.53,0,1,0-3.53-3.53,3.53,3.53,0,0,0,3.53,3.53m-244.67,0a3.53,3.53,0,1,0-3.53-3.53,3.53,3.53,0,0,0,3.53,3.53m244.67,20.12a3.53,3.53,0,1,0-3.53-3.53,3.53,3.53,0,0,0,3.53,3.53m-244.67,0a3.53,3.53,0,1,0-3.53-3.53,3.53,3.53,0,0,0,3.53,3.53m244.67,20.12a3.53,3.53,0,1,0-3.53-3.53,3.53,3.53,0,0,0,3.53,3.53m-244.67,0a3.53,3.53,0,1,0-3.53-3.53,3.53,3.53,0,0,0,3.53,3.53M804.83,398a3.53,3.53,0,1,0-3.53-3.53,3.53,3.53,0,0,0,3.53,3.53m-244.67,0a3.53,3.53,0,1,0-3.53-3.53,3.53,3.53,0,0,0,3.53,3.53m244.67,20.12a3.53,3.53,0,1,0-3.53-3.53,3.53,3.53,0,0,0,3.53,3.53m-244.67,0a3.53,3.53,0,1,0-3.53-3.53,3.53,3.53,0,0,0,3.53,3.53m244.67,20.12a3.53,3.53,0,1,0-3.53-3.53,3.53,3.53,0,0,0,3.53,3.53m-244.67,0a3.53,3.53,0,1,0-3.53-3.53,3.53,3.53,0,0,0,3.53,3.53M804.83,458.3a3.53,3.53,0,1,0-3.53-3.53,3.53,3.53,0,0,0,3.53,3.53m-244.67,0a3.53,3.53,0,1,0-3.53-3.53,3.53,3.53,0,0,0,3.53,3.53m244.67,20.12a3.53,3.53,0,1,0-3.53-3.53,3.53,3.53,0,0,0,3.53,3.53m-244.67,0a3.53,3.53,0,1,0-3.53-3.53,3.53,3.53,0,0,0,3.53,3.53M897,270H468a8.77,8.77,0,0,0-9,8.73V490a9,9,0,0,0,9,9H897a9,9,0,0,0,9-9V278.73a8.77,8.77,0,0,0-9-8.73Z" transform="translate(-459 -270)"/>
  <g>
    <path class="cls-1" d="M583.06,297.44h10.61v2h-8.23v5.11h3.19c3.6,0,6.19,1.54,6.19,4.92s-2.54,4.92-6.17,4.92h-5.59Zm5.33,15c2.5,0,4-.89,4-2.88s-1.46-2.93-4-2.93h-3v5.81Z" transform="translate(-459 -270)"/>
    <path class="cls-1" d="M598.14,303.05h2.26v8.21h0l5.83-8.21h2.47v11.38h-2.26V306.2h0l-5.81,8.23h-2.47Z" transform="translate(-459 -270)"/>
    <path class="cls-1" d="M611,314.41l.19-1.9a2.57,2.57,0,0,0,.77.12c1.54,0,2.42-1.3,2.42-5.62v-4h8.74v11.38h-2.26V304.9h-4.3v2.71c0,4.49-1.15,7-4.1,7A8.85,8.85,0,0,1,611,314.41Z" transform="translate(-459 -270)"/>
    <path class="cls-1" d="M626.22,308.76a5.76,5.76,0,0,1,5.88-6c3.36,0,5.47,2.28,5.47,5.9,0,.24,0,.5,0,.77h-9a3.64,3.64,0,0,0,3.7,3.46,3.91,3.91,0,0,0,3.31-1.73l1.58,1.27a5.87,5.87,0,0,1-4.9,2.33A5.74,5.74,0,0,1,626.22,308.76Zm9.07-1a3,3,0,0,0-3.19-3.22,3.53,3.53,0,0,0-3.58,3.22Z" transform="translate(-459 -270)"/>
    <path class="cls-1" d="M643.11,304.9h-3.86v-1.85h10v1.85h-3.86v9.53h-2.26Z" transform="translate(-459 -270)"/>
  </g>
  <g>
    <path class="cls-1" d="M481.2,470.89h1.39v4.37h0l4.43-4.37H489l-4.82,4.54,5.11,5.38h-2l-4.65-5.13h0v5.13H481.2Z" transform="translate(-459 -270)"/>
    <path class="cls-1" d="M489.51,477.48a3.58,3.58,0,1,1,3.57,3.52A3.42,3.42,0,0,1,489.51,477.48Zm5.79,0a2.22,2.22,0,1,0-2.21,2.41A2.22,2.22,0,0,0,495.29,477.48Z" transform="translate(-459 -270)"/>
    <path class="cls-1" d="M498.48,474.17h1.29v1h0a2.77,2.77,0,0,1,2.4-1.22,3.51,3.51,0,0,1,0,7,2.8,2.8,0,0,1-2.34-1.18h0v4.36h-1.32Zm5.69,3.31a2.22,2.22,0,0,0-2.21-2.39,2.41,2.41,0,0,0,0,4.8A2.23,2.23,0,0,0,504.17,477.48Z" transform="translate(-459 -270)"/>
    <path class="cls-1" d="M506.92,477.5a3.36,3.36,0,0,1,3.43-3.52c2,0,3.19,1.33,3.19,3.45,0,.14,0,.29,0,.45h-5.27a2.12,2.12,0,0,0,2.16,2,2.28,2.28,0,0,0,1.93-1l.92.74a3.42,3.42,0,0,1-2.86,1.36A3.35,3.35,0,0,1,506.92,477.5Zm5.29-.6a1.77,1.77,0,0,0-1.86-1.88,2.06,2.06,0,0,0-2.09,1.88Z" transform="translate(-459 -270)"/>
    <path class="cls-1" d="M515.38,474.17h1.32v5.53h2.84v-5.53h1.32v5.53h2.83v-5.53H525v6.64h-9.62Z" transform="translate(-459 -270)"/>
    <path class="cls-1" d="M526.87,477.48a3.58,3.58,0,1,1,3.57,3.52A3.42,3.42,0,0,1,526.87,477.48Zm5.79,0a2.22,2.22,0,1,0-2.21,2.41A2.22,2.22,0,0,0,532.66,477.48Z" transform="translate(-459 -270)"/>
    <path class="cls-1" d="M535.86,474.17h1.32v3h0l2.8-3h1.75l-3.08,3.15,3.36,3.49h-1.78l-3.05-3.25h0v3.25h-1.32Z" transform="translate(-459 -270)"/>
  </g>
  <g>
    <path class="cls-1" d="M823.21,470.89h1.39v4.37h0l4.43-4.37H831l-4.82,4.54,5.11,5.38h-2l-4.65-5.13h0v5.13h-1.39Z" transform="translate(-459 -270)"/>
    <path class="cls-1" d="M831.51,477.48a3.58,3.58,0,1,1,3.57,3.52A3.42,3.42,0,0,1,831.51,477.48Zm5.79,0a2.22,2.22,0,1,0-4.43,0,2.22,2.22,0,1,0,4.43,0Z" transform="translate(-459 -270)"/>
    <path class="cls-1" d="M840.48,474.17h1.32v2.63h3.29v-2.63h1.32v6.64h-1.32v-2.93H841.8v2.93h-1.32Z" transform="translate(-459 -270)"/>
    <path class="cls-1" d="M850.07,475.25h-2.25v-1.08h5.83v1.08h-2.25v5.56h-1.32Z" transform="translate(-459 -270)"/>
    <path class="cls-1" d="M855.05,474.17h1.29v1h0a2.77,2.77,0,0,1,2.4-1.22,3.51,3.51,0,0,1,0,7,2.81,2.81,0,0,1-2.34-1.18h0v4.36h-1.32Zm5.69,3.31a2.22,2.22,0,0,0-2.21-2.39,2.41,2.41,0,0,0,0,4.8A2.23,2.23,0,0,0,860.74,477.48Z" transform="translate(-459 -270)"/>
    <path class="cls-1" d="M863.5,477.48a3.58,3.58,0,1,1,3.57,3.52A3.42,3.42,0,0,1,863.5,477.48Zm5.79,0a2.22,2.22,0,1,0-2.21,2.41A2.22,2.22,0,0,0,869.28,477.48Z" transform="translate(-459 -270)"/>
    <path class="cls-1" d="M871.34,480.8l.11-1.11a1.48,1.48,0,0,0,.45.07c.9,0,1.41-.76,1.41-3.28v-2.31h5.1v6.64h-1.32v-5.56h-2.51v1.58c0,2.62-.67,4.06-2.4,4.06A5.24,5.24,0,0,1,871.34,480.8Z" transform="translate(-459 -270)"/>
    <path class="cls-1" d="M880.67,474.17H882v2.41h1.51c1.6,0,2.65.7,2.65,2.12s-1,2.12-2.63,2.12h-2.84Zm2.68,5.59c1,0,1.47-.35,1.47-1.05s-.42-1.09-1.47-1.09H882v2.14Z" transform="translate(-459 -270)"/>
  </g>
  <g>
    <path class="cls-1" d="M883.38,435.45l-4,2.73v-1.45l3.17-2-3.17-2v-1.39l4,2.71,4.47-3.08v1.5l-3.57,2.33,3.57,2.28v1.46Z" transform="translate(-459 -270)"/>
    <path class="cls-1" d="M883.38,427.44l-4,2.73v-1.45l3.17-2-3.17-2v-1.39l4,2.71,4.47-3.08v1.5l-3.57,2.33,3.57,2.28v1.46Z" transform="translate(-459 -270)"/>
    <path class="cls-1" d="M883.38,419.42l-4,2.73v-1.45l3.17-2-3.17-2v-1.39l4,2.71,4.47-3.08v1.5l-3.57,2.33,3.57,2.28v1.46Z" transform="translate(-459 -270)"/>
    <path class="cls-1" d="M883.38,411.41l-4,2.73v-1.45l3.17-2-3.17-2v-1.39l4,2.71,4.47-3.08v1.5l-3.57,2.33,3.57,2.28v1.46Z" transform="translate(-459 -270)"/>
    <path class="cls-1" d="M883.38,403.39l-4,2.73v-1.45l3.17-2-3.17-2v-1.39l4,2.71,4.47-3.08v1.5l-3.57,2.33,3.57,2.28v1.46Z" transform="translate(-459 -270)"/>
    <path class="cls-1" d="M883.38,395.37l-4,2.73v-1.45l3.17-2-3.17-2v-1.39l4,2.71,4.47-3.08v1.5l-3.57,2.33,3.57,2.28v1.46Z" transform="translate(-459 -270)"/>
  </g>
  <path class="cls-1" d="M883.38,454.75l-4,2.73V456l3.17-2-3.17-2v-1.39l4,2.71,4.47-3.08v1.5L884.31,454l3.57,2.28v1.46Z" transform="translate(-459 -270)"/>
  <g>
    <path class="cls-1" d="M883.38,375.75l-4,2.73V377l3.17-2-3.17-2v-1.39l4,2.71,4.47-3.08v1.5L884.31,375l3.57,2.28v1.46Z" transform="translate(-459 -270)"/>
    <path class="cls-1" d="M883.38,367.73l-4,2.73V369l3.17-2-3.17-2v-1.39l4,2.71,4.47-3.08v1.5L884.31,367l3.57,2.28v1.46Z" transform="translate(-459 -270)"/>
    <path class="cls-1" d="M883.38,359.72l-4,2.73V361l3.17-2-3.17-2v-1.39l4,2.71,4.47-3.08v1.5L884.31,359l3.57,2.28v1.46Z" transform="translate(-459 -270)"/>
    <path class="cls-1" d="M883.38,351.7l-4,2.73V353l3.17-2-3.17-2v-1.39l4,2.71,4.47-3.08v1.5L884.31,351l3.57,2.28v1.46Z" transform="translate(-459 -270)"/>
    <path class="cls-1" d="M883.38,343.69l-4,2.73V345l3.17-2-3.17-2v-1.39l4,2.71,4.47-3.08v1.5L884.31,343l3.57,2.28v1.46Z" transform="translate(-459 -270)"/>
    <path class="cls-1" d="M883.38,335.67l-4,2.73V337l3.17-2-3.17-2v-1.39l4,2.71,4.47-3.08v1.5L884.31,335l3.57,2.28v1.46Z" transform="translate(-459 -270)"/>
  </g>
  <g>
    <path class="cls-1" d="M484.25,292.88l-2.73-4H483l2,3.17,2-3.17h1.39l-2.71,4,3.08,4.47h-1.5L485,293.8l-2.28,3.57h-1.46Z" transform="translate(-459 -270)"/>
    <path class="cls-1" d="M492.27,292.88l-2.73-4H491l2,3.17,2-3.17h1.39l-2.71,4,3.08,4.47h-1.5L493,293.8l-2.28,3.57h-1.46Z" transform="translate(-459 -270)"/>
    <path class="cls-1" d="M506.5,293.13c0,2.48-.88,4.46-2.89,4.46s-2.9-2-2.9-4.46.88-4.46,2.9-4.46S506.5,290.66,506.5,293.13Zm-4.61,0c0,1.44.31,3.48,1.72,3.48s1.7-2,1.7-3.48-.32-3.49-1.7-3.49S501.89,291.7,501.89,293.13Z" transform="translate(-459 -270)"/>
    <path class="cls-1" d="M513.64,293.13c0,2.48-.88,4.46-2.89,4.46s-2.9-2-2.9-4.46.88-4.46,2.9-4.46S513.64,290.66,513.64,293.13Zm-4.61,0c0,1.44.31,3.48,1.72,3.48s1.7-2,1.7-3.48-.32-3.49-1.7-3.49S509,291.7,509,293.13Z" transform="translate(-459 -270)"/>
    <path class="cls-1" d="M520.78,293.13c0,2.48-.88,4.46-2.89,4.46s-2.9-2-2.9-4.46.88-4.46,2.9-4.46S520.78,290.66,520.78,293.13Zm-4.61,0c0,1.44.31,3.48,1.72,3.48s1.7-2,1.7-3.48-.32-3.49-1.7-3.49S516.17,291.7,516.17,293.13Z" transform="translate(-459 -270)"/>
    <path class="cls-1" d="M527.92,293.13c0,2.48-.88,4.46-2.89,4.46s-2.9-2-2.9-4.46.88-4.46,2.9-4.46S527.92,290.66,527.92,293.13Zm-4.61,0c0,1.44.31,3.48,1.72,3.48s1.7-2,1.7-3.48-.32-3.49-1.7-3.49S523.31,291.7,523.31,293.13Z" transform="translate(-459 -270)"/>
    <path class="cls-1" d="M535.06,293.13c0,2.48-.88,4.46-2.89,4.46s-2.9-2-2.9-4.46.88-4.46,2.9-4.46S535.06,290.66,535.06,293.13Zm-4.61,0c0,1.44.31,3.48,1.72,3.48s1.7-2,1.7-3.48-.32-3.49-1.7-3.49S530.45,291.7,530.45,293.13Z" transform="translate(-459 -270)"/>
    <path class="cls-1" d="M542.2,293.13c0,2.48-.88,4.46-2.89,4.46s-2.9-2-2.9-4.46.88-4.46,2.9-4.46S542.2,290.66,542.2,293.13Zm-4.61,0c0,1.44.31,3.48,1.72,3.48s1.7-2,1.7-3.48-.32-3.49-1.7-3.49S537.59,291.7,537.59,293.13Z" transform="translate(-459 -270)"/>
  </g>
  <rect class="cls-1" x="363" y="164.01" width="53.5" height="4.12"/>
  <rect class="cls-1" x="363" y="171.67" width="65.88" height="2.06"/>
  <rect class="cls-1" x="363" y="175.18" width="65.88" height="2.06"/>
  <rect class="cls-1" x="363" y="111.84" width="65.88" height="2.06"/>
  <rect class="cls-1" x="363" y="115.35" width="65.88" height="2.06"/>
  <rect class="cls-1" x="363" y="51" width="65.88" height="2.06"/>
  <rect class="cls-1" x="363" y="54.51" width="65.88" height="2.06"/>
  <rect class="cls-1" x="363" y="85.81" width="53.5" height="4.12"/>
  <rect class="cls-1" x="363" y="134.14" width="53.5" height="4.12"/>
  <rect class="cls-1" x="363" y="61.12" width="53.5" height="4.12"/>
  <rect class="cls-1" x="363" y="120.96" width="53.5" height="8.23"/>
  <rect class="cls-1" x="363" y="71.35" width="53.5" height="8.23"/>
  <rect class="cls-1" x="122" y="137.35" width="53.5" height="8.23"/>
  <rect class="cls-1" x="122" y="91.35" width="78" height="8.23"/>
  <rect class="cls-1" x="122" y="108.35" width="109" height="8.23"/>
  <rect class="cls-1" x="122" y="155.35" width="53.5" height="8.23"/>
  <rect class="cls-1" x="122" y="173.35" width="53.5" height="8.23"/>
  <rect class="cls-1" x="122" y="191.35" width="53.5" height="8.23"/>
  <rect class="cls-1" x="188" y="137.35" width="23.5" height="8.23"/>
  <rect class="cls-1" x="188" y="155.35" width="23.5" height="8.23"/>
  <rect class="cls-1" x="188" y="173.35" width="23.5" height="8.23"/>
  <rect class="cls-1" x="188" y="191.35" width="23.5" height="8.23"/>
  <rect class="cls-1" x="363" y="143.43" width="53.5" height="12.35"/>
  <rect class="cls-1" x="363" y="95.9" width="53.5" height="12.35"/>
  <circle class="cls-1" cx="303" cy="186" r="13"/>
  <path class="cls-2" d="M902,468H863V308h39Zm-36-3h33V311H866Z" transform="translate(-459 -270)"/>
</svg>
