<svg id="Layer_1" data-name="Layer 1" xmlns="http://www.w3.org/2000/svg" width="447" height="230" viewBox="0 0 447 230">
  <defs>
    <style>
      .cls-1 {
        fill: #fff;
      }

      .cls-2 {
        fill: #1e1e20;
      }
    </style>
  </defs>
  <title>ticket-promo</title>
  <path class="cls-1" d="M438,4a5,5,0,0,1,5,5V221a5,5,0,0,1-5,5H9a5,5,0,0,1-5-5V9A5,5,0,0,1,9,4H438m0-4H9A9,9,0,0,0,0,9V221a9,9,0,0,0,9,9H438a9,9,0,0,0,9-9V9a9,9,0,0,0-9-9Z"/>
  <path class="cls-1" d="M211,185a70,70,0,1,1,70-70A70.08,70.08,0,0,1,211,185Zm0-136a66,66,0,1,0,66,66A66.07,66.07,0,0,0,211,49Z"/>
  <polygon class="cls-2" points="241 186 232 166 194 166 181 188 201 197 236 194 241 186"/>
  <g>
    <path class="cls-1" d="M202.19,94h-23l-.47,18.33a21.07,21.07,0,0,1,8.16-1.48c10.33,0,17.55,7.07,17.55,17.24,0,11-7.69,18.17-17.79,18.17-7.69,0-12.66-3.5-15.69-9l3.65-2.1c2.87,5,6.52,7.3,11.81,7.3,7.38,0,13.51-5.51,13.51-14s-5.82-14-14.29-14a23.94,23.94,0,0,0-11.11,3L175.09,90h27.11Z"/>
    <path class="cls-1" d="M250.58,117.58c0,13.75-3.88,28.66-17.71,28.66s-17.71-14.91-17.71-28.66S219,88.77,232.87,88.77,250.58,103.76,250.58,117.58Zm-31,0c0,10.1,2.25,24.85,13.28,24.85s13.28-14.76,13.28-24.85-2.33-25-13.28-25S219.59,107.41,219.59,117.58Z"/>
  </g>
  <g>
    <path class="cls-1" d="M193.12,184l7.9-6.79-6.27-1.2.35-1.82,8.75,1.67-.36,1.89-7.92,6.75,6.5,1.24-.35,1.85-8.95-1.71Z"/>
    <path class="cls-1" d="M206.9,176l7.9.13,0,1.85L209,177.9l0,3,5.48.09,0,1.79-5.47-.09-.06,3.37,6.08.1,0,1.89-8.2-.13Z"/>
    <path class="cls-1" d="M217.7,175.94l2.76-.54,7.16,7.69h0l-1.72-8.76,2.08-.41,2.3,11.7-2.64.52-7.33-7.95h0l1.78,9-2.08.41Z"/>
  </g>
  <g>
    <rect class="cls-2" x="42" y="3" width="40" height="224"/>
    <path class="cls-1" d="M83,228H41V2H83Zm-40-2H81V4H43Z"/>
  </g>
  <g>
    <path class="cls-1" d="M58.36,129.33v-8H67v2.16H60.09v3.64H67v2.16Z"/>
    <path class="cls-1" d="M63.72,117.25a2.48,2.48,0,0,1-2.57,1.93c-1.91,0-2.79-1.51-2.79-3.46v-4.36H67v2.16H63.94v1.6L67,116.89v2.54Zm-1.39-3.73H60v1.67c0,1.35.32,1.89,1.19,1.89s1.17-.61,1.17-1.89Z"/>
    <path class="cls-1" d="M60.09,106.94v2.77H58.36V102h1.73v2.75H67v2.16Z"/>
    <path class="cls-1" d="M65.24,101.65v-.9a7.32,7.32,0,0,0-4.65-1.21H58.36v-7h6.88V91.24h4.23v1.82H67v6.77h2.47v1.82Zm0-7H60.09v2.81h1.06a7.53,7.53,0,0,1,4.09,1Z"/>
    <path class="cls-1" d="M63.36,81.36v6.57a2.4,2.4,0,0,0,2.12-2.47,2.62,2.62,0,0,0-1.12-2.29l1.15-1.44a4.3,4.3,0,0,1,1.73,3.71,4.34,4.34,0,0,1-4.52,4.65,4.41,4.41,0,0,1-4.63-4.57c0-2.41,1.57-4.18,4.68-4.18C63,81.34,63.17,81.34,63.36,81.36ZM61.81,83.5a1.92,1.92,0,0,0-2.09,2,2.31,2.31,0,0,0,2.09,2.39Z"/>
    <path class="cls-1" d="M60.75,73.35a2.29,2.29,0,0,0-.85,1.78,2.8,2.8,0,0,0,5.54-.07,2.42,2.42,0,0,0-.77-1.82L66,71.89a4.36,4.36,0,0,1,1.21,3.19,4.57,4.57,0,1,1-9.15.05,4.32,4.32,0,0,1,1.35-3.26Z"/>
    <path class="cls-1" d="M63.72,68.94a2.48,2.48,0,0,1-2.57,1.93c-1.91,0-2.79-1.51-2.79-3.46V63.05H67v2.16H63.94v1.6L67,68.58v2.54Zm-1.39-3.73H60v1.67c0,1.35.32,1.89,1.19,1.89s1.17-.61,1.17-1.89Z"/>
    <path class="cls-1" d="M60.09,58.63V61.4H58.36V53.71h1.73v2.75H67v2.16Z"/>
    <path class="cls-1" d="M65.09,48.24l-5-4.66V48H58.36V41h1.91l5,4.68v-4.9H67v7.45Z"/>
    <path class="cls-1" d="M63.36,30.65v6.57a2.41,2.41,0,0,0,2.12-2.47,2.62,2.62,0,0,0-1.12-2.29L65.52,31a4.3,4.3,0,0,1,1.73,3.71,4.34,4.34,0,0,1-4.52,4.65,4.41,4.41,0,0,1-4.63-4.57c0-2.41,1.57-4.18,4.68-4.18C63,30.64,63.17,30.64,63.36,30.65ZM61.81,32.8a1.92,1.92,0,0,0-2.09,2,2.31,2.31,0,0,0,2.09,2.4Z"/>
    <path class="cls-1" d="M58.36,28.55V26.5h1.39v0a2.94,2.94,0,0,1-1.64-2.68c0-2.25,1.73-3.19,3.49-3.19H67v2.16H62.21c-1,0-2.3.23-2.3,1.62a2.11,2.11,0,0,0,2.34,2H67v2.16Z"/>
  </g>
  <g>
    <circle class="cls-2" cx="62" cy="177" r="32"/>
    <path class="cls-1" d="M62,210a33,33,0,1,1,33-33A33,33,0,0,1,62,210Zm0-64a31,31,0,1,0,31,31A31,31,0,0,0,62,146Z"/>
  </g>
  <g>
    <path class="cls-1" d="M52.17,180.45v9l6.71.15a9.07,9.07,0,0,1-.49-3c0-4.07,2.76-7,6.8-7a7.24,7.24,0,0,1,3.31,13.69l-.89-2a4.8,4.8,0,0,0,2.94-4.38,5,5,0,0,0-5.14-5.08,5,5,0,0,0-5.21,5.39,9.69,9.69,0,0,0,1.19,4.5l-11.18-.21V180.45Z"/>
    <path class="cls-1" d="M61.09,161.25c5.64,0,11.36,1.72,11.36,7.11s-5.73,7.1-11.36,7.1-11.42-1.65-11.42-7.1S55.45,161.25,61.09,161.25Zm0,12c4.32,0,9.46-1,9.46-4.87s-5.14-4.87-9.46-4.87-9.55,1.07-9.55,4.87S56.77,173.22,61.09,173.22Z"/>
  </g>
  <path class="cls-1" d="M376.83,96.24l-25.34,35.83h25.71V136H345.9v-3.68l25.4-35.83H346.58V92.56h30.25Z"/>
  <rect class="cls-1" x="355" y="84" width="4" height="11"/>
  <rect class="cls-1" x="363" y="84" width="4" height="11"/>
  <rect class="cls-1" x="355" y="135" width="4" height="11"/>
  <rect class="cls-1" x="363" y="135" width="4" height="11"/>
</svg>
