<svg id="Layer_1" data-name="Layer 1" xmlns="http://www.w3.org/2000/svg" width="23.044" height="18.726" viewBox="0 0 23.044 18.726">
  <defs>
    <style>
      .cls-1 { fill: #fff; }
    </style>
  </defs>
  <title>
    icon-soc-twitter
  </title>
  <path class="cls-1" d="M23.044 2.217a9.45 9.45 0 0 1-2.715.744A4.742 4.742 0 0 0 22.406.347a9.465 9.465 0 0 1-3 1.147 4.732 4.732 0 0 0-8.056 4.312A13.42 13.42 0 0 1 1.608.865a4.772 4.772 0 0 0 1.417 6.312 6.584 6.584 0 0 1-2.188-.59v.058a4.77 4.77 0 0 0 3.838 4.636 4.563 4.563 0 0 1-1.222.167 4.61 4.61 0 0 1-.878-.085 4.74 4.74 0 0 0 4.422 3.283 9.476 9.476 0 0 1-5.87 2.02 9.587 9.587 0 0 1-1.125-.067A13.445 13.445 0 0 0 20.7 5.27q0-.306-.013-.61a9.6 9.6 0 0 0 2.36-2.448z"/>
</svg>