<svg id="Layer_1" data-name="Layer 1" xmlns="http://www.w3.org/2000/svg" width="25" height="25" viewBox="0 0 25 25">
  <defs>
    <style>
      .cls-1 {
        fill: #ff1045;
      }

      .cls-2 {
        fill: #fff;
      }
    </style>
  </defs>
  <title>icon-notification-bell</title>
  <circle class="cls-1" cx="12.5" cy="12.5" r="12.5"/>
  <circle class="cls-2" cx="12.5" cy="18" r="1.5"/>
  <path class="cls-2" d="M17.913,13.909A4.651,4.651,0,0,0,16.5,13.5c-.275,0-.5-.45-.5-1V8.781a5.591,5.591,0,0,0-.409-1.913l-.96-.96A5.591,5.591,0,0,0,12.719,5.5h-.437a5.591,5.591,0,0,0-1.913.409l-.96.96A5.591,5.591,0,0,0,9,8.781V12.5c0,.55-.225,1-.5,1a4.651,4.651,0,0,0-1.413.409S7,13.948,7,14.5s.087.591.087.591A5.591,5.591,0,0,0,9,15.5h7a5.591,5.591,0,0,0,1.913-.409S18,15.052,18,14.5,17.913,13.909,17.913,13.909Z"/>
</svg>
