<svg id="Layer_1" data-name="Layer 1" xmlns="http://www.w3.org/2000/svg" width="23.983" height="13.684" viewBox="0 0 23.983 13.684">
  <defs>
    <style>
      .cls-1 { fill: #fff; fill-rule: evenodd; }
    </style>
  </defs>
  <title>
    icon-soc-vk
  </title>
  <path class="cls-1" d="M11.734 13.625h1.433a1.212 1.212 0 0 0 .654-.286 1.05 1.05 0 0 0 .2-.63s-.027-1.924.866-2.208 2.01 1.86 3.208 2.68a2.272 2.272 0 0 0 1.594.487l3.2-.046s1.675-.1.88-1.42a10.7 10.7 0 0 0-2.38-2.756c-2.01-1.864-1.74-1.562.68-4.787 1.472-1.963 2.06-3.16 1.877-3.675-.175-.49-1.26-.36-1.26-.36L19.08.647a.82.82 0 0 0-.466.082 1.006 1.006 0 0 0-.318.386 20.92 20.92 0 0 1-1.332 2.812c-1.606 2.727-2.248 2.87-2.51 2.7-.61-.395-.458-1.585-.458-2.43 0-2.644.4-3.745-.78-4.03A6.165 6.165 0 0 0 11.53 0 7.778 7.778 0 0 0 8.54.308c-.41.2-.727.65-.534.674a1.618 1.618 0 0 1 1.064.536 3.48 3.48 0 0 1 .357 1.632s.212 3.11-.5 3.5c-.486.265-1.153-.276-2.585-2.75A23.01 23.01 0 0 1 5.055 1.23a1.072 1.072 0 0 0-.3-.4A1.49 1.49 0 0 0 4.2.606L.775.628S.26.642.074.866c-.168.2-.013.61-.013.61s2.684 6.278 5.722 9.44a8.23 8.23 0 0 0 5.95 2.71z"/>
</svg>